<svg id="Слой_1" data-name="Слой 1" xmlns="http://www.w3.org/2000/svg" viewBox="0 0 185.48 57.44">
  <defs>
    <style>
      .cls-1 {
        fill: #3d3d3d;
      }
    </style>
  </defs>
  <path class="cls-1" d="M32.54,46.4A13.42,13.42,0,0,1,19,32.82a13.41,13.41,0,0,1,13.5-13.68A13.35,13.35,0,0,1,46.15,32.86,13.37,13.37,0,0,1,32.54,46.4ZM20.87,32l-.18,0c.34,1.42.65,2.85,1,4.26.24.85.79,1.16,1.52.95a1.34,1.34,0,0,0,.88-1.73c-.19-.74-.4-1.49-.52-2.24a8.29,8.29,0,0,1,6.93-9.34,25.63,25.63,0,0,1,3.61.05,1.2,1.2,0,0,0,1.31-1,1.22,1.22,0,0,0-1-1.51,10.94,10.94,0,0,0-4.56-.13A11.32,11.32,0,0,0,20.87,32Z" transform="translate(-7.61 -4.41)"/>
  <path class="cls-1" d="M169,39.35c.19,0,.3,0,.41,0,1.4-.06,1.33.11,1.33,1.36s0,2.64,0,4c0,.54-.21.76-.72.78a2.3,2.3,0,0,1-.26,0c-1.51.1-1.6,0-1.6-1.49,0-.59,0-1.18,0-1.78,0-.32-.08-.48-.45-.48h-8.63a1.08,1.08,0,0,0-.24.08c0,1,0,1.92,0,2.88,0,.51-.18.73-.67.74l-.13,0c-1.58.18-1.78,0-1.78-1.56,0-1.25,0-2.51,0-3.76,0-.55.16-.8.74-.82a1.06,1.06,0,0,0,.72-.42,12.16,12.16,0,0,0,1.6-4.9c.29-1.8.51-3.61.77-5.41.12-.84.31-1,1.17-1h6.53c1,0,1.18.23,1.18,1.22V39.35Zm-8.38,0H166V30c-.9,0-1.75,0-2.6,0-.45,0-.59.13-.65.58C162.33,33.57,162.16,36.6,160.59,39.34Z" transform="translate(-7.61 -4.41)"/>
  <path class="cls-1" d="M77.69,33V5.45a1,1,0,0,1,1.56-.85.65.65,0,0,1,.23.44,3.61,3.61,0,0,1,0,.66V60.25c0,.22,0,.45,0,.66a1,1,0,0,1-1,.94c-.67,0-.76-.44-.76-1q0-9.57,0-19.13Z" transform="translate(-7.61 -4.41)"/>
  <path class="cls-1" d="M169,13.63a22.38,22.38,0,0,1,.28-2.35C170,8,172.4,6.14,176,6.22a10.5,10.5,0,0,1,1.77.16A5,5,0,0,1,181.93,10a10.72,10.72,0,0,1,0,6.74,5.6,5.6,0,0,1-5,4,10.47,10.47,0,0,1-3,0,5.25,5.25,0,0,1-4.73-4.83C169.12,15.15,169.09,14.43,169,13.63Zm3.05-.35c.1,1,.12,1.61.24,2.26a3,3,0,0,0,1.75,2.55c1.93.75,4.37.36,5.06-2.4a9.52,9.52,0,0,0,0-4.44,3.06,3.06,0,0,0-2.9-2.61,3.23,3.23,0,0,0-3.65,2.16A17.7,17.7,0,0,0,172.06,13.28Z" transform="translate(-7.61 -4.41)"/>
  <path class="cls-1" d="M125,42.1c-.7-.09-1.41-.12-2.09-.27a5,5,0,0,1-4-3.82,11.07,11.07,0,0,1,.06-6.3,5.79,5.79,0,0,1,5.39-4.23,13.9,13.9,0,0,1,2.88.13,5,5,0,0,1,4.27,3.89,10.92,10.92,0,0,1,.08,5.73C130.78,40.41,128.5,42.07,125,42.1Zm.29-12.24a3.24,3.24,0,0,0-3.47,2.69,9.48,9.48,0,0,0,.06,4.76,2.92,2.92,0,0,0,1.59,2,3.56,3.56,0,0,0,5.1-2.46,9.61,9.61,0,0,0,0-4.43A3.06,3.06,0,0,0,125.29,29.86Z" transform="translate(-7.61 -4.41)"/>
  <path class="cls-1" d="M137.21,6.21A6.35,6.35,0,0,1,142,7.88a6,6,0,0,1,1.57,3.41,11,11,0,0,1-.42,5.65,5.6,5.6,0,0,1-4.88,3.79,12.39,12.39,0,0,1-3.33-.1A4.87,4.87,0,0,1,130.79,17a11,11,0,0,1,0-6.31C131.58,7.74,133.89,6.18,137.21,6.21Zm3.55,7.27-.11,0c0-.42,0-.84-.07-1.25-.17-1.37-.53-2.65-2-3.28a3.53,3.53,0,0,0-5,2.46,9.91,9.91,0,0,0,0,4.5,3,3,0,0,0,2.77,2.5c1.95.13,3.2-.51,3.75-2.09A21.87,21.87,0,0,0,140.76,13.48Z" transform="translate(-7.61 -4.41)"/>
  <path class="cls-1" d="M142.46,34.58a23.55,23.55,0,0,1,.57-3,5.66,5.66,0,0,1,5.07-4.09,12.15,12.15,0,0,1,3.07.09,5.1,5.1,0,0,1,4.45,4.26,11.23,11.23,0,0,1-.09,5.67A5.86,5.86,0,0,1,150.06,42a12.15,12.15,0,0,1-2.56-.08,5.3,5.3,0,0,1-4.79-4.85C142.6,36.35,142.56,35.63,142.46,34.58Zm10.52.16-.1,0c-.06-.61-.08-1.23-.18-1.83-.31-1.9-1.42-3-3.09-3-2.11-.05-3.4.89-3.81,2.86a9.79,9.79,0,0,0,.09,4.44,3,3,0,0,0,2.88,2.45,3.2,3.2,0,0,0,3.56-2A23,23,0,0,0,153,34.74Z" transform="translate(-7.61 -4.41)"/>
  <path class="cls-1" d="M163.79,14.56h-5.2v2.19c0,1,0,2.06,0,3.09a.65.65,0,0,1-.67.78l-.26,0c-2,.11-2,.08-2-1.89,0-3.78,0-7.56,0-11.34,0-.69.25-1,.89-1l.33,0c1.65-.08,1.74,0,1.74,1.65,0,1.14,0,2.28,0,3.43,0,.44.15.56.57.56,1.37,0,2.73,0,4.09,0,.45,0,.56-.16.55-.58,0-1.41,0-2.81,0-4.22,0-.49.17-.74.66-.78.15,0,.3-.05.45-.06,1.7-.11,1.84,0,1.84,1.71V19.62c0,.86-.13,1-1,1-2,.09-2,.09-2-1.88Z" transform="translate(-7.61 -4.41)"/>
  <path class="cls-1" d="M113.24,30.17h-5.19V31c0,3.32,0,6.64,0,10,0,.68-.27.88-.86.94-1.89.18-2.06,0-2.06-1.85V28.94c0-1.08.19-1.28,1.26-1.28H115c1,0,1.21.24,1.21,1.21,0,4.05,0,8.09,0,12.14,0,.52-.19.78-.7.83h-.06c-1.89.28-2.19,0-2.19-1.83V30.17Z" transform="translate(-7.61 -4.41)"/>
  <path class="cls-1" d="M113.24,8.93h-5.19V19.69c0,.81-.1.91-.89.95-2,.1-2,.1-2-1.93V7.7c0-1,.19-1.23,1.22-1.23H115c.94,0,1.18.22,1.18,1.16,0,4.06,0,8.13,0,12.2a.69.69,0,0,1-.73.8h-.06c-2.05.2-2.16.11-2.16-1.92V8.93Z" transform="translate(-7.61 -4.41)"/>
  <path class="cls-1" d="M122.09,15.71c0,1.45,0,2.77,0,4.09,0,.58-.25.79-.77.83h-.13c-2,.14-2.07.08-2.07-1.91V8c0-1.36.22-1.59,1.56-1.57a42.67,42.67,0,0,1,4.53.17,3.83,3.83,0,0,1,3.62,3.58,4.48,4.48,0,0,1-2.67,4.95,13.89,13.89,0,0,1-2.76.53A9.54,9.54,0,0,1,122.09,15.71Zm0-2.27c1.18,0,2.42.23,3.2-.91a2.5,2.5,0,0,0,.11-2.86c-.8-1.27-2.1-.86-3.31-.91Z" transform="translate(-7.61 -4.41)"/>
  <path class="cls-1" d="M175.57,32.83c1.19.06,2.27.05,3.33.18,2.45.29,3.89,1.76,3.93,3.91,0,2.58-1.28,4.36-3.77,4.67a46.19,46.19,0,0,1-5.65.16c-.25,0-.53-.41-.73-.68s-.05-.38-.05-.58V28.57c0-.78.12-.9.91-.95,2-.14,2-.1,2,1.85Zm0,6.65c.84,0,1.61.05,2.37,0a1.93,1.93,0,0,0,1.81-1.78c.12-1.17-.31-2.09-1.28-2.31a21.1,21.1,0,0,0-2.9-.3Z" transform="translate(-7.61 -4.41)"/>
  <path class="cls-1" d="M190.41,13.12A3.39,3.39,0,0,1,193,15.91a3.79,3.79,0,0,1-2.13,4.2,7.66,7.66,0,0,1-6.27.19,2,2,0,0,1-.81-2.51c.08-.13.52-.16.71-.06a5.38,5.38,0,0,0,3,.68c1.37-.1,2.18-.89,2.13-2.09a1.77,1.77,0,0,0-1.61-1.73,13,13,0,0,0-2.42-.14c-.62,0-.91-.21-.87-.83,0-.2,0-.4,0-.6,0-.61.25-.85.88-.85A11.51,11.51,0,0,0,188,12a1.73,1.73,0,0,0,1.48-1.89c-.08-1-.68-1.46-1.8-1.54a5.39,5.39,0,0,0-2.91.68c-.63.31-.75.24-.83-.46-.17-1.37.07-1.77,1.39-2.19a8.35,8.35,0,0,1,4.8-.16,3.14,3.14,0,0,1,2.53,3.07,3.34,3.34,0,0,1-1.91,3.39Z" transform="translate(-7.61 -4.41)"/>
  <path class="cls-1" d="M149,8.88V19.62c0,.87-.12,1-1,1-2,.08-2,.08-2-1.9v-11c0-1.07.18-1.25,1.27-1.25,2,0,4,0,5.94,0,.58,0,.78.23.82.76.11,1.54,0,1.66-1.5,1.66Z" transform="translate(-7.61 -4.41)"/>
  <path class="cls-1" d="M137.17,30.09V31c0,3.32,0,6.64,0,10a.76.76,0,0,1-.77.9c-1.87.27-2.18,0-2.18-1.83V28.88c0-1,.19-1.22,1.24-1.22,1.95,0,3.91,0,5.87,0,.62,0,.86.23.89.83.08,1.54,0,1.61-1.49,1.61Z" transform="translate(-7.61 -4.41)"/>
  <path class="cls-1" d="M187.42,34.73c0,2.08,0,4.17,0,6.26,0,.56-.22.82-.75.85s-.92,0-1.38,0c-.61,0-.87-.29-.86-1,0-2.84,0-5.67,0-8.51,0-1.32,0-2.64,0-3.95,0-.53.21-.78.72-.82h.19c2-.14,2.07-.1,2.07,1.9Z" transform="translate(-7.61 -4.41)"/>
  <path class="cls-1" d="M27.63,49.52c-1,2.42-2,4.75-3,7.06a1.72,1.72,0,0,1-2.27,1,1.6,1.6,0,0,1-.81-2.21c.87-2.21,1.8-4.39,2.73-6.56a.78.78,0,0,1,.64-.35C25.85,48.77,26.71,49.15,27.63,49.52Z" transform="translate(-7.61 -4.41)"/>
  <path class="cls-1" d="M15.94,38.08l1.29,3c-.6.27-1.17.53-1.75.77-1.68.7-3.39,1.35-5.05,2.08s-2.18,0-2.56-.82.14-1.8,1.36-2.3l5.55-2.25C15.14,38.43,15.5,38.27,15.94,38.08Z" transform="translate(-7.61 -4.41)"/>
  <path class="cls-1" d="M37.84,49.43l3-1.33c.2.47.38.88.55,1.3l2.36,5.94a1.63,1.63,0,0,1-.26,1.73A1.47,1.47,0,0,1,41.07,57a7.82,7.82,0,0,1-.6-1.1C39.6,53.75,38.74,51.64,37.84,49.43Z" transform="translate(-7.61 -4.41)"/>
  <path class="cls-1" d="M48.06,40.73l1.18-2.87c.09,0,.14-.06.17,0,2.36,1,4.73,2,7.08,3a1.49,1.49,0,0,1,1,1.74A1.59,1.59,0,0,1,56,43.91a1.39,1.39,0,0,1-.7-.09c-2.35-1-4.69-2-7-3A1.07,1.07,0,0,1,48.06,40.73Z" transform="translate(-7.61 -4.41)"/>
  <path class="cls-1" d="M17.07,24.8c-.37.9-.71,1.71-1,2.52a.49.49,0,0,1-.74.31c-2.26-1-4.53-1.92-6.77-2.92a1.56,1.56,0,0,1-.79-2.06,1.62,1.62,0,0,1,2.08-.91c1.19.45,2.35,1,3.52,1.47Z" transform="translate(-7.61 -4.41)"/>
  <path class="cls-1" d="M27.26,16.15l-3,1.3c-.1-.21-.2-.37-.27-.55L21.4,10.41a1.64,1.64,0,0,1,.76-2.33,1.7,1.7,0,0,1,2.27,1.09C25.37,11.46,26.29,13.76,27.26,16.15Z" transform="translate(-7.61 -4.41)"/>
  <path class="cls-1" d="M49.19,27.47l-1.28-2.93a1.53,1.53,0,0,1,.27-.21c2.31-.94,4.62-1.9,7-2.81a1.57,1.57,0,0,1,2.18,1.8,1.86,1.86,0,0,1-.7,1,7.8,7.8,0,0,1-1.54.74Z" transform="translate(-7.61 -4.41)"/>
  <path class="cls-1" d="M43.7,9.59c-.05.15-.1.41-.2.65-.91,2.16-1.83,4.32-2.72,6.49-.19.46-.4.54-.84.32a18.35,18.35,0,0,0-1.9-.76c-.39-.15-.51-.37-.34-.76.95-2.24,1.88-4.49,2.85-6.72a1.46,1.46,0,0,1,1.84-.88A1.7,1.7,0,0,1,43.7,9.59Z" transform="translate(-7.61 -4.41)"/>
  <path class="cls-1" d="M135.75,59l2.14-4.91c.07-.16.1-.4.22-.46a1.88,1.88,0,0,1,.88-.27c.1,0,.29.38.29.59q0,2.81,0,5.61c0,.19-.21.38-.33.57-.11-.19-.32-.38-.33-.57,0-1.73,0-3.46-.13-5.22-.57,1.32-1.15,2.64-1.72,4-.21.48-.4,1-.64,1.44-.08.17-.3.38-.45.37s-.36-.22-.43-.39c-.65-1.54-1.28-3.08-1.92-4.63a1.42,1.42,0,0,0-.38-.58V56.3c0,1.08,0,2.16,0,3.24,0,.18-.24.37-.37.55-.12-.19-.35-.37-.35-.56,0-1.85,0-3.7,0-5.54a.89.89,0,0,1,.39-.69.75.75,0,0,1,1,.51q.87,2.13,1.76,4.26C135.46,58.33,135.58,58.58,135.75,59Z" transform="translate(-7.61 -4.41)"/>
  <path class="cls-1" d="M123.7,60.11h-5.27c0,.45,0,.88,0,1.3,0,.15-.19.28-.29.42-.1-.14-.29-.27-.3-.41,0-.52,0-1.05,0-1.58,0-.13.09-.37.16-.37.84-.09,1-.79,1.11-1.37.28-1.12.47-2.27.65-3.42.26-1.67,0-1.39,1.58-1.42.49,0,1,0,1.45,0s.65.2.65.67c0,1.56,0,3.12,0,4.68v.71c.92.26.92.26.92,1.21a3,3,0,0,1,0,.73,2.85,2.85,0,0,1-.33.58,1.79,1.79,0,0,1-.28-.55A9,9,0,0,1,123.7,60.11Zm-3-6.21-1.13,5.47h3.1V53.9h-2Z" transform="translate(-7.61 -4.41)"/>
  <path class="cls-1" d="M126.35,58.41l2.86-4.33a5.9,5.9,0,0,1,.5-.7.48.48,0,0,1,.41-.11.45.45,0,0,1,.19.35c0,2,0,4.05,0,6.07,0,.13-.24.27-.37.4-.1-.16-.29-.32-.29-.48,0-1.38,0-2.77,0-4.15v-.63l-.12,0-2.89,4.36a5.15,5.15,0,0,1-.53.76.59.59,0,0,1-.46.13c-.09,0-.19-.23-.19-.36,0-2,0-4,0-6,0-.16.23-.3.34-.46.14.16.38.32.38.48,0,1.32,0,2.64,0,4v.7Z" transform="translate(-7.61 -4.41)"/>
  <path class="cls-1" d="M104.14,56.67c0-.36.08-.76.15-1.14a2.74,2.74,0,0,1,3.09-2.34A2.56,2.56,0,0,1,110,55.78a7.75,7.75,0,0,1-.11,2.15c-.34,1.58-1.37,2.26-3.1,2.2a2.49,2.49,0,0,1-2.52-2.38C104.2,57.4,104.18,57.05,104.14,56.67Zm.77-.09c0,.46,0,.74.09,1a2.1,2.1,0,0,0,4.17.15,7.44,7.44,0,0,0,0-2.21,1.81,1.81,0,0,0-1.86-1.69,2,2,0,0,0-2.21,1.54A10.55,10.55,0,0,0,104.91,56.58Z" transform="translate(-7.61 -4.41)"/>
  <path class="cls-1" d="M146.72,56.58c-.06.39-.09.79-.16,1.18a2.75,2.75,0,0,1-3.24,2.36,2.51,2.51,0,0,1-2.46-2.65,7.66,7.66,0,0,1,.17-2.34,2.65,2.65,0,0,1,3-1.94,2.49,2.49,0,0,1,2.54,2.21C146.63,55.79,146.66,56.18,146.72,56.58Zm-.78.22a10.82,10.82,0,0,0-.11-1.19,2.11,2.11,0,0,0-4.15,0,7.85,7.85,0,0,0,0,2.27,1.85,1.85,0,0,0,1.9,1.67,2,2,0,0,0,2.11-1.43A9.65,9.65,0,0,0,145.94,56.8Z" transform="translate(-7.61 -4.41)"/>
  <path class="cls-1" d="M148.88,56.12h3.24c0-.77,0-1.51,0-2.25,0-.22.2-.58.36-.61.42-.06.37.32.37.6,0,1.89,0,3.77,0,5.66,0,.19-.23.38-.35.57-.13-.18-.36-.36-.37-.55,0-.87,0-1.74,0-2.66h-3.24V59.1a1.93,1.93,0,0,1,0,.59c0,.15-.2.27-.31.4-.13-.13-.36-.27-.37-.41,0-.79,0-1.58,0-2.37,0-1.05,0-2.11,0-3.16,0-.32-.25-.88.33-.89s.34.6.37.93C148.91,54.82,148.88,55.45,148.88,56.12Z" transform="translate(-7.61 -4.41)"/>
  <path class="cls-1" d="M159.6,60c-.47.23-.7.07-.87-.37-.56-1.48-.57-1.47-2.17-1.47-1.23,0-1.23,0-1.66,1.26-.14.41-.23.83-.89.61a3.58,3.58,0,0,1,.08-.49c.71-1.93,1.41-3.86,2.15-5.79a.91.91,0,0,1,.57-.48c.16,0,.45.25.52.44.76,2,1.48,4,2.21,6A1.7,1.7,0,0,1,159.6,60ZM158,57.55l-1.24-3.44-1.2,3.44Z" transform="translate(-7.61 -4.41)"/>
  <path class="cls-1" d="M45.7,44c.85.83,1.64,1.56,2.39,2.33a.93.93,0,0,1,.08,1.45,1.11,1.11,0,0,1-1.55.15c-.72-.64-1.39-1.33-2.06-2a.61.61,0,0,1,0-.56C44.91,44.9,45.32,44.47,45.7,44Z" transform="translate(-7.61 -4.41)"/>
  <path class="cls-1" d="M19.26,21.39c-.81-.8-1.62-1.56-2.38-2.38A.88.88,0,0,1,17,17.72a1,1,0,0,1,1.53-.12c.79.76,1.51,1.58,2.29,2.42Z" transform="translate(-7.61 -4.41)"/>
  <path class="cls-1" d="M15.19,34.16c-1.19,0-2.31,0-3.41,0-.61,0-.84-.53-.85-1.08a.88.88,0,0,1,.83-1c1-.06,2-.05,3,0,.14,0,.37.25.38.41C15.22,33,15.19,33.57,15.19,34.16Z" transform="translate(-7.61 -4.41)"/>
  <path class="cls-1" d="M34,50.23c0,1.17,0,2.24,0,3.31a.91.91,0,0,1-.95.91c-.41-.08-1-.51-1.08-.87a17.53,17.53,0,0,1-.12-3.08c0-.09.19-.25.29-.26C32.69,50.22,33.3,50.23,34,50.23Z" transform="translate(-7.61 -4.41)"/>
  <path class="cls-1" d="M33.31,13.52V14c0,1.43,0,1.46-1.51,1.42-.39,0-.65-.16-.65-.56a26.81,26.81,0,0,1,0-2.69,1.2,1.2,0,0,1,1.19-1.1c.59.06.94.51,1,1.29C33.32,12.73,33.31,13.12,33.31,13.52Z" transform="translate(-7.61 -4.41)"/>
  <path class="cls-1" d="M45.49,21.08l-1.66-1.65c.86-.8,1.67-1.63,2.56-2.36.46-.38,1-.14,1.34.29a.87.87,0,0,1,0,1.25C47,19.43,46.26,20.23,45.49,21.08Z" transform="translate(-7.61 -4.41)"/>
  <path class="cls-1" d="M50,33.56A9,9,0,0,1,50,32a.84.84,0,0,1,.58-.55,17.63,17.63,0,0,1,2.62,0c.74.07.95.42.89,1.24s-.25.85-1,.86C52,33.57,51,33.56,50,33.56Z" transform="translate(-7.61 -4.41)"/>
  <path class="cls-1" d="M17.2,47.49c0-.09,0-.33.15-.46a17,17,0,0,1,2.07-2.09c.53-.41.93.21,1.3.57s.48.64.14,1a21.09,21.09,0,0,1-2.23,2C18.08,48.9,17.22,48.31,17.2,47.49Z" transform="translate(-7.61 -4.41)"/>
  <path class="cls-1" d="M113.19,53.9v5.29a1.5,1.5,0,0,1,0,.52,1.48,1.48,0,0,1-.33.38c-.12-.12-.32-.24-.34-.38,0-.43,0-.87,0-1.31,0-1.47,0-2.94,0-4.5-.56,0-1.08,0-1.6,0a1.79,1.79,0,0,1-.55-.28c.17-.12.34-.33.51-.33,1.34,0,2.68,0,4,0,.17,0,.33.19.5.3-.18.11-.34.3-.52.31C114.34,53.93,113.81,53.9,113.19,53.9Z" transform="translate(-7.61 -4.41)"/>
</svg>
