<svg xmlns="http://www.w3.org/2000/svg" viewBox="0 0 347.25 50.44"><defs><style>.cls-1{fill:#fff;}.cls-2{fill:#f96d15;}.cls-3{fill:#f97122;}.cls-4{fill:#f79634;}.cls-5{fill:#f66f1c;}.cls-6{fill:#f87a30;}.cls-7{fill:#fb7111;}.cls-8{fill:#ea7418;}.cls-9{fill:#f6803f;}.cls-10{fill:#f47b1f;}.cls-11{fill:#f89d71;}.cls-12{fill:#f97834;}.cls-13{fill:#f66d0a;}.cls-14{fill:#dd671d;}.cls-15{fill:#fb921c;}.cls-16{fill:#f6781a;}.cls-17{fill:#f9852e;}.cls-18{fill:#f98337;}.cls-19{fill:#f18016;}.cls-20{fill:#f96904;}.cls-21{fill:#f97e24;}.cls-22{fill:#f76912;}.cls-23{fill:#fa851a;}.cls-24{fill:#f98118;}.cls-25{fill:#f57210;}.cls-26{fill:#f86b09;}.cls-27{fill:#fb7113;}.cls-28{fill:#fb6f0b;}.cls-29{fill:#f37005;}.cls-30{fill:#f96a18;}.cls-31{fill:#fb8a0c;}.cls-32{fill:#f8850f;}.cls-33{fill:#fc7906;}.cls-34{fill:#fc6c12;}.cls-35{fill:#f87111;}.cls-36{fill:#f56711;}.cls-37{fill:#fc6c0c;}.cls-38{fill:#f86d1a;}.cls-39{fill:#f86b13;}.cls-40{fill:#fd671a;}.cls-41{fill:#f96f16;}.cls-42{fill:#f77614;}.cls-43{fill:#fd8713;}.cls-44{fill:#f76e14;}.cls-45{fill:#fa7f11;}.cls-46{fill:#ef710f;}.cls-47{fill:#f36112;}.cls-48{fill:#f77029;}.cls-49{fill:#f98207;}.cls-50{fill:#f77b07;}.cls-51{fill:#f8820d;}.cls-52{fill:#ee7806;}.cls-53{fill:#fb8e17;}.cls-54{fill:#fb9217;}.cls-55{fill:#fb8e1a;}.cls-56{fill:#fc931f;}.cls-57{fill:#fb8e14;}.cls-58{fill:#fc951f;}.cls-59{fill:#f99524;}.cls-60{fill:#fa8716;}.cls-61{fill:#fc982b;}.cls-62{fill:#f6930f;}.cls-63{fill:#f87b14;}.cls-64{fill:#fc8d13;}.cls-65{fill:#fc7a16;}.cls-66{fill:#fc8811;}.cls-67{fill:#f47414;}.cls-68{fill:#fb840c;}.cls-69{fill:#f97808;}.cls-70{fill:#f97712;}.cls-71{fill:#fb8013;}.cls-72{fill:#f0830c;}.cls-73{fill:#fc8113;}.cls-74{fill:#ee7318;}.cls-75{fill:#fc8a0f;}.cls-76{fill:#fc8815;}.cls-77{fill:#fb8409;}.cls-78{fill:#fb890d;}.cls-79{fill:#fb7216;}.cls-80{fill:#f96e1e;}.cls-81{fill:#f8751e;}.cls-82{fill:#fb7d16;}.cls-83{fill:#f36b08;}.cls-84{fill:#f6740f;}.cls-85{fill:#fb841b;}.cls-86{fill:#f47f18;}.cls-87{fill:#f88916;}.cls-88{fill:#fc750e;}.cls-89{fill:#fc7e0c;}.cls-90{fill:#fa8708;}.cls-91{fill:#fa840a;}.cls-92{fill:#fb7b0c;}.cls-93{fill:#fc9617;}.cls-94{fill:#fc8a17;}.cls-95{fill:#fc901b;}.cls-96{fill:#fc8920;}.cls-97{fill:#fd8b21;}.cls-98{fill:#fc9314;}.cls-99{fill:#fa9012;}.cls-100{fill:#fb8b17;}.cls-101{fill:#fb880d;}.cls-102{fill:#fc831f;}.cls-103{fill:#fd8414;}.cls-104{fill:#fa8c0b;}.cls-105{fill:#fa910f;}.cls-106{fill:#fb8b10;}.cls-107{fill:#fb8a13;}.cls-108{fill:#fc8a16;}.cls-109{fill:#fd8310;}.cls-110{fill:#fb8b14;}.cls-111{fill:#fa8d1d;}.cls-112{fill:#fd8a19;}.cls-113{fill:#fc8a11;}.cls-114{fill:#f7860c;}.cls-115{fill:#fa890a;}.cls-116{fill:#fa8c08;}.cls-117{fill:#fc9812;}.cls-118{fill:#fc9a16;}.cls-119{fill:#fd8c13;}.cls-120{fill:#fa7e0f;}.cls-121{fill:#fc8120;}.cls-122{fill:#fc7818;}.cls-123{fill:#fd9523;}.cls-124{fill:#fa8e15;}.cls-125{fill:#fb8e0e;}.cls-126{fill:#f98e0e;}.cls-127{fill:#fc7219;}.cls-128{fill:#f78609;}.cls-129{fill:#fc8f16;}.cls-130{fill:#f46f07;}.cls-131{fill:#f1680e;}.cls-132{fill:#fc711e;}.cls-133{fill:#f76104;}.cls-134{fill:#ee6706;}.cls-135{fill:#f17908;}.cls-136{fill:#fb930b;}.cls-137{fill:#fc970e;}.cls-138{fill:#fb8d12;}.cls-139{fill:#fb870b;}.cls-140{fill:#fc910f;}.cls-141{fill:#fe911c;}.cls-142{fill:#fa8c0c;}.cls-143{fill:#f78b07;}.cls-144{fill:#fb9b10;}.cls-145{fill:#fb9e12;}.cls-146{fill:#fb9b12;}.cls-147{fill:#fe9e1c;}.cls-148{fill:#f89f16;}.cls-149{fill:#fb930a;}.cls-150{fill:#f96e14;}.cls-151{fill:#e45c02;}.cls-152{fill:#f8730e;}.cls-153{fill:#fd7917;}.cls-154{fill:#f56813;}.cls-155{fill:#f68023;}.cls-156{fill:#d33208;}.cls-157{fill:#fb742f;}.cls-158{fill:#f98017;}.cls-159{fill:#fa940f;}.cls-160{fill:#fb9212;}.cls-161{fill:#f69803;}.cls-162{fill:#eb5702;}.cls-163{fill:#fc780a;}.cls-164{fill:#ec8007;}.cls-165{fill:#fe7624;}.cls-166{fill:#f9891f;}.cls-167{fill:#f69e12;}.cls-168{fill:#e15801;}.cls-169{fill:#eb5001;}.cls-170{fill:#f9911a;}.cls-171{fill:#f89004;}.cls-172{fill:#f6970b;}.cls-173{fill:#fb9317;}.cls-174{fill:#fb970f;}.cls-175{fill:#f99a10;}.cls-176{fill:#d42a0f;}.cls-177{fill:#fb8a06;}.cls-178{fill:#fb8208;}.cls-179{fill:#f09102;}.cls-180{fill:#f6930c;}.cls-181{fill:#fba012;}.cls-182{fill:#fc9f10;}.cls-183{fill:#fa9c0c;}.cls-184{fill:#fc9811;}.cls-185{fill:#f4a20d;}.cls-186{fill:#ea5a05;}.cls-187{fill:#e85a08;}.cls-188{fill:#d61715;}.cls-189{fill:#d22507;}.cls-190{fill:#fb9a10;}.cls-191{fill:#fd9a19;}.cls-192{fill:#fa761c;}.cls-193{fill:#de3c0f;}.cls-194{fill:#fc9d22;}.cls-195{fill:#f98513;}.cls-196{fill:#fa9f13;}.cls-197{fill:#d94605;}.cls-198{fill:#ca2701;}.cls-199{fill:#db3414;}.cls-200{fill:#f2a005;}.cls-201{fill:#f89e0d;}.cls-202{fill:#fa811f;}.cls-203{fill:#f49c08;}.cls-204{fill:#fb9b0f;}.cls-205{fill:#fa9e0d;}.cls-206{fill:#df2120;}.cls-207{fill:#dd1725;}.cls-208{fill:#fa990b;}.cls-209{fill:#fb920d;}.cls-210{fill:#f69a0a;}.cls-211{fill:#f4a30a;}.cls-212{fill:#fb9d1a;}.cls-213{fill:#f6a20d;}.cls-214{fill:#fb8720;}.cls-215{fill:#fe9c22;}.cls-216{fill:#d83314;}.cls-217{fill:#e12f15;}.cls-218{fill:#d62c05;}.cls-219{fill:#e45c0f;}.cls-220{fill:#e73321;}.cls-221{fill:#d22c0a;}.cls-222{fill:#d71019;}.cls-223{fill:#cb1f03;}.cls-224{fill:#c51004;}.cls-225{fill:#db4608;}.cls-226{fill:#fca61d;}.cls-227{fill:#f1a50a;}.cls-228{fill:#f1a805;}.cls-229{fill:#f08825;}.cls-230{fill:#f9921d;}.cls-231{fill:#d61e15;}.cls-232{fill:#cc1e07;}.cls-233{fill:#cf1a05;}.cls-234{fill:#db171a;}.cls-235{fill:#f49902;}.cls-236{fill:#e63324;}.cls-237{fill:#c92602;}.cls-238{fill:#fa7326;}.cls-239{fill:#edb990;}.cls-240{fill:#fc7b2d;}.cls-241{fill:#f68237;}.cls-242{fill:#fb7e1f;}.cls-243{fill:#f67d2f;}.cls-244{fill:#e48227;}.cls-245{fill:#f2c4ac;}.cls-246{fill:#f9772f;}.cls-247{fill:#f6c3a7;}.cls-248{fill:#efa17c;}.cls-249{fill:#eb6310;}.cls-250{fill:#f46711;}.cls-251{fill:#f96920;}.cls-252{fill:#f76717;}.cls-253{fill:#f98a2e;}.cls-254{fill:#f89222;}.cls-255{fill:#fc7d17;}.cls-256{fill:#fc7313;}.cls-257{fill:#f87c1a;}.cls-258{fill:#f77610;}.cls-259{fill:#f96d12;}.cls-260{fill:#ee6712;}.cls-261{fill:#f37017;}.cls-262{fill:#f86e18;}.cls-263{fill:#f27428;}.cls-264{fill:#eb742c;}.cls-265{fill:#fc5f07;}.cls-266{fill:#eb6311;}.cls-267{fill:#f36e22;}.cls-268{fill:#fb6a16;}.cls-269{fill:#fd7b21;}.cls-270{fill:#fd7806;}.cls-271{fill:#fd7712;}.cls-272{fill:#f28417;}.cls-273{fill:#fa7821;}.cls-274{fill:#f66618;}.cls-275{fill:#f26e09;}.cls-276{fill:#f48520;}.cls-277{fill:#f57216;}.cls-278{fill:#f36c11;}.cls-279{fill:#f7782f;}.cls-280{fill:#f76f0d;}.cls-281{fill:#ee6309;}.cls-282{fill:#f56b11;}.cls-283{fill:#ee5d09;}.cls-284{fill:#fe8e14;}.cls-285{fill:#fc871c;}.cls-286{fill:#f98915;}.cls-287{fill:#fd7c19;}.cls-288{fill:#f8760e;}.cls-289{fill:#f5711c;}.cls-290{fill:#f97414;}.cls-291{fill:#fb670c;}.cls-292{fill:#f77217;}.cls-293{fill:#f36c0b;}.cls-294{fill:#f58b1a;}.cls-295{fill:#fa8125;}.cls-296{fill:#fc8c0e;}.cls-297{fill:#f58a06;}.cls-298{fill:#f97207;}.cls-299{fill:#fc7514;}.cls-300{fill:#eb6f0f;}.cls-301{fill:#fd9626;}.cls-302{fill:#fc8a1d;}.cls-303{fill:#f77406;}.cls-304{fill:#fa8e18;}</style></defs><g id="Слой_1" data-name="Слой 1"><path class="cls-1" d="M56.66,24.79V1.28a.85.85,0,0,1,.83-.87.81.81,0,0,1,.5.14.56.56,0,0,1,.19.38,2.62,2.62,0,0,1,0,.56V48.6a.85.85,0,0,1-.85.81c-.57,0-.65-.38-.65-.86V32.23Z" transform="translate(-13.99 -0.41)"/><path class="cls-1" d="M171.18,13.88a34.3,34.3,0,0,1,.45-3.77c1.16-5.27,5-8.26,10.8-8.13a16,16,0,0,1,2.84.26A8,8,0,0,1,192,8.05a17.15,17.15,0,0,1,0,10.83,9,9,0,0,1-8,6.43,16.92,16.92,0,0,1-4.82,0,8.44,8.44,0,0,1-7.6-7.76C171.37,16.33,171.32,15.17,171.18,13.88Zm4.9-.56c.16,1.61.19,2.59.39,3.63a4.8,4.8,0,0,0,2.81,4.1c3.1,1.21,7,.58,8.13-3.86a15.34,15.34,0,0,0,0-7.13,4.91,4.91,0,0,0-4.66-4.19,5.19,5.19,0,0,0-5.87,3.47,28.56,28.56,0,0,0-.78,4Z" transform="translate(-13.99 -0.41)"/><path class="cls-1" d="M120.1,2a10.22,10.22,0,0,1,7.7,2.69,9.65,9.65,0,0,1,2.52,5.47,17.62,17.62,0,0,1-.68,9.08,9,9,0,0,1-7.84,6.09,19.58,19.58,0,0,1-5.35-.16,7.84,7.84,0,0,1-6.67-5.83,17.68,17.68,0,0,1,0-10.14C111.05,4.42,114.77,1.91,120.1,2Zm5.7,11.68h-.17a11.08,11.08,0,0,0-.12-2c-.27-2.21-.85-4.26-3.21-5.28A5.68,5.68,0,0,0,114.72,9a5.22,5.22,0,0,0-.45,1.33,15.77,15.77,0,0,0,0,7.23,4.81,4.81,0,0,0,4.45,4c3.13.21,5.14-.81,6-3.35a34,34,0,0,0,1.06-4.57Z" transform="translate(-13.99 -0.41)"/><path class="cls-1" d="M162.81,15.38h-8.36v8.48a1,1,0,0,1-.81,1.24l-.26,0H153c-3.22.17-3.22.12-3.22-3V3.86c0-1.11.41-1.61,1.43-1.61h.53c2.66-.13,2.8,0,2.8,2.65v5.51c0,.71.24.9.92.9H162c.72,0,.9-.25.88-.93V3.6c0-.79.28-1.19,1.06-1.25.24,0,.48-.08.73-.1,2.73-.18,3,0,3,2.75V23.51c0,1.38-.21,1.61-1.6,1.61-3.22.14-3.22.14-3.22-3Z" transform="translate(-13.99 -0.41)"/><path class="cls-1" d="M81.58,6.33H73.25V23.62c0,1.3-.16,1.46-1.43,1.53-3.22.16-3.22.16-3.22-3.1V4.36c0-1.61.31-2,2-2H84.41c1.51,0,1.9.35,1.9,1.86V23.85a1.11,1.11,0,0,1-.92,1.27,1,1,0,0,1-.25,0H85c-3.29.32-3.47.18-3.47-3.08V6.33Z" transform="translate(-13.99 -0.41)"/><path class="cls-1" d="M95.8,17.23V23.8c0,.93-.4,1.27-1.23,1.33h-.21c-3.21.23-3.33.13-3.33-3.07V4.84c0-2.19.36-2.56,2.51-2.52a68,68,0,0,1,7.28.27,6.14,6.14,0,0,1,5.81,5.75,7.18,7.18,0,0,1-4.29,8,22.25,22.25,0,0,1-4.43.86A16.47,16.47,0,0,1,95.8,17.23Zm0-3.65c1.9,0,3.89.37,5.15-1.46a4,4,0,0,0,.17-4.6c-1.28-2-3.37-1.38-5.32-1.46Z" transform="translate(-13.99 -0.41)"/><path class="cls-1" d="M205.58,13.07a5.44,5.44,0,0,1,4.16,4.48,6.09,6.09,0,0,1-3.42,6.75,12.32,12.32,0,0,1-10.07.3,3.21,3.21,0,0,1-1.31-4c.13-.21.84-.26,1.14-.1a8.57,8.57,0,0,0,4.82,1.09c2.21-.16,3.51-1.43,3.43-3.35a2.85,2.85,0,0,0-2.59-2.78,21.12,21.12,0,0,0-3.89-.23c-1,0-1.46-.34-1.4-1.33v-1c0-1,.41-1.36,1.42-1.36a19,19,0,0,0,3.84-.27,2.79,2.79,0,0,0,2.38-3c-.13-1.61-1.1-2.35-2.9-2.48a8.65,8.65,0,0,0-4.67,1.1c-1,.49-1.21.38-1.34-.74-.27-2.2.12-2.85,2.24-3.52a13.41,13.41,0,0,1,7.71-.26,5.05,5.05,0,0,1,4.07,4.93,5.37,5.37,0,0,1-3.07,5.45Z" transform="translate(-13.99 -0.41)"/><path class="cls-1" d="M139,6.25V23.51c0,1.4-.19,1.61-1.6,1.61-3.22.12-3.22.12-3.22-3.06V4.39c0-1.72.29-2,2-2h9.55c.93,0,1.25.37,1.32,1.22.17,2.48,0,2.67-2.41,2.67Z" transform="translate(-13.99 -0.41)"/><path class="cls-1" d="M331.64,21h.66c2.25-.1,2.14.17,2.14,2.18v6.43c0,.87-.34,1.22-1.16,1.25a2.94,2.94,0,0,1-.42,0c-2.42.16-2.57,0-2.57-2.39V25.65c0-.52-.13-.77-.72-.77H315.7a1.68,1.68,0,0,0-.38.12v4.63c0,.82-.29,1.17-1.08,1.19H314c-2.54.29-2.86,0-2.86-2.51v-6c0-.88.26-1.28,1.19-1.31a1.75,1.75,0,0,0,1.16-.68,19.59,19.59,0,0,0,2.57-7.87c.47-2.9.82-5.8,1.24-8.7.19-1.35.49-1.6,1.88-1.6H329.7c1.61,0,1.89.37,1.89,2V21Zm-13.46,0h8.64V6h-4.18c-.72,0-.94.21-1,.93-.67,4.81-1,9.68-3.47,14.08Z" transform="translate(-13.99 -0.41)"/><path class="cls-1" d="M260.94,25.45c-1.12-.14-2.26-.19-3.35-.43a8,8,0,0,1-6.43-6.14,17.7,17.7,0,0,1,.1-10.12A9.3,9.3,0,0,1,259.92,2a22.33,22.33,0,0,1,4.62.21,8,8,0,0,1,6.86,6.25,17.45,17.45,0,0,1,.13,9.21C270.23,22.74,266.57,25.41,260.94,25.45Zm.47-19.66a5.21,5.21,0,0,0-5.58,4.32,15.36,15.36,0,0,0,.1,7.65A4.69,4.69,0,0,0,258.49,21a5.72,5.72,0,0,0,7.69-2.51,5.59,5.59,0,0,0,.5-1.44,15.57,15.57,0,0,0,0-7.12A4.91,4.91,0,0,0,261.41,5.79Z" transform="translate(-13.99 -0.41)"/><path class="cls-1" d="M289,13.37a39.72,39.72,0,0,1,.91-4.82A9.1,9.1,0,0,1,298.06,2a19.85,19.85,0,0,1,4.93.14A8.2,8.2,0,0,1,310.14,9a17.92,17.92,0,0,1-.14,9.11,9.4,9.4,0,0,1-8.79,7.21,18.83,18.83,0,0,1-4.11-.13,8.51,8.51,0,0,1-7.7-7.79C289.22,16.22,289.16,15.06,289,13.37Zm16.9.26h-.16c-.09-1-.13-2-.29-2.94-.5-3.06-2.28-4.82-5-4.82-3.39-.08-5.47,1.43-6.12,4.59a15.8,15.8,0,0,0,.14,7.14,4.82,4.82,0,0,0,4.63,3.93,5.13,5.13,0,0,0,5.72-3.21,36.15,36.15,0,0,0,1.07-4.69Z" transform="translate(-13.99 -0.41)"/><path class="cls-1" d="M242.05,6.29h-8.34v17.4c0,1.09-.43,1.41-1.38,1.51-3,.29-3.31,0-3.31-3V4.31c0-1.74.3-2.06,2-2.06h13.84c1.6,0,1.94.39,1.94,2V23.7c0,.84-.3,1.26-1.12,1.34h-.1c-3,.45-3.52,0-3.52-2.94V6.29Z" transform="translate(-13.99 -0.41)"/><path class="cls-1" d="M342.2,10.56c1.91.1,3.65.08,5.35.29,3.94.46,6.25,2.83,6.31,6.28,0,4.15-2.05,7-6.05,7.5a72.43,72.43,0,0,1-9.08.26c-.4,0-.85-.66-1.17-1.09s-.08-.61-.08-.93V3.71c0-1.25.19-1.44,1.46-1.52,3.21-.23,3.21-.16,3.21,3Zm0,10.68c1.35,0,2.59.08,3.81,0a3.1,3.1,0,0,0,2.91-2.86c.19-1.88-.5-3.35-2.06-3.71a33.16,33.16,0,0,0-4.66-.48Z" transform="translate(-13.99 -0.41)"/><path class="cls-1" d="M280.5,6.16V23.69a1.22,1.22,0,0,1-1,1.42.74.74,0,0,1-.26,0c-3,.44-3.5,0-3.5-2.94v-18c0-1.6.3-2,2-2h9.43c1,0,1.38.37,1.43,1.34.13,2.47,0,2.58-2.39,2.58Z" transform="translate(-13.99 -0.41)"/><path class="cls-1" d="M361.24,13.61V23.67c0,.9-.35,1.32-1.21,1.37s-1.47,0-2.21,0c-1,0-1.4-.47-1.38-1.61v-20c0-.85.33-1.25,1.15-1.32h.31c3.21-.22,3.32-.16,3.32,3.05Z" transform="translate(-13.99 -0.41)"/><path class="cls-1" d="M134.67,44.84l4.53-10.4c.15-.34.21-.85.47-1a4,4,0,0,1,1.86-.58c.21,0,.61.81.61,1.25V46c0,.41-.44.81-.69,1.21-.24-.4-.68-.8-.7-1.21,0-3.66,0-7.32-.28-11.05-1.21,2.79-2.43,5.59-3.64,8.47-.45,1-.85,2.12-1.36,3.05-.17.36-.63.8-.95.78a1.43,1.43,0,0,1-.91-.82c-1.38-3.26-2.71-6.53-4.07-9.81a3,3,0,0,0-.8-1.23V46c0,.38-.51.78-.78,1.17-.26-.41-.75-.79-.75-1.19V34.23a1.91,1.91,0,0,1,.83-1.46,1.59,1.59,0,0,1,2.06.9s0,.12.06.18q1.84,4.5,3.73,9C134.05,43.42,134.31,44,134.67,44.84Z" transform="translate(-13.99 -0.41)"/><path class="cls-1" d="M109.15,47.19H98v2.75c0,.32-.4.59-.61.89-.21-.3-.62-.57-.64-.87V46.62c0-.28.19-.79.34-.79,1.78-.19,2.12-1.67,2.35-2.9.6-2.37,1-4.81,1.38-7.24.55-3.54,0-2.94,3.34-3h3.07c1,0,1.38.43,1.38,1.42V45.51c2,.56,2,.56,2,2.57a6.61,6.61,0,0,1,0,1.54,5.75,5.75,0,0,1-.7,1.23,3.85,3.85,0,0,1-.59-1.16A19,19,0,0,1,109.15,47.19ZM102.8,34l-2.39,11.58H107V34H102.8Z" transform="translate(-13.99 -0.41)"/><path class="cls-1" d="M114.76,43.59l6.06-9.17a12,12,0,0,1,1.06-1.48,1,1,0,0,1,.87-.24,1,1,0,0,1,.4.74V46.3c0,.27-.51.57-.78.85-.22-.34-.62-.68-.62-1V36h-.25l-6.12,9.23a11.28,11.28,0,0,1-1.12,1.61,1.29,1.29,0,0,1-1,.27c-.19,0-.4-.48-.4-.76V33.66c0-.34.49-.64.72-1,.3.34.8.68.8,1v9.95Z" transform="translate(-13.99 -0.41)"/><path class="cls-1" d="M67.73,39.9a13.76,13.76,0,0,1,.32-2.41,5.81,5.81,0,0,1,6.54-5h0a5.42,5.42,0,0,1,5.55,5.3V38a16.15,16.15,0,0,1-.23,4.55c-.72,3.35-2.9,4.79-6.57,4.66a5.26,5.26,0,0,1-5.33-5C67.86,41.45,67.82,40.71,67.73,39.9Zm1.63-.19a6.54,6.54,0,0,0,.19,2.12,4.45,4.45,0,0,0,8.83.32,15.3,15.3,0,0,0,0-4.68,3.83,3.83,0,0,0-3.94-3.58,4.25,4.25,0,0,0-4.68,3.26A24.75,24.75,0,0,0,69.36,39.71Z" transform="translate(-13.99 -0.41)"/><path class="cls-1" d="M157.9,39.71c-.13.83-.19,1.68-.34,2.5a5.83,5.83,0,0,1-6.5,5.06l-.36-.06a5.32,5.32,0,0,1-5.22-5.41c0-.07,0-.14,0-.2a16.23,16.23,0,0,1,.36-5,5.62,5.62,0,0,1,6.35-4.11,5.27,5.27,0,0,1,5.38,4.68C157.71,38,157.77,38.87,157.9,39.71Zm-1.65.47a21.07,21.07,0,0,0-.24-2.52,4.46,4.46,0,0,0-8.78,0,16.16,16.16,0,0,0,0,4.81,3.91,3.91,0,0,0,4,3.53,4.23,4.23,0,0,0,4.47-3A20.19,20.19,0,0,0,156.25,40.18Z" transform="translate(-13.99 -0.41)"/><path class="cls-1" d="M162.47,38.74h6.86V34c0-.46.43-1.22.77-1.29.89-.12.78.68.78,1.27v12c0,.4-.49.8-.74,1.21-.28-.39-.76-.77-.78-1.17V40.35h-6.87v4.7a3.75,3.75,0,0,1,0,1.25c0,.32-.42.57-.65.85-.28-.28-.76-.58-.79-.87V34.57c0-.68-.53-1.87.7-1.89s.72,1.27.79,2C162.54,36,162.47,37.32,162.47,38.74Z" transform="translate(-13.99 -0.41)"/><path class="cls-1" d="M185.17,47c-1,.49-1.48.15-1.84-.78-1.18-3.13-1.21-3.11-4.59-3.11-2.61,0-2.61,0-3.52,2.67-.3.86-.49,1.75-1.88,1.29a7.27,7.27,0,0,1,.17-1c1.5-4.09,3-8.17,4.55-12.26a1.92,1.92,0,0,1,1.21-1,1.7,1.7,0,0,1,1.1.94c1.61,4.23,3.13,8.47,4.68,12.7A3.29,3.29,0,0,1,185.17,47Zm-3.38-5.18-2.63-7.29-2.54,7.29Z" transform="translate(-13.99 -0.41)"/><path class="cls-1" d="M86.9,34v11.2a3.38,3.38,0,0,1,0,1.1,3.41,3.41,0,0,1-.7.81c-.26-.26-.68-.51-.72-.81V34H82.09a3.82,3.82,0,0,1-1.17-.6c.36-.25.72-.69,1.08-.69h8.47c.36,0,.7.4,1.06.63-.38.23-.72.64-1.1.66C89.33,34.1,88.21,34,86.9,34Z" transform="translate(-13.99 -0.41)"/></g><g id="Слой_3" data-name="Слой 3"><path class="cls-2" d="M15.88,30.54a5.39,5.39,0,0,1-1-.93.2.2,0,0,1,0-.21.17.17,0,0,1,.13,0c.26.3.57.13.87.11.25.19.18.48.23.73a.42.42,0,0,1-.07.27A.16.16,0,0,1,15.88,30.54Z" transform="translate(-13.99 -0.41)"/><path class="cls-3" d="M18.27,33.15l-.19,0a31.71,31.71,0,0,1-2.2-2.57l0,0c.17,0,.26.08.37.17l.72.73c.13.15.2.35.33.51a4.51,4.51,0,0,0,.37.39l.14.15a1.79,1.79,0,0,0,.25.31C18.17,32.88,18.38,32.93,18.27,33.15Z" transform="translate(-13.99 -0.41)"/><path class="cls-4" d="M17.64,15.67a2.54,2.54,0,0,0,1.06-.6,2.77,2.77,0,0,1,.64-.38c.13,0,.25-.06.38,0a.18.18,0,0,1,0,.14c-.1.13-.25.23-.31.4a.31.31,0,0,1-.37.22c-.35-.09-.55.14-.78.3a1.06,1.06,0,0,1-.31,0l-.23,0A.29.29,0,0,1,17.64,15.67Z" transform="translate(-13.99 -0.41)"/><path class="cls-5" d="M29.71,32.61l-2,1.34a.09.09,0,0,1-.13,0c0-.33.25-.45.46-.62a3.82,3.82,0,0,0,.83-.48l.15-.14a.82.82,0,0,1,.57-.26C29.7,32.49,29.76,32.52,29.71,32.61Z" transform="translate(-13.99 -0.41)"/><path class="cls-6" d="M29.71,32.61l-.11-.12a.32.32,0,0,1-.1-.1c-.09-.21.06-.27.21-.33s.59-.28.89-.43a.32.32,0,0,1,.14,0,.09.09,0,0,1,0,.09s0,0,0,0A4.62,4.62,0,0,1,29.71,32.61Z" transform="translate(-13.99 -0.41)"/><path class="cls-7" d="M32.62,29.52a.06.06,0,0,1,0,.07c-.1.1-.14.27-.33.23s-.2-.43-.37-.61-.09-.17,0-.27a.34.34,0,0,1,.29-.05c.15,0,.31.05.45.1a.23.23,0,0,1,.12.1A.44.44,0,0,1,32.62,29.52Z" transform="translate(-13.99 -0.41)"/><path class="cls-8" d="M16.61,16.91a.28.28,0,0,1,.18-.21.14.14,0,0,1,.15,0,.28.28,0,0,1,.06.23.82.82,0,0,1-.24.55c-.31.11-.3.5-.57.64a.24.24,0,0,1-.22,0c-.08-.27.24-.4.22-.64h0A3.06,3.06,0,0,0,16.61,16.91Z" transform="translate(-13.99 -0.41)"/><path class="cls-9" d="M32.29,29.79l.32-.2A4.64,4.64,0,0,1,31.48,31a.11.11,0,0,1-.12,0c-.08-.23.13-.33.21-.49a.5.5,0,0,1,.08-.12C31.9,30.2,32,29.9,32.29,29.79Z" transform="translate(-13.99 -0.41)"/><path class="cls-10" d="M16.93,16.72l-.14,0a3.4,3.4,0,0,1,.85-1l.13,0c0,.17-.09.26-.17.37a3.3,3.3,0,0,0-.41.57C17.12,16.7,17.05,16.77,16.93,16.72Z" transform="translate(-13.99 -0.41)"/><path class="cls-10" d="M16.19,17.43c.09.26-.19.4-.19.64s-.08.26-.17.37-.2.15-.33,0h-.07Z" transform="translate(-13.99 -0.41)"/><path class="cls-11" d="M31.36,30.93l.12,0a2.53,2.53,0,0,1-.74.82l0-.11a.15.15,0,0,1,0-.13c.06-.12.16-.21.23-.33l.07-.11C31.11,31,31.19,30.88,31.36,30.93Z" transform="translate(-13.99 -0.41)"/><path class="cls-12" d="M32.52,18.35l0,.15a.15.15,0,0,1-.13,0,.77.77,0,0,1-.19-.21c-.06-.13-.23-.26-.08-.44l.3.22Z" transform="translate(-13.99 -0.41)"/><path class="cls-10" d="M16.61,16.91c0,.28-.2.41-.42.53C16.24,17.19,16.46,17.08,16.61,16.91Z" transform="translate(-13.99 -0.41)"/><path class="cls-13" d="M15.5,18.48l.29-.1a.36.36,0,0,1,.17.21.65.65,0,0,1,0,.2.8.8,0,0,1-.09.26.57.57,0,0,1-.08.13.8.8,0,0,1-.17.15c-.14.06-.27.06-.35-.1a1.27,1.27,0,0,1,.07-.58Z" transform="translate(-13.99 -0.41)"/><path class="cls-14" d="M15.17,19.41,15,19.3l.33-.65v.66a.09.09,0,0,1,0,.13A.14.14,0,0,1,15.17,19.41Z" transform="translate(-13.99 -0.41)"/><path class="cls-15" d="M28.16,15.26a.07.07,0,0,1,0,.07c.23,0,.45.1.68.13h0a7.88,7.88,0,0,1,.85.57c.19.14.39.27.57.42s.47.18.43.5a.38.38,0,0,1-.48,0c-.37-.37-.84-.22-1.26-.35.11.06.23,0,.34.06a.41.41,0,0,1,.3.27c.05.15,0,.18-.62.51.69-.42,1.42-.16,2.14-.15.11.18.06.49.4.46A1.14,1.14,0,0,1,32,18a1,1,0,0,1,.17.23.57.57,0,0,1,0,.13l-.06.12c-.08.17,0,.34,0,.51a1.08,1.08,0,0,0,0,.4.89.89,0,0,1-1.3.31c-.14-.16-.06-.32,0-.49.15-.61.1-.71-.44-1a1.66,1.66,0,0,1-.34-.25c-.11-.1-.22-.26-.39-.12a.32.32,0,0,0,0,.5.3.3,0,0,1,.1.17.87.87,0,0,1-.79.4.36.36,0,0,1-.44-.38c0-.23-.16-.34-.33-.48a15.43,15.43,0,0,1-1.32-1.36.8.8,0,0,0-.53-.72.66.66,0,0,1-.43-.46.28.28,0,0,1,0-.13c.31,0,.52.21.79.3s.23.18.37.07,0-.28,0-.41a.4.4,0,0,1,0-.15.16.16,0,0,1,.13-.15,1.58,1.58,0,0,0,.68.09C27.88,15.17,28,15.2,28.16,15.26Z" transform="translate(-13.99 -0.41)"/><path class="cls-16" d="M30.74,16.92c-.13-.19-.43-.17-.52-.41s-.12-.25,0-.37a.26.26,0,0,1,.21.14c.42.32,1,.46,1.25.95a.11.11,0,0,1,0,.08c.05.09,0,.13-.07.17a.63.63,0,0,1-.39-.17C31,17.21,30.79,17.19,30.74,16.92Z" transform="translate(-13.99 -0.41)"/><path class="cls-17" d="M29.7,16.09a2,2,0,0,1-.82-.63,3.24,3.24,0,0,1,1.24.63A.31.31,0,0,1,29.7,16.09Z" transform="translate(-13.99 -0.41)"/><path class="cls-18" d="M31.68,17.23c-.35-.4-.89-.56-1.25-.95C30.92,16.51,31.49,16.62,31.68,17.23Z" transform="translate(-13.99 -0.41)"/><path class="cls-19" d="M29.7,16.09h.42l.1.05v.37C30.05,16.37,29.81,16.3,29.7,16.09Z" transform="translate(-13.99 -0.41)"/><path class="cls-20" d="M31.57,17.44l.11-.13c.12.17.3.31.34.53a.16.16,0,0,1-.12.08C31.67,17.84,31.5,17.73,31.57,17.44Z" transform="translate(-13.99 -0.41)"/><path class="cls-17" d="M28.88,15.46a1,1,0,0,1-.68-.12A.82.82,0,0,1,28.88,15.46Z" transform="translate(-13.99 -0.41)"/><path class="cls-21" d="M32.09,18.27,32,18.06a.14.14,0,0,1,0-.2l.05,0h.07c0,.19.15.28.2.43A.13.13,0,0,1,32.09,18.27Z" transform="translate(-13.99 -0.41)"/><path class="cls-22" d="M18.27,33.15c0-.19-.22-.21-.3-.35s.1-.2.21-.26a.34.34,0,0,1,.34.12c.11.19.19.43.5.31a1.52,1.52,0,0,1,.76.49c.12.18.39.25.42.52a.18.18,0,0,1-.08.11.73.73,0,0,0-.38.26l-.12-.07c-.21-.23-.52-.32-.74-.53S18.54,33.28,18.27,33.15Z" transform="translate(-13.99 -0.41)"/><path class="cls-23" d="M33.23,22.32H33c-.16-.15-.24-.38-.49-.43s-.4-.24-.2-.52a1.67,1.67,0,0,0,.47-.52.15.15,0,0,1,.13,0c.17.17.27,0,.38-.09s.17,0,.23.11v.21a.66.66,0,0,1,.11.62A.86.86,0,0,0,33.23,22.32Z" transform="translate(-13.99 -0.41)"/><path class="cls-24" d="M32.09,18.27h.2l.11.2a2.4,2.4,0,0,0,.31.62,3.68,3.68,0,0,1,.63,1.25l-.07,0a.69.69,0,0,1-.46-.48,2.44,2.44,0,0,0-.1-.24.81.81,0,0,0-.18-.26l-.13-.15a1.77,1.77,0,0,1-.25-.47.93.93,0,0,1,0-.13.62.62,0,0,1,0-.27Z" transform="translate(-13.99 -0.41)"/><path class="cls-25" d="M14.85,29.38c-.15-.11-.09-.27-.1-.41.45-.28.49-.56.11-.9-.08-.08-.2-.13-.25-.24a1.72,1.72,0,0,0-.09-1.14.4.4,0,0,1,.24-.18.34.34,0,0,1,.29,0c.07.51,0,1.06.45,1.45a1.35,1.35,0,0,0,.55,1,3.07,3.07,0,0,0,.31.63c-.16.25.22.31.18.52a.61.61,0,0,1-.41.15.17.17,0,0,1-.13-.05c-.18-.24,0-.58-.21-.83a2.13,2.13,0,0,1-.83-.1Z" transform="translate(-13.99 -0.41)"/><path class="cls-26" d="M15,29.38c.3-.18.56,0,.83.1C15.49,29.65,15.17,30,15,29.38Z" transform="translate(-13.99 -0.41)"/><path class="cls-27" d="M16,30.31h.1c.13-.08.23,0,.27.09s.05.29-.17.32l-.3-.22A.21.21,0,0,1,16,30.31Z" transform="translate(-13.99 -0.41)"/><path class="cls-28" d="M17.76,32.5l-.1-.11a1,1,0,0,0-.42-.41c-.16-.14-.2-.35-.31-.52s-.05-.18.05-.24a.67.67,0,0,1,.61.11,2.93,2.93,0,0,0,.23.43.38.38,0,0,1,.06.13C17.94,32.11,18.06,32.35,17.76,32.5Z" transform="translate(-13.99 -0.41)"/><path class="cls-2" d="M17,31.25a.21.21,0,0,0-.1.21,3.37,3.37,0,0,1-.73-.73c.15-.18.2-.34-.1-.41.11-.16.27-.09.42-.11s.12,0,.13.11c-.17.49.38.37.51.61A.27.27,0,0,1,17,31.25Z" transform="translate(-13.99 -0.41)"/><path class="cls-29" d="M17.76,32.5c.17-.21,0-.42,0-.63.27-.12.32.1.4.26a.64.64,0,0,1,0,.47l-.21.2Z" transform="translate(-13.99 -0.41)"/><path class="cls-30" d="M17.24,32c.31,0,.38.17.42.41A1.1,1.1,0,0,1,17.24,32Z" transform="translate(-13.99 -0.41)"/><path class="cls-31" d="M19.73,14.85h.11c.13.13.35.07.48.21s.35.32.23.57-.37.26-.61.25-.38,0-.57,0h-.68c-.16,0-.37,0-.41-.24.2-.26.38-.52.78-.33a.2.2,0,0,0,.3-.22C19.33,14.84,19.55,14.86,19.73,14.85Z" transform="translate(-13.99 -0.41)"/><path class="cls-32" d="M18.28,15.68c.11.15.27.09.42.1a.27.27,0,0,1,.08.19c-.05.18,0,.38-.18.52s-.55.42-.89.11a.52.52,0,0,1,0-.44c.11-.15.3-.25.29-.47Z" transform="translate(-13.99 -0.41)"/><path class="cls-33" d="M18,15.69c.05.1.17.22.15.3s-.23.08-.36.1-.21.07-.21-.1l.22-.3Z" transform="translate(-13.99 -0.41)"/><path class="cls-34" d="M27.62,33.94l-.62.22,0-.07a1.17,1.17,0,0,1,.06-.41,1.45,1.45,0,0,1,.38-.4c.19-.09.46-.07.53-.35a.29.29,0,0,1,.29-.2.35.35,0,0,1,.14.06c.14.29-.11.44-.23.64A1.94,1.94,0,0,0,27.62,33.94Z" transform="translate(-13.99 -0.41)"/><path class="cls-35" d="M28.14,33.43l.21-.62a.48.48,0,0,1,.59-.05.1.1,0,0,1,0,.15C28.78,33.21,28.42,33.25,28.14,33.43Z" transform="translate(-13.99 -0.41)"/><path class="cls-36" d="M29,32.91v-.1c-.14-.1-.32-.19-.26-.42A.9.9,0,0,1,29,32a.34.34,0,0,1,.31,0,.31.31,0,0,1,.13.34,1.16,1.16,0,0,0-.35.44Z" transform="translate(-13.99 -0.41)"/><path class="cls-37" d="M29.08,32.81c0-.23,0-.45.31-.42a.14.14,0,0,1,.21,0v.1Z" transform="translate(-13.99 -0.41)"/><path class="cls-38" d="M31.36,30.93l-.3.23c-.14-.08-.17,0-.16.11a1.08,1.08,0,0,1-.16.3.29.29,0,0,1,0,.09h-.09a2.8,2.8,0,0,1-.47-.67c.19-.74.38-.95.86-.95a3.69,3.69,0,0,0,.64.48Z" transform="translate(-13.99 -0.41)"/><path class="cls-39" d="M30.22,31c.23.15.44.31.41.62a1.75,1.75,0,0,1-.94.51c-.16.06-.12.13-.09.22h-.21l-.1-.31a.2.2,0,0,1,.1-.08c.12,0,.25,0,.35-.15a.92.92,0,0,0,.36-.56.48.48,0,0,1,.07-.2Z" transform="translate(-13.99 -0.41)"/><path class="cls-40" d="M32.29,29.79a1.16,1.16,0,0,1-.62.63.42.42,0,0,1-.13-.32c.05-.36-.16-.84.44-.93C32.27,29.29,32.14,29.61,32.29,29.79Z" transform="translate(-13.99 -0.41)"/><path class="cls-41" d="M32.61,29.07c-.15,0-.31.05-.42-.1a1.9,1.9,0,0,1,0-.4c.3-.28.45,0,.62.17A.36.36,0,0,1,32.61,29.07Z" transform="translate(-13.99 -0.41)"/><path class="cls-41" d="M32,29.17c-.43.21-.28.6-.31.94-.36-.1-.19-.42-.27-.64a1,1,0,0,1,.07-.3.55.55,0,0,1,.14-.17.24.24,0,0,1,.27,0Z" transform="translate(-13.99 -0.41)"/><path class="cls-42" d="M31.88,29l-.21.1c-.08-.09,0-.17,0-.24s.29-.08.43-.16l.06,0c.14.11.14.21,0,.32Z" transform="translate(-13.99 -0.41)"/><path class="cls-43" d="M16.93,16.72l.21-.11c.08,0,.12,0,.15.08a.77.77,0,0,0,.18.48c.09.23.1.42-.21.45s-.32-.19-.37-.39,0-.21,0-.31Z" transform="translate(-13.99 -0.41)"/><path class="cls-10" d="M16.21,18.06c.16-.21.06-.65.51-.62l0,.06a.5.5,0,0,1-.1.31c-.11.12-.17.32-.39.3Z" transform="translate(-13.99 -0.41)"/><path class="cls-44" d="M15.89,18.59a.23.23,0,0,1-.1-.21l.21-.31h.21a.2.2,0,0,1,.05.18.52.52,0,0,1-.1.18C16.08,18.51,16,18.65,15.89,18.59Z" transform="translate(-13.99 -0.41)"/><path class="cls-45" d="M16.93,16.92v.31a.2.2,0,0,1,0,.23.18.18,0,0,1-.23,0h0C16.86,17.29,16.77,17.06,16.93,16.92Z" transform="translate(-13.99 -0.41)"/><path class="cls-42" d="M32.92,27.82a2.11,2.11,0,0,0,.1.83l-.1.11h-.21c-.17-.07-.3-.31-.52-.11h0c-.16,0-.16-.08-.17-.19a.21.21,0,0,1,.13-.17.35.35,0,0,1,.14,0c.38.1.38-.23.5-.44A.15.15,0,0,1,32.92,27.82Z" transform="translate(-13.99 -0.41)"/><path class="cls-46" d="M31.47,29.38c.18.21,0,.52.2.73v.31a.34.34,0,0,1,0,.1c-.31,0-.56-.05-.61-.41a.63.63,0,0,1,0-.52C31.18,29.46,31.27,29.32,31.47,29.38Z" transform="translate(-13.99 -0.41)"/><path class="cls-45" d="M17.24,16.72l-.1-.11c0-.3.22-.45.41-.62a.23.23,0,0,0,.21.1v.52A.85.85,0,0,1,17.24,16.72Z" transform="translate(-13.99 -0.41)"/><path class="cls-47" d="M30.84,31.25c-.15-.14-.13-.3,0-.35s.15.15.18.26a.29.29,0,0,0,0,.09A.13.13,0,0,1,30.84,31.25Z" transform="translate(-13.99 -0.41)"/><path class="cls-48" d="M30.84,31.25H31a.71.71,0,0,1-.3.32Z" transform="translate(-13.99 -0.41)"/><path class="cls-49" d="M16.1,18.38l.1-.11c.27.21.5.09.72-.08.45.07.58.23.47.69a2.22,2.22,0,0,0,0,1c0,.33,0,.66-.48.52-.12,0-.21,0-.19.16.07.43-.18.46-.5.41a.29.29,0,0,0-.27.06c.18.26.49.57-.08.75a1.23,1.23,0,0,1-.48-.22.54.54,0,0,1-.07-.13.42.42,0,0,1,0-.35.93.93,0,0,0,.13-1.15c-.13-.19.14-.46.26-.68l.1-.11c.22.22.18.58.45.86C16.2,19.39,15.85,18.9,16.1,18.38Z" transform="translate(-13.99 -0.41)"/><path class="cls-50" d="M15.69,19.21a.67.67,0,0,1-.12.49c-.09.1-.13.22,0,.32.39.3.24.58,0,.84a.7.7,0,0,0-.16.53.18.18,0,0,1-.25,0,2.67,2.67,0,0,1,.25-2v-.1Z" transform="translate(-13.99 -0.41)"/><path class="cls-51" d="M16.1,18.38a2.66,2.66,0,0,0,.27,1.23c.09.16.14.45-.12.54s-.21-.22-.28-.36a1.1,1.1,0,0,1-.18-.69h0c.07-.09.19-.16.1-.31v-.2Z" transform="translate(-13.99 -0.41)"/><path class="cls-52" d="M15.89,18.79c.17.17.12.27-.1.31Z" transform="translate(-13.99 -0.41)"/><path class="cls-13" d="M15.37,19.41a9.37,9.37,0,0,0-.2,2,3.36,3.36,0,0,0-.24,1.13.61.61,0,0,1-.27.34c-.09,0-.14,0-.12-.12-.26-.57.19-1.1.11-1.66,0-.3-.1-.62.21-.83s.09-.6.31-.84Z" transform="translate(-13.99 -0.41)"/><path class="cls-53" d="M32.5,19.21l.11.1c0,.25-.28.29-.28.51-.07.42-.21.84.13,1.22a.31.31,0,0,1-.06.35c-.17.26,0,.33.21.41s.09.1.07.13c-.21.46,0,.87.15,1.29.05.72.26,1.43.28,2.16a.69.69,0,0,1-.27.72c-.35.12-.26.58-.56.73a1.09,1.09,0,0,1-.42-.2c-.4-.27-.42-.46,0-.74s.4-.46.21-.79a.44.44,0,0,1,0-.4c0-.08.09-.2,0-.24-.35-.25-.3-.71-.55-1a2.4,2.4,0,0,0-2-2.26.79.79,0,0,1-.49-.26c-.19-.3-.23-.67-.44-1,0-.32.15-.46.44-.36s.34,0,.4-.22.19-.6.27-.9c-.12-.07-.35,0-.32-.28s0-.49.29-.62.31,0,.42.19a1,1,0,0,0,.39.33.8.8,0,0,1,.47,1.23c-.13.31-.07.38.23.35s.84.33.9-.37A.35.35,0,0,1,32.5,19.21Z" transform="translate(-13.99 -0.41)"/><path class="cls-54" d="M29.6,18.48c.13.49-.2.89-.26,1.35,0,.18-.22,0-.32-.08s-.42-.17-.46.18c-.08,0-.16,0-.16-.07,0-.6-.52-.86-.8-1.27-.15-.2-.38-.22-.59-.29-.36-.13-.76-.23-.6-.77,0-.1-.11-.13-.16-.19-.11-.31.28-.35.32-.58s.09-.19.22-.15a5.13,5.13,0,0,1,1.1,1.13.43.43,0,0,0,.34.22.36.36,0,0,1,.32.45c-.09.52.24.4.5.33A3.42,3.42,0,0,0,29.6,18.48Z" transform="translate(-13.99 -0.41)"/><path class="cls-55" d="M23.89,14.23a6.36,6.36,0,0,0,2,.51,2.23,2.23,0,0,1-.21.22c-.08.22.29.19.21.41v.1c-.36,0-.43.51-.82.47a1.7,1.7,0,0,0-.34-.12.77.77,0,0,1-.66-.34,1.76,1.76,0,0,0-.86-.82.22.22,0,0,1-.15-.29c.08-.2.3-.12.45-.18a.39.39,0,0,1,.3,0Z" transform="translate(-13.99 -0.41)"/><path class="cls-56" d="M30.74,16.92l.52.32s0,0,0,.07,0,0,0,0a.08.08,0,0,1-.12,0,3,3,0,0,1-.74,0c-.38,0-.83-.24-1.16.21a.32.32,0,0,1-.5-.06c-.13-.25.19-.21.28-.32s.55.08.48-.27-.37-.19-.61-.13-.23,0-.26-.11.15-.22.23-.19c.44.17,1-.22,1.38.32C30.36,17,30.57,16.9,30.74,16.92Z" transform="translate(-13.99 -0.41)"/><path class="cls-57" d="M25,15.89c.2,0,.29-.14.35-.3s.28-.24.48-.12a1.06,1.06,0,0,0,.6.46c.3.14.48.33.33.68a.22.22,0,0,0-.1.21c-.28.25-.51.25-.69-.12a.86.86,0,0,0-.21-.29C25.58,16.18,25.16,16.24,25,15.89Z" transform="translate(-13.99 -0.41)"/><path class="cls-58" d="M25.86,15.37c-.11-.07-.23-.12-.34-.2s-.18-.23,0-.32c.56.33.62.32.93-.11l.52.42c.05.23.53.4.09.7-.15.1-.26.17-.43,0S26.07,15.63,25.86,15.37Z" transform="translate(-13.99 -0.41)"/><path class="cls-59" d="M28.87,15.78c.21,0,.35.14.32.32s-.23.08-.35.09a3.59,3.59,0,0,0-.92.09c-.15,0-.4.09-.42-.14s.2-.25.38-.25h.26C28.4,16,28.62,15.77,28.87,15.78Z" transform="translate(-13.99 -0.41)"/><path class="cls-60" d="M32.5,19.21l-.52.1A.17.17,0,0,1,32,19c.1-.09.08-.25.21-.31Z" transform="translate(-13.99 -0.41)"/><path class="cls-61" d="M28.87,15.78l-.42.25c-.16.09-.28.07-.31-.14A.54.54,0,0,1,28.87,15.78Z" transform="translate(-13.99 -0.41)"/><path class="cls-62" d="M31.15,17.34h.11c.17.13.43.21.31.52C31.14,17.92,31,17.79,31.15,17.34Z" transform="translate(-13.99 -0.41)"/><path class="cls-63" d="M31.57,17.86c0-.24-.24-.33-.31-.52v-.1l.31.2c.1.18.13.41.4.42v.2C31.8,18.08,31.71,17.92,31.57,17.86Z" transform="translate(-13.99 -0.41)"/><path class="cls-53" d="M32.19,18.69A.31.31,0,0,1,32,19c.08-.21-.23-.42,0-.62.11.08.13.22.21.31Z" transform="translate(-13.99 -0.41)"/><path class="cls-60" d="M32.19,18.69a.33.33,0,0,1-.21-.31h.11C32.21,18.45,32.19,18.57,32.19,18.69Z" transform="translate(-13.99 -0.41)"/><path class="cls-64" d="M23.47,14.23c-.08.14-.26.06-.36.17a.13.13,0,0,0,.1.15,1.15,1.15,0,0,1,.83.7.66.66,0,0,0,.78.43c0,.49-1,1.34-1.46,1.23a.4.4,0,0,1-.22-.14,1,1,0,0,1,.37-1.13c-.3-.24-.61-.47-1-.23a.41.41,0,0,1-.4-.05,1.81,1.81,0,0,0-1.43-.24.42.42,0,0,1-.39-.06c-.17,0-.33,0-.41-.21a18.73,18.73,0,0,1,3.22-.72C23.18,14.23,23.35,14.11,23.47,14.23Z" transform="translate(-13.99 -0.41)"/><path class="cls-65" d="M33,26.68a.21.21,0,0,0,.21-.1c.2-.12,0-.4.21-.52a1.1,1.1,0,0,0,.1.62c0,.13-.12.16-.21.21s0,.21,0,.31c0,.32-.18.48-.41.62h-.11a1.58,1.58,0,0,0-.51.52h-.11c-.24-.32,0-.57.16-.8s.45-.42.48-.75C32.88,26.72,32.92,26.66,33,26.68Z" transform="translate(-13.99 -0.41)"/><path class="cls-66" d="M19.74,33.53,19,33a.69.69,0,0,1-.38-.31c-.05-.11-.11-.22,0-.34s.42,0,.63,0a1.35,1.35,0,0,1,.88.72c0,.18.23.36,0,.54A.37.37,0,0,1,19.74,33.53Z" transform="translate(-13.99 -0.41)"/><path class="cls-67" d="M18.59,32.39l.11.31a.14.14,0,0,1-.21,0l-.31-.1a.76.76,0,0,1-.11-.42.24.24,0,0,1,.21-.07A.35.35,0,0,1,18.59,32.39Z" transform="translate(-13.99 -0.41)"/><path class="cls-29" d="M18.49,32.7h.21A.64.64,0,0,1,19,33C18.68,33.27,18.6,33.22,18.49,32.7Z" transform="translate(-13.99 -0.41)"/><path class="cls-60" d="M32.61,19.93H32.5c-.19.07-.2-.14-.31-.2.07-.21.29-.27.42-.42l.2.31C32.73,19.72,32.68,19.83,32.61,19.93Z" transform="translate(-13.99 -0.41)"/><path class="cls-68" d="M17,31.25l.11-.31c-.18-.2-.35-.42-.52-.62l-.1-.11c-.1-.16-.35-.26-.21-.52a1.68,1.68,0,0,1-.09-.94c.27-.49.33-.51.75-.17a1.44,1.44,0,0,0,.37.19.38.38,0,0,1,.28.48c-.05.18-.1.28.18.33.77.11.82.21.75,1.08-.15.25-.47.2-.66.39l-.15.13a.77.77,0,0,1-.19.17C17.39,31.27,17.19,31.39,17,31.25Z" transform="translate(-13.99 -0.41)"/><path class="cls-69" d="M16,29.07a.76.76,0,0,1-.52-1l.06,0c.47.11.37.56.52.86A.24.24,0,0,1,16,29.07Z" transform="translate(-13.99 -0.41)"/><path class="cls-70" d="M15.48,28a1.17,1.17,0,0,1-.42-1.45h0a.1.1,0,0,1,.13,0c.06.35,0,.73.28,1,0,.14.13.28,0,.43Z" transform="translate(-13.99 -0.41)"/><path class="cls-71" d="M16,29.07v-.21c-.06-.11,0-.17.09-.23a.18.18,0,0,1,.22.13c0,.31.14.62,0,.93A.54.54,0,0,1,16,29.07Z" transform="translate(-13.99 -0.41)"/><path class="cls-72" d="M18.28,32.18h-.21c-.07-.13-.1-.3-.31-.31v-.1c0-.14,0-.21.14-.26A.46.46,0,0,1,18.28,32.18Z" transform="translate(-13.99 -0.41)"/><path class="cls-73" d="M17.87,31.56l-.11.21c-.28,0-.19-.25-.21-.42s0-.16.11-.2a.89.89,0,0,1,.24.3A.11.11,0,0,1,17.87,31.56Z" transform="translate(-13.99 -0.41)"/><path class="cls-74" d="M16.62,30.32c.36.05.45.32.52.62-.15,0-.3-.06-.44-.11C16.33,30.71,16.31,30.54,16.62,30.32Z" transform="translate(-13.99 -0.41)"/><path class="cls-75" d="M20.25,15.06A4.62,4.62,0,0,1,21.48,15a.54.54,0,0,1,.42.14.5.5,0,0,0,.8.06c.14-.12.26-.05.38,0s.44.3.74.49c-.72.09-.49.68-.66,1.06,0,.15-.18.2-.28.3a.74.74,0,0,1-.74.2c-.18-.12-.5.1-.59-.2s.21-.41.34-.6.34-.24.45-.47c-.28-.22-.79-.06-.88-.56,0,.13.09.23,0,.35a1.41,1.41,0,0,1-1.75.52l-.22-.13a.31.31,0,0,1-.09-.35l.36,0C20.54,15.7,20.54,15.7,20.25,15.06Z" transform="translate(-13.99 -0.41)"/><path class="cls-76" d="M19.42,15.78l.11.31c0,.25-.2.19-.34.15A1,1,0,0,1,18.7,16v-.21Z" transform="translate(-13.99 -0.41)"/><path class="cls-77" d="M17.24,19.83a1.3,1.3,0,0,1,0-.87c.09-.28.22-.66-.32-.69a.45.45,0,0,1-.18-.49.66.66,0,0,1,.18-.34v-.21l.31.32c.13.06.28.21.37,0s0-.39-.26-.41-.21-.24-.11-.41a.48.48,0,0,1,.52-.11c.32.1.57-.09.83-.21a5.83,5.83,0,0,1,.72.06.76.76,0,0,1,.77.48,1.31,1.31,0,0,1-.41,1c-.13.09-.33.1-.39.29a4.15,4.15,0,0,1-1.08.92,1.91,1.91,0,0,0-.41.29c-.08.09-.13.2-.21.29S17.37,19.94,17.24,19.83Z" transform="translate(-13.99 -0.41)"/><path class="cls-78" d="M19.22,18.27c-.12-.21-.07-.29.18-.32s.69-.71.61-.94a.68.68,0,0,0-.75-.43,1,1,0,0,1-.67-.18L18.7,16c.3-.16.51.36.83.1h0a1.21,1.21,0,0,0,1.63-.25c.2-.17.3-.24.07-.44s-.23-.17-.07-.29a.17.17,0,0,1,.26.09.71.71,0,0,0,.87.51c.1,0,.17.1.18.21a.22.22,0,0,1-.15.28,2.19,2.19,0,0,0-.78.79c.18.14.41-.07.53.14-.74.35-1.18,1.17-2.06,1.31C19.78,18.37,19.46,18.54,19.22,18.27Z" transform="translate(-13.99 -0.41)"/><path class="cls-79" d="M27.31,33.12V33c0-.37.41-.33.55-.56a1.86,1.86,0,0,1,.35-.22l.36-.22.14,0a.28.28,0,0,1,.26.1.32.32,0,0,1-.2.31c-.16.16-.39.23-.52.42A.18.18,0,0,0,28,33,3,3,0,0,1,27.31,33.12Z" transform="translate(-13.99 -0.41)"/><path class="cls-80" d="M28.25,32.81c0-.38.24-.4.52-.42,0,.18.15.27.2.42h-.72Z" transform="translate(-13.99 -0.41)"/><path class="cls-81" d="M29,32.08h-.31c-.06-.2,0-.31.21-.4a.65.65,0,0,1,.34,0c.16.09.3.18.18.4H29Z" transform="translate(-13.99 -0.41)"/><path class="cls-82" d="M31.15,29.59a.86.86,0,0,1-.1.52c-.64,0-.58.6-.83.93h0a.44.44,0,0,1-.53.23.22.22,0,0,1,0-.21c.16-.19.41-.29.5-.55a1.62,1.62,0,0,0,.21-.36c.16-.35.32-.69.79-.69a.09.09,0,0,1,0,.09S31.16,29.59,31.15,29.59Z" transform="translate(-13.99 -0.41)"/><path class="cls-83" d="M30.22,31.25c.06.36-.26.5-.42.73-.13.06-.26.09-.34-.07a.3.3,0,0,1,0-.34C29.69,31.36,29.87,31.11,30.22,31.25Z" transform="translate(-13.99 -0.41)"/><path class="cls-84" d="M30.22,31.25c-.3,0-.46.18-.62.37s-.07.36.2.36c-.1.15-.27.09-.41.1a.31.31,0,0,0-.21-.31c0-.36.26-.43.52-.52l.52-.21Z" transform="translate(-13.99 -0.41)"/><path class="cls-85" d="M32.92,26.79a.73.73,0,0,1-.37.72.85.85,0,0,0-.36.83l-.1.11c-.06.17-.12.34-.31.41s-.1.12-.11.21l-.1.1c-.14.09-.23.28-.44.21a.72.72,0,0,1,0-.52.65.65,0,0,1,.25-.27c.16-.07.19-.19.22-.36a1.43,1.43,0,0,1,.62-1.12C32.5,27.06,32.62,26.73,32.92,26.79Z" transform="translate(-13.99 -0.41)"/><path class="cls-42" d="M31.15,29.38c.15-.06.24-.22.42-.21a.21.21,0,0,1-.1.21l-.32.21v-.11s0,0,0-.06Z" transform="translate(-13.99 -0.41)"/><path class="cls-86" d="M31.78,28.86l.31-.41a.2.2,0,0,0,.1.2C32.16,28.93,31.94,28.84,31.78,28.86Z" transform="translate(-13.99 -0.41)"/><path class="cls-32" d="M17.35,17.13c.13,0,.27-.31.37-.09s.16.58-.06.76-.31-.1-.42-.25C17.58,17.48,17.4,17.29,17.35,17.13Z" transform="translate(-13.99 -0.41)"/><path class="cls-51" d="M16.83,17.75l.1.52c-.26.1-.29.37-.4.63-.19-.21,0-.54-.33-.63v-.2c.22,0,.23-.27.41-.32A.15.15,0,0,1,16.83,17.75Z" transform="translate(-13.99 -0.41)"/><path class="cls-87" d="M16.83,17.75h-.21l.1-.31h.21C16.93,17.56,17,17.68,16.83,17.75Z" transform="translate(-13.99 -0.41)"/><path class="cls-88" d="M32.3,28.34c0-.39.12-.56.51-.52C32.79,28.15,32.92,28.62,32.3,28.34Z" transform="translate(-13.99 -0.41)"/><path class="cls-89" d="M15.17,26.58h-.11a3.2,3.2,0,0,0-.41-1.66.24.24,0,0,1-.11-.21.58.58,0,0,1,.58-.07c.26.2.25.54.42.79a.6.6,0,0,1-.07.55C15.29,26.14,15.34,26.41,15.17,26.58Z" transform="translate(-13.99 -0.41)"/><path class="cls-90" d="M19.22,18.27c.26.11.57-.09.83.11s-.09.35-.28.43a3.18,3.18,0,0,1-.78.12c0,.24.21.45.07.69,0,.06-.12.09-.14.15a2.26,2.26,0,0,1-1.56,1.34c-.13.05-.26,0-.44,0,.16.2.42.37.22.66a.51.51,0,0,1-.64.16c-.25-.07-.5.18-.74,0a.18.18,0,0,1,0-.21c.25-.18.52-.36,0-.53-.08,0-.18-.09-.13-.19a.48.48,0,0,1,.23-.19.55.55,0,0,1,.4,0c.26.09.4,0,.26-.26-.23-.43.14-.45.31-.36.59.33.31-.19.38-.36l.31-.1c.09-.09.42-.09.11-.31Z" transform="translate(-13.99 -0.41)"/><path class="cls-91" d="M15.79,21.7v.21c.19.23.07.45,0,.66a.72.72,0,0,0-.08.73,1.26,1.26,0,0,1,.07,1.26,1.05,1.05,0,0,0,0,.31,2.32,2.32,0,0,1-.16.51l-.06.06c-.28-.17-.27-.46-.31-.73V24.4c-.19-.46,0-1-.27-1.45,0,0,0-.1,0-.14a2,2,0,0,0,.3-1.23c0-.07,0-.12.13-.09A.37.37,0,0,1,15.79,21.7Z" transform="translate(-13.99 -0.41)"/><path class="cls-92" d="M15.37,21.49c0,.47.08,1-.33,1.33-.09.08,0,.18,0,.27.3.41.11.87.11,1.31-.13,0-.3-.07-.27-.18.15-.57-.27-1.12,0-1.69,0-.41-.11-.85.31-1.14h.2Z" transform="translate(-13.99 -0.41)"/><path class="cls-93" d="M26.27,17.34c.11,0,.22-.14.33,0a.16.16,0,0,1,0,.27c-.27.24-.07.34.12.44s.09.09.13.09c.69,0,1,.61,1.42.93s.08.63.31.88.32.61.41.94a.41.41,0,0,1,0,.52c-.32.17-.5,0-.52-.29a.8.8,0,0,0-.66-.75,9.16,9.16,0,0,1-1.07-.57,2,2,0,0,0-.89-.65c-.28-.1-.55-.28-.49-.67.38-.25.78-.49.77-1C26.07,17.35,26.18,17.3,26.27,17.34Z" transform="translate(-13.99 -0.41)"/><path class="cls-94" d="M32.3,27.2a1.13,1.13,0,0,0-.47,1.23c.07.27-.27.11-.36.22a1.2,1.2,0,0,1-.31-.18c-.24-.14-.31-.31-.1-.53a.76.76,0,0,0,.17-.52,1.61,1.61,0,0,0,0-1.24c0-.41.44-.59.53-1a.57.57,0,0,0-.25-.52.86.86,0,0,0-.82-.21c-.32-.06-.47-.2-.27-.52s.07-.46.19-.67a2.49,2.49,0,0,1,1,.16c.14.16.4.24.26.54-.07.14.06.16.15.21.26.12.41.27.13.53s0,.28.09.4a.52.52,0,0,1-.21.78c-.48.3-.47.37,0,.66a1.94,1.94,0,0,1,.29.21A.3.3,0,0,1,32.3,27.2Z" transform="translate(-13.99 -0.41)"/><path class="cls-95" d="M31.57,23.46a.86.86,0,0,1-.93-.2l-.05-.06c0-.3,0-.6-.4-.66-.11-.2-.31-.34-.42-.54.17-.22.17-.39-.14-.46a1.63,1.63,0,0,0-.66,0c-.07,0-.13-.05-.1-.14l.1-.52a1.27,1.27,0,0,0,.73.21c.44-.06.66.33.95.52A1.85,1.85,0,0,1,31.57,23.46Z" transform="translate(-13.99 -0.41)"/><path class="cls-96" d="M32.3,27.2v-.41a.76.76,0,0,1,.41-.73c0,.26.46.29.31.62l-.1.11C32.68,26.88,32.59,27.2,32.3,27.2Z" transform="translate(-13.99 -0.41)"/><path class="cls-97" d="M32.19,19.73c.16,0,.21.14.31.2.17.21,0,.42,0,.63a.66.66,0,0,1-.1.41h0c-.43-.09-.27-.45-.29-.69S32.21,19.92,32.19,19.73Z" transform="translate(-13.99 -0.41)"/><path class="cls-98" d="M26.27,17.34s-.14.1-.13.13c.12.65-.31.85-.8,1a.66.66,0,0,1-.79-.48c0-.34.17-.55.56-.49.22,0,.27-.08.18-.27s-.41-.34-.23-.56a1.06,1.06,0,0,1,.8-.38.37.37,0,0,1,.23.26c.07.4.32.37.6.26C26.7,17.11,26.27,17.05,26.27,17.34Z" transform="translate(-13.99 -0.41)"/><path class="cls-53" d="M29.16,19c0,.16-.12.2-.23.24a.14.14,0,0,1-.2-.1.22.22,0,0,1,.19-.26C29,18.89,29.13,18.9,29.16,19Z" transform="translate(-13.99 -0.41)"/><path class="cls-99" d="M25.86,16.3l-.17.12a.67.67,0,0,0-.19.84.27.27,0,0,1-.05.33c-.09.09-.18.2-.31.1-.38-.3-.4.09-.53.27-.43.22-.52-.23-.77-.38s-.39-.14-.6-.16-.57-.09-.39-.5l.31-.2c.33.12.66.27.78-.27,0-.17.26-.14.39-.22s.45-.26.49-.55a.36.36,0,0,1,.21.21Z" transform="translate(-13.99 -0.41)"/><path class="cls-75" d="M20.05,33.12c-.19-.35-.55-.5-.83-.73a.17.17,0,0,1,0-.21c.41-.13.88-.06,1.25-.37.1-.08.26,0,.36.12.09.34-.23.72.09,1a.24.24,0,0,1,.05.14C20.64,33.47,20.45,33.47,20.05,33.12Z" transform="translate(-13.99 -0.41)"/><path class="cls-100" d="M19.22,32.18v.21c-.21.17-.42,0-.63,0l-.31-.21c-.08-.24-.09-.53-.41-.62v-.1a.62.62,0,0,1,.35-.2A.87.87,0,0,1,19.22,32.18Z" transform="translate(-13.99 -0.41)"/><path class="cls-101" d="M16.31,28.76l-.21-.11c-.23,0-.19-.17-.13-.27s.24-.4.5-.39a1,1,0,0,1,.5.06,3.62,3.62,0,0,0,1.29.26,1,1,0,0,0,.63.55,3.28,3.28,0,0,1,.92.61.61.61,0,0,1,.22.64c-.05.57.52.92,1.21.73.23-.06.47-.2.54.18,0,0,0,.07,0,.1s-.29.27-.14.39.29-.07.41-.18c.31-.28.5-.27.76.07a2.27,2.27,0,0,1,.32,1,.24.24,0,0,1-.36.28,4.92,4.92,0,0,1-1.43-.57c-.86-.58-1.93-.71-2.8-1.29l0-.06c0-.22-.16-.41,0-.65s-.08-.23-.21-.29a2.85,2.85,0,0,0-.87-.11c-.08-.17.08-.25.13-.36s0-.47-.1-.41c-.46.37-.57-1-1-.19Z" transform="translate(-13.99 -0.41)"/><path class="cls-73" d="M17.76,31a.73.73,0,0,1,.73-.31h0c.13.13.32.24.23.45s-.32.08-.49.12A.6.6,0,0,1,17.76,31Z" transform="translate(-13.99 -0.41)"/><path class="cls-102" d="M17.76,31c.2,0,.3.1.42.21s.05.05,0,.07,0,0,0,0-.2.1-.31.11-.21-.16-.21-.31Z" transform="translate(-13.99 -0.41)"/><path class="cls-68" d="M18.28,28.34c-.41,0-.82.19-1.2-.14-.22-.19-.89,0-1,.24-.05.08,0,.16.07.21l-.1.21c-.27-.22-.09-.71-.52-.83l-.11-.41c.07-.17-.07-.35.07-.51a.15.15,0,0,1,.13,0c.14.19.25.4.53.4s.25,0,.32-.16.14-.42.42-.43a.33.33,0,0,1,.08.19.77.77,0,0,1,0,.15c0,.21-.24.5.18.59a1.19,1.19,0,0,1,.42,0c.17.06.29.33.52.11a.73.73,0,0,1,.36,0c.2.06.37.08.4-.21,0-.13,0-.28.17-.34.27.15.18.44.26.67C19.08,28.61,18.86,28.67,18.28,28.34Z" transform="translate(-13.99 -0.41)"/><path class="cls-103" d="M15.48,27.1c0,.17.07.37-.11.52a.87.87,0,0,1-.2-1c0-.23-.08-.49.2-.62.11,0,.15,0,.19.11A1.17,1.17,0,0,1,15.48,27.1Z" transform="translate(-13.99 -0.41)"/><path class="cls-104" d="M19,19.62v-.1a.77.77,0,0,1,.56-.8c.2,0,.47,0,.48-.34a2.25,2.25,0,0,0,1.18-.83c.23-.3.66-.14.89-.42h.42A1,1,0,0,1,22,18.36a5.49,5.49,0,0,0-1,.77.65.65,0,0,1-.67.15.86.86,0,0,0-1,.48c-.08.16-.07.38-.32.4C18.82,20,18.75,19.8,19,19.62Z" transform="translate(-13.99 -0.41)"/><path class="cls-105" d="M19.22,19.73a1,1,0,0,1,1-.59.5.5,0,0,0,.65-.12,2.32,2.32,0,0,1,.9-.68c.54-.23.62-.72.73-1.21l.31-.21c0,.39.23.45.55.36s.5-.13.49.27-.24.32-.43.42c-.38.2-.84.18-1.18.47-.59.43-1.2.82-1.78,1.26a1,1,0,0,1-.86.22A.81.81,0,0,1,19.22,19.73Z" transform="translate(-13.99 -0.41)"/><path class="cls-49" d="M17.66,19.42c.19,0,.45,0,.38.27s-.32,0-.49,0Z" transform="translate(-13.99 -0.41)"/><path class="cls-106" d="M27.94,32.49c-.08.33-.51.24-.63.52-.21.11-.33.37-.62.32a.63.63,0,0,0-.64-.33c-.18,0-.38.07-.54-.09a2,2,0,0,1,.26-1.09,1.85,1.85,0,0,0,.34-.95c0-.26.27-.32.5-.36s.44,0,.65-.2c-.26,0-.45.14-.67.11a.54.54,0,0,1-.53-.49c0-.3.23-.34.48-.3s.08.42.33.27c.62-.4,1,.05,1.42.36.15.29.62.07.71.45-.13.21-.44.34-.29.67a.19.19,0,0,1-.07.12,2.34,2.34,0,0,0-.69.13c-.39.2-.42.41-.08.7C27.92,32.37,28,32.42,27.94,32.49Z" transform="translate(-13.99 -0.41)"/><path class="cls-107" d="M25.55,32.91a3.75,3.75,0,0,0,.75,0c.43-.1.39.16.39.43-.16.09-.3.25-.52.2-.81-.31-1.54.32-2.34.22a11.1,11.1,0,0,0-1.29,0,.25.25,0,0,1,.18-.36,3.22,3.22,0,0,0,1.44-.69.24.24,0,0,1,.25-.06C24.77,32.81,25.19,32.72,25.55,32.91Z" transform="translate(-13.99 -0.41)"/><path class="cls-108" d="M27.94,32.49c-.13-.19-.63,0-.48-.49a1,1,0,0,1,1-.61l.24.07c.24,0,.31.09.21.31l-.21.31h-.1c-.09.09-.25.08-.31.21Z" transform="translate(-13.99 -0.41)"/><path class="cls-106" d="M28.25,32.29c0-.28.18-.18.31-.21A.31.31,0,0,1,28.25,32.29Z" transform="translate(-13.99 -0.41)"/><path class="cls-109" d="M28.87,31.77a.31.31,0,0,0-.21-.31v-.11c.16-.15.39-.18.55-.32a1,1,0,0,1,.38,0,.22.22,0,0,1,.11.05v.21c-.11.24-.43.26-.52.52Z" transform="translate(-13.99 -0.41)"/><path class="cls-110" d="M29.6,31c-.11.17-.21,0-.31,0S29,31,29,30.73a.39.39,0,0,0-.44-.15c-.22.06-.26-.1-.28-.26a.2.2,0,0,1,0-.22,2.75,2.75,0,0,1,1.18-.81.68.68,0,0,0,.53-.67,1.56,1.56,0,0,1,.3-.76.31.31,0,0,1,.35-.17c.17.06.15.22.14.35a5.48,5.48,0,0,0-.05.57c0,.22.11.31.3.34a.37.37,0,0,1-.22.51.56.56,0,0,0-.31.75.31.31,0,0,1-.21.31.17.17,0,0,1-.1,0c-.23,0-.49-.24-.68,0S29.7,30.81,29.6,31Z" transform="translate(-13.99 -0.41)"/><path class="cls-111" d="M29.6,31c-.06-.24-.64-.26-.31-.65s.55,0,.82,0c0,0,.07.07.11.1a.53.53,0,0,1-.52.52Z" transform="translate(-13.99 -0.41)"/><path class="cls-112" d="M30.43,30.21c-.29-.33-.42-.6.16-.78A.52.52,0,0,0,31,29c.07-.14.16-.22.31-.11l-.11.52v.1A1.32,1.32,0,0,0,30.43,30.21Z" transform="translate(-13.99 -0.41)"/><path class="cls-113" d="M31.26,28.86,31,29c-.28.21-.46.24-.42-.21,0-.23,0-.47,0-.71s.09-.21,0-.27a.18.18,0,0,0-.24.13c0,.32-.38.55-.27.9a.32.32,0,0,1-.15.4,8.15,8.15,0,0,0-1.64.9c-.18-.23,0-.38.11-.54s.31-.34.16-.59-.32-.06-.49,0c-.36.09-.35-.31-.55-.44s-.17-.28-.07-.46a2.51,2.51,0,0,1,.25-.32c.4-.45.62-1,1.07-1.45.21-.2,0-.6.34-.78a.28.28,0,0,1,.21.1c.18.25.12.56.18.84-.1.42-.43.76-.48,1.21,0,.1-.09.18,0,.33.29-.26.83-.23.77-.82,0-.08.07-.15.15-.2a1.87,1.87,0,0,1,1.47.44c0,.07,0,.15,0,.2-.25.38-.32.74.11,1Z" transform="translate(-13.99 -0.41)"/><path class="cls-75" d="M25.55,32.91a1.62,1.62,0,0,1-1.08-.16.33.33,0,0,0-.19,0c-.17.43-.71.31-.94.64a.25.25,0,0,1-.35.12c-.28-.14-.36.06-.45.25h-.62c-.12-.11-.3-.1-.42-.21s-.24-.55-.62-.52h0a1.27,1.27,0,0,1,.05-.92A.4.4,0,0,1,21.4,32c.39.37,1,.29,1.4.58.12.08.3,0,.23-.15-.17-.32-.11-.71-.37-1s-.38-.24-.56,0a.88.88,0,0,1-.22.28.34.34,0,0,1-.46-.08c-.18-.18,0-.25.09-.35a2.31,2.31,0,0,0,.2-.24c.48-.3,1,0,1.45,0,.19.24.49.21.76.28a8.55,8.55,0,0,1,.48.9.52.52,0,0,0,.57.35c.28,0,.32-.27.31-.51a.26.26,0,0,1,0-.15c.19-.67.19-.67-.42-1.05a2,2,0,0,1,.29-1.13c.09-.09.22-.14.26-.25.19-.51.65-.6,1.1-.72.31.07.28.32.28.55a.51.51,0,0,1-.22.36c-.19,0-.49,0-.41.28a.43.43,0,0,0,.65.3c.27-.13.49-.24.77,0a1.27,1.27,0,0,1-.87.34c-.31,0-.67,0-.47.51a.29.29,0,0,1-.08.33C25.71,31.85,25.77,32.44,25.55,32.91Z" transform="translate(-13.99 -0.41)"/><path class="cls-114" d="M15.48,26.06l-.11-.1a.86.86,0,0,0,.11-.52h0c.43,0,.62.37.86.65a.24.24,0,0,1-.12.38.5.5,0,0,1-.67-.17C15.5,26.23,15.54,26.13,15.48,26.06Z" transform="translate(-13.99 -0.41)"/><path class="cls-115" d="M15.58,24.92c0-.25-.05-.51.14-.74a.36.36,0,0,0,0-.43c-.26-.44-.45-.89,0-1.35a.69.69,0,0,0,.1-.49,1.5,1.5,0,0,1,1-.05c.15.07.24-.08.32-.19a.2.2,0,0,0,0-.27c-.12-.14-.5-.18-.34-.41s.42,0,.64.09a1.23,1.23,0,0,1-.15,1.07,3.6,3.6,0,0,1-.31.54c-.35.14-.41.54-.69.75a.16.16,0,0,0,0,.23c.31.29.13.46-.12.65s-.11.47-.34.62A.14.14,0,0,1,15.58,24.92Z" transform="translate(-13.99 -0.41)"/><path class="cls-116" d="M16.83,22.74c.11-.58.54-1,.52-1.66.17-.23.29-.45.69-.37s.38-.33.49-.56.15-.5.48-.53c-.15.18,0,.35,0,.52.13.46-.18.74-.46,1a1.67,1.67,0,0,0-.6,1.29.94.94,0,0,1-.56.61.45.45,0,0,1-.54-.21Z" transform="translate(-13.99 -0.41)"/><path class="cls-106" d="M15.58,24.92h.11a1.12,1.12,0,0,1,1,1,1.13,1.13,0,0,0,.23.77.2.2,0,0,1-.05.21,1.1,1.1,0,0,0-.35.65.22.22,0,0,1-.24.21c-.12,0-.13-.14-.14-.24a.22.22,0,0,1-.06-.13c0-.17.21-.35,0-.48s-.32.12-.48.2h-.1v-1l.11.16a.46.46,0,0,0,.62.14c.27-.23-.09-.32-.21-.44a5.91,5.91,0,0,0-.52-.48A.84.84,0,0,1,15.58,24.92Z" transform="translate(-13.99 -0.41)"/><path class="cls-117" d="M22.23,18.38c.25-.48.8-.26,1.16-.51.16-.11.39-.12.5-.32.33,0,.34.52.72.41a1.14,1.14,0,0,0,.73.52.8.8,0,0,0,.62.59.86.86,0,0,1,.73.66c0,.37.27.78-.18,1.08a13.79,13.79,0,0,1-1.35-.4c-.2,0-.19-.26-.11-.48.19-.49,0-.78-.46-1a1.13,1.13,0,0,1-.48-.15.89.89,0,0,0-.92,0,2.32,2.32,0,0,1-.52.07c-.25-.06-.5,0-.74,0C21.84,18.55,22.1,18.51,22.23,18.38Z" transform="translate(-13.99 -0.41)"/><path class="cls-118" d="M26.48,20.76a.54.54,0,0,0,.13-.63.32.32,0,0,1,.08-.4c.53,0,.87.51,1.4.61a.62.62,0,0,1,.45.75c-.09.31.14.29.33.3l.1.1a.1.1,0,0,1,0,.13c-.08.07-.18.09-.28.17.14.15.37.06.5.2a.17.17,0,0,1,0,.14c-.33.26-.78.19-1.11.43-.16,0-.27-.09-.4-.13-.28-.16-.37.27-.61.2a.5.5,0,0,1,.28-.75c.1-.05.25-.06.2-.23s-.09-.28-.24-.31-.18.13-.22.23-.22.26-.42.16a.42.42,0,0,1,0-.43C26.73,21.07,26.62,20.92,26.48,20.76Z" transform="translate(-13.99 -0.41)"/><path class="cls-119" d="M31.36,27.41c-.15-.17-.3-.34-.57-.21s-.31,0-.47-.1c-.36-.18-.57-.07-.49.31s0,.41-.31.41a.37.37,0,0,0-.33.2c-.07.12-.16.27-.32.14a.32.32,0,0,1-.07-.45,4.16,4.16,0,0,1,.59-1.24c.22-.11.48-.09.69-.25.4.1.78-.15,1.18-.06C31.73,26.54,31.39,27,31.36,27.41Z" transform="translate(-13.99 -0.41)"/><path class="cls-120" d="M31.26,26.16a1.35,1.35,0,0,1-1.25.11c-.49,0-.63-.18-.59-.77a.18.18,0,0,1,.11-.1c.18,0,.2.2.29.32s.18.11.3.11.21,0,.32,0,.34,0,.48-.1a1,1,0,0,0,.37-.27.72.72,0,0,1,.21-.18.61.61,0,0,1,.26-.08.14.14,0,0,1,.12.06C31.78,25.61,31.4,25.81,31.26,26.16Z" transform="translate(-13.99 -0.41)"/><path class="cls-121" d="M30.64,23.26a1.48,1.48,0,0,1-.18.88c-.15.2.13.22.28.26a.29.29,0,0,1-.11.36,3.22,3.22,0,0,1-.76.17.69.69,0,0,1-.32,0,.29.29,0,0,1-.11-.11.23.23,0,0,1,.06-.21c.21-.13.67,0,.5-.52,0-.28.09-.56.11-.84a.37.37,0,0,1,.07-.14c.23-.13.32.08.45.19Z" transform="translate(-13.99 -0.41)"/><path class="cls-122" d="M30.63,24.71l.11-.31c.35-.24.57.06.83.21a.87.87,0,0,1,.21.62l-.21.1c-.12-.09-.12-.24-.18-.37s-.2-.36-.46-.29l-.18.07A.14.14,0,0,1,30.63,24.71Z" transform="translate(-13.99 -0.41)"/><path class="cls-121" d="M31.78,25.23l-.21-.62a.65.65,0,0,1,.31.62Z" transform="translate(-13.99 -0.41)"/><path class="cls-123" d="M28,22.53c.28-.41.75-.3,1.14-.42a.69.69,0,0,1,.62-.1c.23.1.46.2.42.52a.09.09,0,0,1,0,.13.73.73,0,0,1-.48-.11,1,1,0,0,0-1.43.45c-.07.12-.07.33-.3.26A.45.45,0,0,1,28,22.53Z" transform="translate(-13.99 -0.41)"/><path class="cls-124" d="M29.8,22c-.18.19-.41.07-.62.1V22c-.07-.14-.13-.28-.21-.42v-.1a.92.92,0,0,1,1.14.18C30.35,22.05,29.81,21.81,29.8,22Z" transform="translate(-13.99 -0.41)"/><path class="cls-94" d="M30.22,22.63v-.1c.5-.09.59.07.41.73-.18,0-.27-.15-.41-.21A.29.29,0,0,1,30.22,22.63Z" transform="translate(-13.99 -0.41)"/><path class="cls-66" d="M21.4,32l-.42.1a.22.22,0,0,1-.21-.1c-.13-.07-.31-.18-.41,0-.32.45-.75.24-1.14.23a1.11,1.11,0,0,0-1-.83v-.1c.56.1.49-.18.31-.52a12.56,12.56,0,0,1,2.44,1.05C21.08,31.89,21.29,31.81,21.4,32Z" transform="translate(-13.99 -0.41)"/><path class="cls-101" d="M20.77,32a.21.21,0,0,1,.21.1,2.42,2.42,0,0,1-.1.93c-.62,0-.05-.49-.27-.68C20.59,32.31,20.72,32.1,20.77,32Z" transform="translate(-13.99 -0.41)"/><path class="cls-125" d="M23.16,31.15c-.49.06-1-.19-1.45-.11,0-.22-.17-.24-.33-.13-.44.29-.85.07-1.25-.1a.42.42,0,0,1-.19-.7l.06,0c.07.1.16.19.3.14a.83.83,0,0,1,.81.17c.24.19.49,0,.73,0a1.09,1.09,0,0,1,.85,0,.9.9,0,0,0,1.3-.72c.07-.46.43-.47.77-.53l.14,0c.1,0,.23.13.27,0,.2-.53.68-.47,1.1-.56a.32.32,0,0,1,.21.06.09.09,0,0,1,0,.13c-.15.08-.26.21-.45.22s-.39.1-.38.34-.26.27-.41.38-.22.37-.25.58a.8.8,0,0,1-.72.76C23.91,31.19,23.53,31.52,23.16,31.15Z" transform="translate(-13.99 -0.41)"/><path class="cls-126" d="M18.28,28.34a1.29,1.29,0,0,1,.35,0c.36.13.48,0,.48-.35a1.14,1.14,0,0,1,.19-.47c.5-.16.72-.06.84.41s.58.81.91.77.42-.06.51.19a.58.58,0,0,1-.12.62,1.35,1.35,0,0,1-.32.26c-.41,0-.71.48-1.18.3h0c-.06-.79-.75-.93-1.29-1.21C18.41,28.77,18.08,28.74,18.28,28.34Z" transform="translate(-13.99 -0.41)"/><path class="cls-127" d="M18.38,28H18c-.21-.22-.09-.5-.15-.74a.37.37,0,0,0-.05-.11c-.08-.06-.15,0-.23,0s-.18.07-.25,0a.4.4,0,0,1,0-.32c.14-.28.4-.29.66-.27a.49.49,0,0,1,.24.08c.14.14.12.34.17.51a.33.33,0,0,1,0,.22s-.07,0-.08.09a.19.19,0,0,1,.12-.07.42.42,0,0,1,.15.34A.38.38,0,0,1,18.38,28Z" transform="translate(-13.99 -0.41)"/><path class="cls-128" d="M15.58,27.1c0-.43.36-.45.58-.38s.15.36,0,.56a1.57,1.57,0,0,0-.09.23C15.68,27.68,15.54,27.5,15.58,27.1Z" transform="translate(-13.99 -0.41)"/><path class="cls-129" d="M19.32,27.62a.36.36,0,0,1-.21.41c-.22-.16,0-.46-.21-.62s-.25-.49-.43-.7a.22.22,0,0,1,0-.14.25.25,0,0,1,.25-.13,1.14,1.14,0,0,1,.5.54C19.27,27.18,19.41,27.38,19.32,27.62Z" transform="translate(-13.99 -0.41)"/><path class="cls-130" d="M18.49,26.68c.35.12.24.51.41.73,0,.8,0,.8-.52.62v-.31c.06-.08.29.12.23-.11s0-.48-.34-.41c-.17-.14-.08-.34-.1-.52A.22.22,0,0,1,18.49,26.68Z" transform="translate(-13.99 -0.41)"/><path class="cls-131" d="M17.87,27.1c.2.29.05.62.1.93-.24.36-.3,0-.42-.1a.69.69,0,0,1,0-.83c.11-.21.21-.21.32,0-.12.1-.1.23-.11.36C17.77,27.33,17.75,27.2,17.87,27.1Z" transform="translate(-13.99 -0.41)"/><path class="cls-132" d="M17.55,27.1v.83H17c-.08-.11,0-.21,0-.31a1.63,1.63,0,0,1,.11-.23.39.39,0,0,1,.17-.19Z" transform="translate(-13.99 -0.41)"/><path class="cls-133" d="M17.14,27.62l-.1.31c-.14.06-.31.15-.31-.12s-.09-.43.1-.61a.08.08,0,0,1,.12,0A1.52,1.52,0,0,1,17.14,27.62Z" transform="translate(-13.99 -0.41)"/><path class="cls-134" d="M16.93,27.2h-.1v-.1c.07-.17.14-.35.39-.29a.26.26,0,0,1,.13.08v.31a.24.24,0,0,1-.1.21C17.14,27.35,17,27.26,16.93,27.2Z" transform="translate(-13.99 -0.41)"/><path class="cls-135" d="M17.24,26.89c-.19,0-.29.09-.41.21v-.42a.31.31,0,0,1,.36-.14C17.34,26.63,17.34,26.75,17.24,26.89Z" transform="translate(-13.99 -0.41)"/><path class="cls-136" d="M17.87,22.43a1.46,1.46,0,0,1,.6-1.38,1.58,1.58,0,0,0,.54-.91l.21-.41c.14,0,.3-.05.41.1a.57.57,0,0,1-.12.62,2.34,2.34,0,0,0-.5,1l-.08.12a1.15,1.15,0,0,0-.28,1.27c.15.33-.12.61-.21.91a.44.44,0,0,1-.25.17.26.26,0,0,1-.21,0c-.08-.26.3-.5,0-.76A4.34,4.34,0,0,1,17.87,22.43Z" transform="translate(-13.99 -0.41)"/><path class="cls-137" d="M18.9,21.49c0-.67.62-1,.73-1.66.81.05,1.21-.68,1.84-1,.27-.13.44-.42.76-.49l-.32.41c-.31.4-.38,1-1.05,1.06l0,0c-.22.68-1,.81-1.37,1.33C19.32,21.38,19.18,21.58,18.9,21.49Z" transform="translate(-13.99 -0.41)"/><path class="cls-138" d="M26.48,28.76h-.21a.28.28,0,0,1-.06-.29.56.56,0,0,1,.2-.23,2.32,2.32,0,0,1,1.32-.42c-.34.44-.31.63.11,1a.18.18,0,0,0,.27,0c.16-.17.26-.3.45,0s.3.43.07.68-.43.32-.38.64v.21c-.22-.19-.51-.26-.74-.45s-.39.11-.58.17-.31.12-.44,0,.08-.23.1-.35l.1-.31.06-.08C27.07,28.81,27.07,28.81,26.48,28.76Z" transform="translate(-13.99 -0.41)"/><path class="cls-139" d="M29,30.73l.32.31a.55.55,0,0,1-.63.31C28.42,31,28.46,31,29,30.73Z" transform="translate(-13.99 -0.41)"/><path class="cls-140" d="M27.73,27.82c-.37.28-.91.17-1.25.52-.15-.3.14-.38.27-.55A1.63,1.63,0,0,0,28,26.6a8.93,8.93,0,0,1,.3-.87c.16-.32.38-.48.74-.33a.1.1,0,0,1,0,.14C29,26.5,28.21,27.08,27.73,27.82Z" transform="translate(-13.99 -0.41)"/><path class="cls-141" d="M29.08,25.54v-.1c-.32-.39-.78-.64-1-1.07a.45.45,0,0,1-.15-.55c.37-.14.39.3.63.38a1.14,1.14,0,0,1,.16.15c.17.34.61.19.82.46h0a.75.75,0,0,1,0,.57c-.07.12,0,.41-.29.26Z" transform="translate(-13.99 -0.41)"/><path class="cls-94" d="M29.18,25.64c.21,0,.21-.16.21-.31a.09.09,0,0,1,.12,0,.09.09,0,0,1,0,.12c0,.4.07.73.52.83-.09.43-.4.16-.62.2C29.17,26.24,29.39,25.89,29.18,25.64Z" transform="translate(-13.99 -0.41)"/><path class="cls-78" d="M24.93,30.94a.46.46,0,0,1,.67.4,2.63,2.63,0,0,1-.34,1.25c-.22.37-.66.18-.83-.07a2.62,2.62,0,0,1-.54-1.17c0-.14.06-.16.16-.18.28,0,.65.33.82-.19Z" transform="translate(-13.99 -0.41)"/><path class="cls-106" d="M24.09,31.25a.2.2,0,0,0-.2.1c-.29.11-.57.16-.73-.2a2,2,0,0,0,1.44-.28.58.58,0,0,0,.33-.64c0-.22,0-.41.31-.43l-.31,1.14A1,1,0,0,1,24.09,31.25Z" transform="translate(-13.99 -0.41)"/><path class="cls-106" d="M26.48,28.76c.05,0,.09-.06.14-.06s.45-.15.55.09-.1.34-.27.44l-.21.15c0-.18.13-.45-.21-.52Z" transform="translate(-13.99 -0.41)"/><path class="cls-106" d="M25.83,30.62a.18.18,0,0,1-.35,0,.17.17,0,0,1,.14-.18C25.73,30.43,25.8,30.5,25.83,30.62Z" transform="translate(-13.99 -0.41)"/><path class="cls-142" d="M17.87,22.43c.24.19.2.46.2.72a.72.72,0,0,1-.45.48h-.15c-.55,0-.59,0-.36.57.08.19,0,.41.15.59a1.78,1.78,0,0,1,.13.79c0,.29.13.6-.19.8s-.33,0-.39-.19a.34.34,0,0,0-.29-.24c.08-.64-.57-.69-.83-1,.16-.29,0-.75.51-.86.14,0,.06-.17,0-.24s-.21,0-.25-.15,0-.27.1-.26c.49,0,.18-.9.81-.67.12.19.26.35.52.2A1.69,1.69,0,0,0,17.87,22.43Z" transform="translate(-13.99 -0.41)"/><path class="cls-115" d="M17.35,22.94c-.28.19-.45.13-.52-.2C17,22.83,17.13,23,17.35,22.94Z" transform="translate(-13.99 -0.41)"/><path class="cls-143" d="M16.52,26c.16-.12.3-.23.36.09,0,.13,0,.32.26.32a.2.2,0,0,1,.06.11.21.21,0,0,1-.06.1l-.31.1C16.5,26.54,16.5,26.25,16.52,26Z" transform="translate(-13.99 -0.41)"/><path class="cls-144" d="M18.9,21.49a1.08,1.08,0,0,0,.47-.38c.19-.25.38-.54.76-.57a.37.37,0,0,0,.3-.25c.16-.34.22-.75.76-.63.08,0,.19-.09.2-.21,0-.33.29-.48.52-.66.25,0,.49-.24.73,0s-.13.58-.1,1c.06-.28.13-.43.3-.51a.35.35,0,0,1,.39,0,.24.24,0,0,1,.06.36c-.21.27,0,.71-.41.9a2.43,2.43,0,0,1-1,0c-.15,0-.29-.07-.45-.09-.37,0-.63.08-.65.5a.77.77,0,0,0-.18.62c0,.26-.15.52-.36.47-.51-.14-.83.24-1.25.33C18.61,22.19,18.6,22.12,18.9,21.49Z" transform="translate(-13.99 -0.41)"/><path class="cls-145" d="M23,20.45c.15-.28-.05-.65.27-.92.13-.1-.06-.24-.22-.2s-.33.11-.28.34,0,.36-.2.32-.18-.24-.12-.41.16-.53.24-.79a.86.86,0,0,1,.52-.1c.2.16.41.3.68.13s.52.19.77,0a.81.81,0,0,1,.56,1.2c-.2.28,0,.42.15.38.5-.14.76.32,1.16.39s.41.16.32.46-.07.32-.11.48c-.12.5-.46.21-.73.21a.89.89,0,0,0-.81-.74.28.28,0,0,1-.22-.13.6.6,0,0,0-.66-.42c-.17,0-.3-.16-.34-.34s.26-.31.39-.44a.11.11,0,0,0-.08-.13c-.56-.38-.55-.38-.76.28C23.4,20.24,23.37,20.57,23,20.45Z" transform="translate(-13.99 -0.41)"/><path class="cls-144" d="M24.61,18.79c-.07.17-.19.21-.37.14a.43.43,0,0,0-.44,0c-.39.31-.53.06-.64-.27a.71.71,0,0,1,.93-.06A.82.82,0,0,0,24.61,18.79Z" transform="translate(-13.99 -0.41)"/><path class="cls-146" d="M26,21.91c.19-.25.58.17.73-.21.26,0,.3-.12.32-.34s.25-.29.44-.15a.82.82,0,0,1,.33.61c0,.23-.25.12-.4.17s-.3.38-.27.64-.11.57.23.73a.17.17,0,0,1,0,.14,3,3,0,0,0-.28.22c-.51.59-.78.61-1.41.13l-.08-.13-.08-.13c-.36-.53-.29-.72.38-.87-.23-.28-.42-.45-.81-.25s-.55-.15-.68-.46c0-.24,0-.54.43-.45.16.06.28.17.43.24l.12.05a.92.92,0,0,0,.57.06Z" transform="translate(-13.99 -0.41)"/><path class="cls-147" d="M27.31,23.36c-.5-.11-.53-.21-.2-.73.14-.23.23-.57.62-.31C27.84,22.77,27.53,23.05,27.31,23.36Z" transform="translate(-13.99 -0.41)"/><path class="cls-148" d="M27.31,23.36c0-.39.36-.66.42-1,.16,0,.2.15.31.21-.05.24-.18.48,0,.72a.18.18,0,0,1-.13.15.31.31,0,0,1-.13,0c-.24,0-.11.25-.25.31s-.2-.08-.22-.22Z" transform="translate(-13.99 -0.41)"/><path class="cls-149" d="M29,21.59c.29,0,.35.18.21.42H29c-.18,0-.52.13-.5-.23S28.8,21.64,29,21.59Z" transform="translate(-13.99 -0.41)"/><path class="cls-150" d="M29.49,25.44v-.11c-.16-.33.09-.42.31-.52s.55-.15.83-.1h.11c0,.17-.12.18-.22.23-.31.18,0,.4,0,.6l0,.07,0,.05c-.33-.15-.13.27-.3.29s-.31.05-.42-.1a.42.42,0,0,0,.13-.36c0-.29-.14-.12-.24,0Z" transform="translate(-13.99 -0.41)"/><path class="cls-151" d="M29.59,25.44c0-.14,0-.33.15-.34s.23.2.25.34a.34.34,0,0,1-.29.41Z" transform="translate(-13.99 -0.41)"/><path class="cls-122" d="M31.36,25.44c0,.27-.19.32-.41.31a.23.23,0,0,1-.18-.15c0-.23-.21-.55.26-.55A.84.84,0,0,1,31.36,25.44Z" transform="translate(-13.99 -0.41)"/><path class="cls-152" d="M30.84,25.64l.11.11c-.11.37-.33.16-.52.1a.14.14,0,0,1,0-.21h0A.3.3,0,0,1,30.84,25.64Z" transform="translate(-13.99 -0.41)"/><path class="cls-153" d="M30.43,25.64v.21c-.08.12-.2.1-.31.1C30.21,25.84,29.88,25.3,30.43,25.64Z" transform="translate(-13.99 -0.41)"/><path class="cls-154" d="M31.36,25.44c-.13-.08-.31-.11-.31-.31l.06,0a.56.56,0,0,0,.3-.14l.06,0c.15.11.08.27.1.41Z" transform="translate(-13.99 -0.41)"/><path class="cls-155" d="M27.93,23.36l.11-.11a1.31,1.31,0,0,1,1.2-1c.41,0,.63.32,1,.36v.52c-.2.05-.26-.13-.36-.23-.46-.44-.68-.47-1.23-.1A.9.9,0,0,0,28.47,24a.23.23,0,0,1,0,.28c-.25-.09-.35-.34-.52-.52A.38.38,0,0,1,27.93,23.36Z" transform="translate(-13.99 -0.41)"/><path class="cls-156" d="M28.56,22.73a.84.84,0,0,1,1.29,0c.13.13.25.28.37.42a4.23,4.23,0,0,1-.1.94c-.12.14-.16.41-.45.3a.44.44,0,0,1,0-.48.75.75,0,0,0-.09-.94.73.73,0,0,0-.6-.19.64.64,0,0,1-.41,0Z" transform="translate(-13.99 -0.41)"/><path class="cls-157" d="M29.7,24.39l.42-.3c.12.51.12.51-.63.52a.08.08,0,0,1-.12,0C29.4,24.4,29.52,24.34,29.7,24.39Z" transform="translate(-13.99 -0.41)"/><path class="cls-158" d="M29.39,24.61h.1v.2c-.32-.12-.77.06-.93-.42C28.89,24.27,29.13,24.46,29.39,24.61Z" transform="translate(-13.99 -0.41)"/><path class="cls-158" d="M29.8,24.81c-.15.15-.36.25-.31.52h-.1a.86.86,0,0,1,.1-.52Z" transform="translate(-13.99 -0.41)"/><path class="cls-154" d="M30.84,25.64h-.41v-.1c.18-.24-.08-.48,0-.72.11,0,.23,0,.31-.11l.1-.11.06,0c.11.14.29.26.15.48h0C30.58,25.14,31,25.49,30.84,25.64Z" transform="translate(-13.99 -0.41)"/><path class="cls-154" d="M30.84,24.6c.38-.23.53,0,.63.32h0c-.28,0-.42-.19-.62-.31Z" transform="translate(-13.99 -0.41)"/><path class="cls-159" d="M19.32,27.62,19.11,27a.27.27,0,0,1,.28.09,4.82,4.82,0,0,0,1.37.56.9.9,0,0,1,.56.55,1.16,1.16,0,0,0,1,.82,1.1,1.1,0,0,1,.64.41c.14.17.41.33.51.11.25-.58.73-.47,1.18-.51.14,0,.25.08.21.26-.43.08-.88.13-.69.78a.36.36,0,0,1-.28.4c-.44,0-.87.47-1.34,0-.2-.19-.46.08-.7,0a.81.81,0,0,1-.73-.83c.19-.12.4-.25.41-.49s0-.57-.38-.31a.32.32,0,0,1-.46-.06c-.19-.35-.79-.45-.65-1A.67.67,0,0,0,19.32,27.62Z" transform="translate(-13.99 -0.41)"/><path class="cls-159" d="M26.27,28.45v.31a2.36,2.36,0,0,1-.38.1c-.28,0-.47.07-.55.38s-.25.32-.41,0c0-.15,0-.31-.12-.43-.41-.08-.87,0-1.18-.4a.23.23,0,0,1,0-.21c.1-.06.2,0,.29,0a1.65,1.65,0,0,0,2-.49,1.22,1.22,0,0,1,.72-.45.35.35,0,0,1,.14.06.2.2,0,0,1,0,.21,8.2,8.2,0,0,1-1,.85C26,28.45,26.16,28.32,26.27,28.45Z" transform="translate(-13.99 -0.41)"/><path class="cls-160" d="M21.08,29.69a2,2,0,0,0,.73.83c-.32.16-.63.34-.92-.08a.41.41,0,0,0-.53,0c-.41.25-.43,0-.42-.29C20.35,30,20.67,29.73,21.08,29.69Z" transform="translate(-13.99 -0.41)"/><path class="cls-161" d="M24.93,28.76c.1.17.29.34,0,.52h-.11a.36.36,0,0,0-.21-.21c-.14,0-.14-.08-.09-.14S24.72,28.64,24.93,28.76Z" transform="translate(-13.99 -0.41)"/><path class="cls-159" d="M19.56,28.38c-.07,0-.12-.08-.09-.15a.11.11,0,0,1,.16-.07s.07.08.06.11S19.63,28.38,19.56,28.38Z" transform="translate(-13.99 -0.41)"/><path class="cls-162" d="M18.28,27.2c0-.08,0-.22.06-.23.25-.09.27.15.31.28s.3.5.06.71-.19-.18-.32-.24,0-.24-.11-.31h0Z" transform="translate(-13.99 -0.41)"/><path class="cls-163" d="M17.14,26.58v-.11c.27-.46.51-.07.76,0,.05.05.1.1.07.18-.22,0-.49-.08-.62.21h-.11C17.24,26.77,17.26,26.65,17.14,26.58Z" transform="translate(-13.99 -0.41)"/><path class="cls-164" d="M18,26.68l-.1-.1c-.22-.17-.13-.28.06-.37a.38.38,0,0,1,.15,0c.18.07.36.15.41.37v.1H18Z" transform="translate(-13.99 -0.41)"/><path class="cls-165" d="M18.28,27.41c0,.12.06.28-.14.38,0-.17-.25-.37.14-.38Z" transform="translate(-13.99 -0.41)"/><path class="cls-166" d="M18.49,26.58l-.42-.31c0-.25,0-.25.41-.24h.37a1.18,1.18,0,0,0,.61-.16c.13-.07.23-.21.4-.12a.29.29,0,0,1,0,.22.81.81,0,0,1-.41.48,1.8,1.8,0,0,1-.8,0Z" transform="translate(-13.99 -0.41)"/><path class="cls-167" d="M18.69,26.48c.26-.21.56-.06.84-.11a.07.07,0,0,1,.11,0,3.12,3.12,0,0,1,.15.39.38.38,0,0,1-.47.36L19.11,27Z" transform="translate(-13.99 -0.41)"/><path class="cls-168" d="M17.87,27.1c0,.24.08.51-.15.72,0-.24-.24-.53.15-.72Z" transform="translate(-13.99 -0.41)"/><path class="cls-169" d="M16.93,27.2c.25-.15.33,0,.32.21a.26.26,0,0,1-.11.21C16.86,27.58,17,27.37,16.93,27.2Z" transform="translate(-13.99 -0.41)"/><path class="cls-137" d="M18.9,21.49a1.44,1.44,0,0,1-.07.5c-.08.24,0,.35.28.33s.23.23.29.39a1.62,1.62,0,0,0,0,.2c.21.56.18.62-.44.67-.16,0-.19.07-.19.19a.27.27,0,0,1-.41,0,2.65,2.65,0,0,0,0-1.4A.89.89,0,0,1,18.9,21.49Z" transform="translate(-13.99 -0.41)"/><path class="cls-170" d="M18.39,23.77c.14,0,.3.05.41-.1.83-.29,1.64.41,1.66,1.42-.11.36-.08.81-.62.86v-.2c-.11-.1-.06-.22-.05-.34.11-.92-.16-1.25-1.11-1.39a1.16,1.16,0,0,1-.45-.08l-.05-.06A.24.24,0,0,1,18.39,23.77Z" transform="translate(-13.99 -0.41)"/><path class="cls-171" d="M17.66,23.57a1.1,1.1,0,0,1,.41-.42c.54.33-.06.49-.1.73a.25.25,0,0,1,0,.07c-.23.21-.44.47-.8.26C17.07,23.8,17.42,23.73,17.66,23.57Z" transform="translate(-13.99 -0.41)"/><path class="cls-170" d="M18,23.88h.21c.07.12,0,.22-.05.31a.47.47,0,0,1-.1.1c-.26.14-.23.42-.29.65a.36.36,0,0,1-.1.11c-.16,0-.23-.1-.28-.23-.07-.49.32-.69.61-.94Z" transform="translate(-13.99 -0.41)"/><path class="cls-172" d="M26.27,28.45c-.23,0-.48.39-.63.13s.28-.41.46-.48.25-.65.69-.48a.13.13,0,0,1,0,.2c0,.24-.35.26-.31.52Z" transform="translate(-13.99 -0.41)"/><path class="cls-173" d="M28.14,24.3c.19.48.86.57.94,1.14-.66-.09-.67.46-.82.86-.06.14,0,.35-.22.38a.27.27,0,0,1-.33,0,.62.62,0,0,1-.08-.51A4.84,4.84,0,0,0,28.14,24.3Z" transform="translate(-13.99 -0.41)"/><path class="cls-174" d="M27.73,26.68H28a1.21,1.21,0,0,1-1.25,1.14v-.41c.13-.34.54-.44.66-.78A.24.24,0,0,1,27.73,26.68Z" transform="translate(-13.99 -0.41)"/><path class="cls-175" d="M28.14,24.3a2.08,2.08,0,0,1-.41,1.86.32.32,0,0,0-.45-.21.36.36,0,0,1,0-.47c.42-.46.19-.89,0-1.4a.48.48,0,0,0,0,.36,1.59,1.59,0,0,1,.06.3c0,.25,0,.51-.38.43-.18-.12,0-.37-.18-.51a5.22,5.22,0,0,1-1.34.94,1.24,1.24,0,0,1-.54-.11c-.24-.34,0-.4.27-.48.6-.16.66-.31.35-.93a.24.24,0,0,1,.16-.3c.22.25.57.18.85.32s.28-.15.33-.31.22-.37.48-.33l.21.21c.2,0,.18-.23.31-.31h.1c.11.14,0,.28,0,.41S27.9,24.19,28.14,24.3Z" transform="translate(-13.99 -0.41)"/><path class="cls-176" d="M29.39,24.61c-.31.05-.55-.15-.83-.22l-.1-.1c-.34-.54-.46-1.07.1-1.56h0c.14.2,0,.36-.06.54s0,.51.33.53.23.29.45.35a4.28,4.28,0,0,0,.31-.69.44.44,0,0,0,0-.37.28.28,0,0,1,.09-.26A.84.84,0,0,1,29.82,24a.67.67,0,0,0-.12.44Z" transform="translate(-13.99 -0.41)"/><path class="cls-75" d="M24.09,31.25l.84-.31C24.88,31.53,24.84,31.55,24.09,31.25Z" transform="translate(-13.99 -0.41)"/><path class="cls-177" d="M17.66,23.57l-.52.62s-.07,0-.1,0c-.36-.11-.23-.4-.18-.6s.29-.12.45-.11A2.25,2.25,0,0,1,17.66,23.57Z" transform="translate(-13.99 -0.41)"/><path class="cls-178" d="M18,26.27c-.17.06-.19.17-.1.31-.26,0-.43-.47-.73-.11v-.1a.62.62,0,0,0,.1-.73c.12-.07.23,0,.34,0s.26.33.41.47A.11.11,0,0,1,18,26.27Z" transform="translate(-13.99 -0.41)"/><path class="cls-179" d="M17.56,25.75l-.32-.11a1.57,1.57,0,0,0-.1-.83c-.07-.1-.06-.19.06-.23s.17.15.25.23l.21.21a.29.29,0,0,1,.07.22A.94.94,0,0,1,17.56,25.75Z" transform="translate(-13.99 -0.41)"/><path class="cls-180" d="M17.45,24.81c-.1,0-.21-.39-.31,0-.19-.18-.07-.41-.1-.62h.1c.36.11.53-.28.83-.31C17.78,24.18,17.41,24.38,17.45,24.81Z" transform="translate(-13.99 -0.41)"/><path class="cls-181" d="M23,20.45c.49-.13.45-.57.46-.91s.12-.37.33-.31.51.36.81.49c.15.06,0,.26-.19.31S24,20,24,20.27a.35.35,0,0,0,.53.24c.3-.17.33-.1.33.22s.22.32.47.36c.43.07.73.3.6.82-.24.14-.48,0-.72,0s-.17-.3-.32-.4-.44-.29-.71,0a1.09,1.09,0,0,1-1.73-.15c0-.07-.06-.16-.22-.17.11.3.63.46.36.85a.53.53,0,0,1-.64.18,1.9,1.9,0,0,1-.63-1.36c0-.37.07-.53.46-.41Z" transform="translate(-13.99 -0.41)"/><path class="cls-182" d="M21.81,20.45c-.27,0-.32.05-.32.42,0,.57.39.89.53,1.35a.11.11,0,0,1,0,.08s0,0,0,0-.23.11-.26.25a.47.47,0,0,1-.07.12c-.37.27-.08.7-.23,1s-.3.62-.73.61c-.32-.36-.63-.73-1-1.09a.58.58,0,0,1-.11-.62.7.7,0,0,1,.73-.27.71.71,0,0,0,.88-.43c.17-.39-.14-.6-.36-.82a1.06,1.06,0,0,1-.15-.15c-.2-.39,0-.59.36-.61S21.61,20.26,21.81,20.45Z" transform="translate(-13.99 -0.41)"/><path class="cls-183" d="M20.77,21a.93.93,0,0,1,.73.85.86.86,0,0,1-.93.7,1.22,1.22,0,0,0-.84.11c-.1.17-.23.25-.41.11l-.21-.42c.33-.19.55-.62,1.07-.35.18.1.39-.12.32-.42S20.39,21,20.77,21Z" transform="translate(-13.99 -0.41)"/><path class="cls-137" d="M25.65,23.78l-.1.31-.1.1c-.36.27-.61.72-1.16.65-.09,0-.19.09-.24.18-.28.57-.81.48-1.3.5-.19,0-.38-.09-.37-.28,0-.43-.31-.53-.6-.68s-.16-.5-.13-.77c.3-.34.68-.61,1-1,.16,0,.33-.11.48,0a.33.33,0,0,1-.1.23.47.47,0,0,0-.14.6.51.51,0,0,0,.59.3,2.59,2.59,0,0,1,.62,0c.39,0,.54-.27.37-.61s-.48-.75-1-.52a.29.29,0,0,1-.24,0,1.66,1.66,0,0,1,.95-.7c.22,0,.31.21.37.4a1.5,1.5,0,0,0,.28.6c.19.2.31.52.7.36.07,0,.14.07.19.14Z" transform="translate(-13.99 -0.41)"/><path class="cls-184" d="M23.06,22.84c-.14,0-.28.1-.42,0-.06-.38.19-.52.5-.56a1.12,1.12,0,0,0,.8-.39l.13-.07c.15,0,.34-.08.34.19.21.2.32.74.75.19.11-.15.88.34.89.55s-.11.2-.24.19-.34-.16-.44.08,0,.35.2.47.06.12.08.18a.84.84,0,0,0-.14-.06c-.21,0-.5.49-.66-.12-.06-.28-.43-.4-.46-.77s-.23-.55-.63-.21c-.18.16-.5,0-.6.33A.07.07,0,0,1,23.06,22.84Z" transform="translate(-13.99 -0.41)"/><path class="cls-145" d="M21.71,22.63v-.1c.06-.13.22-.11.31-.21v-.1l.09,0c.16-.1.47,0,.48-.3s-.18-.36-.38-.44-.22-.14-.16-.28a.27.27,0,0,1,.34-.16.3.3,0,0,1,.17.09c0,.58.49.54.87.66a.46.46,0,0,0,.63-.25c.13-.2.4-.48.57-.34s.75.24.61.76c-.18,0-.27-.15-.42-.21s-.24-.26-.4-.08a3,3,0,0,1-.43.29,7.85,7.85,0,0,0-1.8.74A.38.38,0,0,1,21.71,22.63Z" transform="translate(-13.99 -0.41)"/><path class="cls-144" d="M24,21.91a1.06,1.06,0,0,1,.42-.42c.25-.14.38-.07.41.21-.4-.25-.24.25-.41.31C24.3,21.86,24.13,21.92,24,21.91Z" transform="translate(-13.99 -0.41)"/><path class="cls-145" d="M25.24,21.91c.24-.09.48,0,.72,0C25.72,22.26,25.48,22,25.24,21.91Z" transform="translate(-13.99 -0.41)"/><path class="cls-185" d="M27.83,23.36c0,.16.06.36-.13.45s-.14-.06-.18-.14,0-.2,0-.3,0-.27.13-.27S27.82,23.24,27.83,23.36Z" transform="translate(-13.99 -0.41)"/><path class="cls-186" d="M30.43,24.82c.12.24.45.48,0,.72C30.4,25.3,30,25.06,30.43,24.82Z" transform="translate(-13.99 -0.41)"/><path class="cls-187" d="M30.84,24.61c.29-.06.42.2.62.31,0,.37-.17.33-.41.2Z" transform="translate(-13.99 -0.41)"/><path class="cls-188" d="M29.7,22.84v.31c-.18.06-.44-.32-.56.1a1.13,1.13,0,0,0-.37.63c-.34,0-.38-.07-.42-.62a1.63,1.63,0,0,0,.63-.62A1.1,1.1,0,0,1,29.7,22.84Z" transform="translate(-13.99 -0.41)"/><path class="cls-189" d="M29,22.64c-.08.33-.13.7-.63.62l.21-.52Z" transform="translate(-13.99 -0.41)"/><path class="cls-190" d="M19.32,27.1c.15-.13.38-.17.41-.42a2.5,2.5,0,0,0,.35-.56c.34-.14.28.47.47.33s.45,0,.66,0,.53.15.78-.07.24-.24.4-.1.06.27,0,.41,0,.17,0,.26-.07.4-.07.61.1.3.28.37.29.66.76.51c.11,0,.22-.09.34,0,.38.26.83.19,1.25.31-.17,0-.36.06-.32.31-.17.18-.39.08-.58.1s-.28,0-.35.21c-.17.49-.54.57-.84.16a.9.9,0,0,0-.76-.41.93.93,0,0,1-.76-.61c-.23-.92-1-.85-1.66-1.09C19.47,27.35,19.29,27.36,19.32,27.1Z" transform="translate(-13.99 -0.41)"/><path class="cls-191" d="M26.9,25.12c.41,0,.32-.25.27-.49s-.27-.66.09-.77.22.39.31.6.29.72-.13,1c-.16.12-.13.31-.13.49a.78.78,0,0,1,.11.72c.09.5-.4.5-.63.73h-.1c-.12-.16,0-.3,0-.45a1.7,1.7,0,0,0,.3-1.05c0-.12.11-.26,0-.37s-.21,0-.3.08l-.18.21a2.53,2.53,0,0,0-.38.6c-.12.2-.19.48-.52.45-.14-.28.1-.48.14-.73C26,25.65,26.25,25.18,26.9,25.12Z" transform="translate(-13.99 -0.41)"/><path class="cls-192" d="M26.79,27l-.1.42c-.48.08-.67.54-1,.79a1.56,1.56,0,0,1-1.76.15c.16-.18.38-.14.58-.14A1.35,1.35,0,0,0,25.3,28a3.9,3.9,0,0,0,.78-.61l.15-.15a2.58,2.58,0,0,0,.36-.6.36.36,0,0,1,.22-.18.13.13,0,0,1,.12.07C27,26.7,26.83,26.83,26.79,27Z" transform="translate(-13.99 -0.41)"/><path class="cls-193" d="M25.44,28c-.45.46-1,.28-1.55.32l-.21-.1c-.18,0-.32,0-.33-.23a.36.36,0,0,1,.3-.07l.22.08c.42.19.8,0,1.19-.11A.44.44,0,0,1,25.44,28Z" transform="translate(-13.99 -0.41)"/><path class="cls-194" d="M23.36,28l.32.22v.2l-.31.1c-.27,0-.31-.22-.39-.4a.29.29,0,0,1,.05-.22A.24.24,0,0,1,23.36,28Z" transform="translate(-13.99 -0.41)"/><path class="cls-195" d="M17.66,25.23v-.31a.09.09,0,0,1,.12,0c.12.14.15.34.28.47a.7.7,0,0,1,.13.24c0,.24.33.3.3.55-.12.09-.35-.21-.42.11H18v-.11A1.13,1.13,0,0,1,17.66,25.23Z" transform="translate(-13.99 -0.41)"/><path class="cls-196" d="M25.86,26.16c.06.28-.27.45-.21.73,0,.09,0,.13-.11.1a1.76,1.76,0,0,1-.24-.42c0-.16,0-.31,0-.49-.18.15-.1.33-.1.49-.18.41.25.31.38.46,0,.26-.24.32-.45.38s-.52,0-.78.07a.33.33,0,0,1-.22,0,.14.14,0,0,1-.05-.08c0-.12.12-.31-.06-.35s-.13.22-.23.31c-.42.13-.5-.38-.81-.45s-.35,0-.51.14a.16.16,0,0,1-.13,0c-.09-.15-.27-.3,0-.44.07,0,.06-.12,0-.18a.1.1,0,0,0-.17,0,.73.73,0,0,1-1,.23c-.15-.05-.5-.34-.64.14,0,.09-.3-.06-.28-.24s0-.34-.22-.35c-.09.17-.21.29-.42.21h-.1l.31-.42c.33-.17.4-.52.52-.82.21,0,.19.39.46.34s.75,0,1.14,0,.71.48,1.06.74c.06,0,.08.15.21.2-.08-.29-.05-.53.32-.53a.16.16,0,0,0,.13-.07c.26-.66.76-.47,1.25-.36a.76.76,0,0,1,.51.1C25.79,25.61,25.65,26,25.86,26.16Z" transform="translate(-13.99 -0.41)"/><path class="cls-197" d="M18.7,23.88c1.15.18,1.45.67,1.14,1.87l-.31.21a.31.31,0,0,1-.06-.13A3.72,3.72,0,0,0,19.7,25a.61.61,0,0,0-.17-.42c-.41-.48-.87-.36-1.34-.11a.21.21,0,0,1-.14,0,.14.14,0,0,1,0-.2h0C18.2,23.92,18.49,24,18.7,23.88Z" transform="translate(-13.99 -0.41)"/><path class="cls-198" d="M18.49,26.16c-.14-.17-.43-.22-.41-.52.36-.12.57.25.89.27.1.12,0,.19-.06.25Z" transform="translate(-13.99 -0.41)"/><path class="cls-199" d="M18.91,26.16,19,26l0-.06a.51.51,0,0,1,.31-.13.19.19,0,0,1,.17.08V26A1,1,0,0,1,18.91,26.16Z" transform="translate(-13.99 -0.41)"/><path class="cls-200" d="M19.63,26.37l.42-.21c.17.35,0,.45-.32.52S19.57,26.51,19.63,26.37Z" transform="translate(-13.99 -0.41)"/><path class="cls-201" d="M20.77,25.64c-.34,0-.28-.33-.41-.51a1.41,1.41,0,0,0-1.56-1.46c-.07,0-.16,0-.19,0s0-.14.09-.16.2,0,.3,0c.29,0,.78.07.27-.44-.08-.09,0-.19.05-.28a.72.72,0,0,0,.41-.11.74.74,0,0,0,.25.7,2.7,2.7,0,0,1,.79,1c0,.08,0,.14,0,.2a.48.48,0,0,0-.07.58,1.49,1.49,0,0,1,.18.3A.3.3,0,0,1,20.77,25.64Z" transform="translate(-13.99 -0.41)"/><path class="cls-202" d="M18.7,23.88l-.62.31.1-.31Z" transform="translate(-13.99 -0.41)"/><path class="cls-202" d="M18.08,24.19v.2a.85.85,0,0,1-.31.53h-.1C17.65,24.59,17.62,24.25,18.08,24.19Z" transform="translate(-13.99 -0.41)"/><path class="cls-203" d="M27.42,26.68c-.2-.22-.07-.48-.11-.72a.82.82,0,0,0,.11-.17c0-.1.07-.21.18-.2s.12.17.13.27v.82Z" transform="translate(-13.99 -0.41)"/><path class="cls-204" d="M20.77,25.64v-.31c0-.07,0-.13,0-.2s-.05-.43.15-.51.29.18.4.32a.78.78,0,0,0,.27.24c.19-.2-.09-.55.24-.68.38.09.77.16.65.71,0,.05.08.16.14.19a1.94,1.94,0,0,0,1.27-.35c.18-.27.37-.48.75-.36.2.06.31-.13.4-.27s.2-.32.42-.33c0,.35.07.73-.2,1-.38,0-.4.06-.31.32s-.13.16-.29.09c-.33-.14-.68-.25-.77.3,0,.07-.11.19-.15.19-.47-.07-.53.09-.27.46,0,.05,0,.16-.08.15s-.37,0-.39-.18c-.05-.46-.6-.43-.72-.81a.21.21,0,0,0-.18-.08A8.16,8.16,0,0,1,20.77,25.64Z" transform="translate(-13.99 -0.41)"/><path class="cls-205" d="M25.86,26.16c-.52.05-.17-.48-.42-.62.34-.41.92-.52,1.18-1a.19.19,0,0,1,.22-.09.25.25,0,0,1,.16.24.74.74,0,0,1-.1.44A2.15,2.15,0,0,0,25.86,26.16Z" transform="translate(-13.99 -0.41)"/><path class="cls-146" d="M25.24,25.12c.12-.33-.11-.74.2-1h.11a.49.49,0,0,1,.28.58C25.74,24.91,25.58,25.16,25.24,25.12Z" transform="translate(-13.99 -0.41)"/><path class="cls-206" d="M28.77,23.88c-.24-.38,0-.5.31-.62.2.07.42.11.62.2-.07.2-.15.38-.2.58s-.05.32-.24.34-.22-.15-.26-.27S28.92,23.88,28.77,23.88Z" transform="translate(-13.99 -0.41)"/><path class="cls-207" d="M29.7,23.46c-.25.07-.48.07-.62-.2,0-.14-.07-.33.14-.4s.33.17.48.29A.27.27,0,0,1,29.7,23.46Z" transform="translate(-13.99 -0.41)"/><path class="cls-142" d="M17.66,25.23c0,.34.32.58.31.93-.3,0-.26-.29-.41-.41C17.58,25.57,17.49,25.37,17.66,25.23Z" transform="translate(-13.99 -0.41)"/><path class="cls-144" d="M21.71,22.63a1.82,1.82,0,0,0,1-.4A2,2,0,0,1,24,21.91a.6.6,0,0,1-.67.48.6.6,0,0,0-.68.45,1.85,1.85,0,0,1-.93.94c-.15.1-.25,0-.31-.11.12-.26-.25-.52,0-.79C21.52,22.79,21.54,22.64,21.71,22.63Z" transform="translate(-13.99 -0.41)"/><path class="cls-208" d="M21.4,23.67l.31.11c.1.23-.07.5.1.72-.11.15,0,.3,0,.44s.08.39-.1.46-.29-.15-.4-.26a2.31,2.31,0,0,1-.32-.49c-.2.22,0,.52-.2.68a.33.33,0,0,1-.2-.2c.11-.24,0-.5.1-.73l.1-.11C21.12,24.23,21.19,23.89,21.4,23.67Z" transform="translate(-13.99 -0.41)"/><path class="cls-181" d="M22,22.32a.31.31,0,0,1-.31.21C21.63,22.18,21.91,22.38,22,22.32Z" transform="translate(-13.99 -0.41)"/><path class="cls-209" d="M23.06,22.84h.1l.15,0c.81-.22,1.13,0,1.38.72.1.32-.29.72-.66.64a1.58,1.58,0,0,0-.75,0c-.3.07-.46-.22-.58-.43a.47.47,0,0,1,.1-.65C22.9,23,23,23,23.06,22.84Z" transform="translate(-13.99 -0.41)"/><path class="cls-210" d="M21.36,27.18a.38.38,0,0,1,.43.34.73.73,0,0,0,.18.42c.1.1.23.23.08.34s-.28,0-.36-.14-.25-.48-.52-.62a.19.19,0,0,1,0-.28A.16.16,0,0,1,21.36,27.18Z" transform="translate(-13.99 -0.41)"/><path class="cls-211" d="M23.06,28.14l.31.41c-.57.29-.64-.21-.83-.52-.09-.11-.05-.19.06-.25C22.88,27.74,22.94,28,23.06,28.14Z" transform="translate(-13.99 -0.41)"/><path class="cls-212" d="M22.64,27.82a.23.23,0,0,0-.1.21c-.27,0-.55,0-.31-.41.12-.12.06-.32.19-.43a.24.24,0,0,1,.26.07.41.41,0,0,1,.13.25A.38.38,0,0,1,22.64,27.82Z" transform="translate(-13.99 -0.41)"/><path class="cls-213" d="M22.43,27.2c0,.18,0,.34-.2.42,0-.21-.33-.48.1-.63h.1A.14.14,0,0,1,22.43,27.2Z" transform="translate(-13.99 -0.41)"/><path class="cls-214" d="M24.09,27.41h.21c.27-.14.57,0,.83-.1s.34-.13.42-.32h0l.1-.1c.42-.28.38-.89.83-1.14l.05.05a.77.77,0,0,1-.07.42,3.9,3.9,0,0,1-.58,1,.44.44,0,0,1-.11.09,4.1,4.1,0,0,0-.4.29l-.14.06c-.28,0-.55.1-.83.12a.58.58,0,0,1-.52-.18.18.18,0,0,1,0-.16A.16.16,0,0,1,24.09,27.41Z" transform="translate(-13.99 -0.41)"/><path class="cls-214" d="M26.79,27l.11-.52v-.06c0-.16,0-.33-.09-.46s-.23-.1-.31-.2h0l.11-.21c.31-.13.5-.05.52.31S27.18,26.69,26.79,27Z" transform="translate(-13.99 -0.41)"/><path class="cls-215" d="M27.11,25.85a.49.49,0,0,0-.52-.31c.15-.14.31-.29.52-.12A.27.27,0,0,1,27.11,25.85Z" transform="translate(-13.99 -0.41)"/><path class="cls-216" d="M25.76,27.2l.62-1a.1.1,0,0,1,.12,0,.66.66,0,0,1,.15.22c.06.1,0,.22,0,.32-.12.22-.15.49-.4.62C26.12,27.17,25.91,27.33,25.76,27.2Z" transform="translate(-13.99 -0.41)"/><path class="cls-217" d="M25.44,28H25c-.11-.09-.29-.08-.34-.25.13-.28.46-.13.65-.27h0a.32.32,0,0,1,.19-.07c.21.06.41-.19.64,0A2,2,0,0,1,25.44,28Z" transform="translate(-13.99 -0.41)"/><path class="cls-218" d="M26.17,27.41c-.22-.05-.38.31-.62.1-.07-.19.13-.21.2-.31h0c.14.16.46-.55.52.1Z" transform="translate(-13.99 -0.41)"/><path class="cls-219" d="M26.48,26.16h-.1c0-.14.07-.27.11-.41.14,0,.3-.05.41.1a.83.83,0,0,1,0,.62h-.1a.24.24,0,0,1-.11-.15A.18.18,0,0,0,26.48,26.16Z" transform="translate(-13.99 -0.41)"/><path class="cls-220" d="M26.79,26.26v.21l-.12.21c-.11-.07-.09-.2-.09-.31S26.68,26.22,26.79,26.26Z" transform="translate(-13.99 -0.41)"/><path class="cls-221" d="M22.74,27.53l-.12-.23a.3.3,0,0,1,.18-.46c.3,0,.46.19.62.41s.22.21.16.39c-.22.14-.35,0-.47-.14.08.28.54.18.57.53h-.32l-.3-.11C22.83,27.89,22.81,27.69,22.74,27.53Z" transform="translate(-13.99 -0.41)"/><path class="cls-222" d="M23.68,28a2.58,2.58,0,0,1-.93-.83c.39.05.47.52.83.42s.45.09.65.21c.05.4-.27.24-.45.3Z" transform="translate(-13.99 -0.41)"/><path class="cls-223" d="M23.78,28.13c.1-.17.42,0,.42-.3a.2.2,0,0,1,.13-.09.42.42,0,0,1,.39.08c.15,0,.3,0,.31.21A1.35,1.35,0,0,1,23.78,28.13Z" transform="translate(-13.99 -0.41)"/><path class="cls-190" d="M22.74,27.53l.32.39v.22l-.42-.32Z" transform="translate(-13.99 -0.41)"/><path class="cls-224" d="M19,26c-.39.11-.62-.23-.93-.32L18,25.43c0-.22-.3-.43,0-.67a.25.25,0,0,1,.29.08c.12.47.57.71.79,1.11Z" transform="translate(-13.99 -0.41)"/><path class="cls-225" d="M18,24.81c-.23.21.07.41,0,.62a.6.6,0,0,1-.21-.51.72.72,0,0,1,.31-.53h0C18.2,24.59,18.08,24.7,18,24.81Z" transform="translate(-13.99 -0.41)"/><path class="cls-226" d="M25.13,26.58c-.21-.28-.08-.51.09-.74.05-.06.15-.08.18,0a.88.88,0,0,1-.06.74A.15.15,0,0,1,25.13,26.58Z" transform="translate(-13.99 -0.41)"/><path class="cls-227" d="M24.09,27.41h-.2c-.1,0-.13,0-.11-.1s-.18-.3,0-.44a.31.31,0,0,1,.41.06C24.41,27.14,24.15,27.25,24.09,27.41Z" transform="translate(-13.99 -0.41)"/><path class="cls-228" d="M25.13,26.58h.21c.28,0,.19.25.21.41H25.5c-.17,0-.37.21-.51,0S25.08,26.73,25.13,26.58Z" transform="translate(-13.99 -0.41)"/><path class="cls-229" d="M23.78,27.31l.11.1v.1c-.24.12-.37-.07-.52-.19a1.18,1.18,0,0,0-.52-.44c0-.09,0-.14.1-.1C23.37,26.74,23.39,27.32,23.78,27.31Z" transform="translate(-13.99 -0.41)"/><path class="cls-190" d="M23,26.78l-.1.1c-.19.08-.22.24-.23.42l-.19-.1V27C22.54,26.77,22.65,26.54,23,26.78Z" transform="translate(-13.99 -0.41)"/><path class="cls-230" d="M25.13,27.31c-.25.2-.55.05-.83.1C24.56,27.2,24.86,27.35,25.13,27.31Z" transform="translate(-13.99 -0.41)"/><path class="cls-231" d="M19.63,24.51a.5.5,0,0,1,.2.41c-.2.13-.13.45-.38.55-.22-.11-.52.08-.68-.22,0-.06.1-.12.06-.16s-.1.05-.16.06a.65.65,0,0,1-.42-.24c0-.14.12-.21.17-.31.28-.51.51-.56,1-.19C19.48,24.46,19.54,24.52,19.63,24.51Z" transform="translate(-13.99 -0.41)"/><path class="cls-232" d="M19.63,24.51c-.07.3-.18.15-.3,0-.36-.37-.54-.34-.74.14-.07.15-.25.12-.31.25a.07.07,0,0,1-.1,0,.24.24,0,0,0-.21-.11c0-.14.07-.27.11-.41C18.74,23.92,19.16,24,19.63,24.51Z" transform="translate(-13.99 -0.41)"/><path class="cls-233" d="M19.42,25.44c.18-.14,0-.53.41-.52a1.65,1.65,0,0,1-.31.93h-.2A.24.24,0,0,1,19.42,25.44Z" transform="translate(-13.99 -0.41)"/><path class="cls-234" d="M19.42,25.44a.66.66,0,0,0-.1.41L19,26a1.42,1.42,0,0,1-.83-1h.1c.2,0,.3.09.42.2s.13,0,.1.11C19,25.48,19.32,25.06,19.42,25.44Z" transform="translate(-13.99 -0.41)"/><path class="cls-235" d="M20.67,24.4c.08.26.27.53-.1.73C20.4,24.85,20.37,24.6,20.67,24.4Z" transform="translate(-13.99 -0.41)"/><path class="cls-236" d="M23.37,27.32l.52.19a1.1,1.1,0,0,0,.51.13c0,.09,0,.14-.1.18h-.1l-.62-.21C23.52,27.51,23.36,27.47,23.37,27.32Z" transform="translate(-13.99 -0.41)"/><path class="cls-193" d="M24.3,27.82l.1-.18a3,3,0,0,1,.94-.13l-.62.31Z" transform="translate(-13.99 -0.41)"/><path class="cls-193" d="M25.75,27.2l-.2.31h-.21A.52.52,0,0,1,25.75,27.2Z" transform="translate(-13.99 -0.41)"/><path class="cls-192" d="M26.9,26.47v-.62A.46.46,0,0,1,26.9,26.47Z" transform="translate(-13.99 -0.41)"/><path class="cls-237" d="M26.79,26.26l-.2.11a.2.2,0,0,1-.11-.21c.05-.09.1-.2.22-.16S26.78,26.17,26.79,26.26Z" transform="translate(-13.99 -0.41)"/><path class="cls-232" d="M18.8,25.23l-.1-.11c0-.1,0-.26.13-.27s.22,0,.23.16S18.94,25.21,18.8,25.23Z" transform="translate(-13.99 -0.41)"/><path class="cls-238" d="M34.49,25a2,2,0,0,1-.21.91c-.14.12-.07.4-.32.44a.46.46,0,0,1-.29-.34,1,1,0,0,1,.08-.45,3.1,3.1,0,0,0,.1-.53.28.28,0,0,1,.2-.22.23.23,0,0,1,.24.21,3.68,3.68,0,0,1-.06-.66c0-.23-.07-.49.18-.66A2.39,2.39,0,0,1,34.49,25Z" transform="translate(-13.99 -0.41)"/><path class="cls-239" d="M22,35.32a4,4,0,0,1-2-.66,1.1,1.1,0,0,0-.32-.17c-.77-.19-1.11-.85-1.58-1.38a.23.23,0,0,1,.21,0c.33.1.49.38.67.64s.4.36.64.47l.19.09.12.06c.2.1.36.29.58.35l.13,0c.34.12.69.19,1,.32a1.4,1.4,0,0,1,.35.1.16.16,0,0,1,.06.13Z" transform="translate(-13.99 -0.41)"/><path class="cls-240" d="M32.52,18.35A9,9,0,0,1,34,21.91c-.17.05-.21-.09-.27-.19a2.43,2.43,0,0,0-.2-.61.83.83,0,0,1-.06-.21,1.3,1.3,0,0,0-.07-.33,2.72,2.72,0,0,1-.11-.25c-.26-.38-.37-.83-.61-1.21-.06-.21-.25-.39-.21-.64A.18.18,0,0,1,32.52,18.35Z" transform="translate(-13.99 -0.41)"/><path class="cls-241" d="M34.49,25c-.08-.43.09-.87-.11-1.28a.43.43,0,0,1-.19-.21c-.09-.15-.09-.35-.27-.44a1.69,1.69,0,0,0,0-.92A.14.14,0,0,1,34,22c.39.28.33.74.44,1.14A3.19,3.19,0,0,1,34.49,25Z" transform="translate(-13.99 -0.41)"/><path class="cls-242" d="M33.75,21.7l.21.21S34,22,34,22l0,0c-.17.26-.1.6-.29.85-.4.05-.41-.28-.5-.51a.66.66,0,0,1,.45-.7A.16.16,0,0,1,33.75,21.7Z" transform="translate(-13.99 -0.41)"/><path class="cls-243" d="M34,26.27l.32-.41c-.27.75-.05,1.66-.72,2.29l-.06,0c-.11-.24.07-.41.13-.61C33.91,27.13,33.7,26.64,34,26.27Z" transform="translate(-13.99 -0.41)"/><path class="cls-244" d="M14.85,29.38v.23c-.61-.27-.37-.81-.42-1.26a1,1,0,0,1,0-.51c.16-.09.18.05.24.14a5.08,5.08,0,0,0,.2.94A1,1,0,0,1,14.85,29.38Z" transform="translate(-13.99 -0.41)"/><path class="cls-243" d="M32.62,29.52l.09-.45a1.22,1.22,0,0,1,.14-.36l.1-.17a.49.49,0,0,0,.08-.23c0-.38.22-.43.5-.19l0,0A9.23,9.23,0,0,1,32.62,29.52Z" transform="translate(-13.99 -0.41)"/><path class="cls-245" d="M26.89,34.46a2.62,2.62,0,0,1-1.24.63c0-.05-.12-.06-.13-.15s.2-.17.33-.23l.13,0a2,2,0,0,0,.64-.27A.25.25,0,0,1,26.89,34.46Z" transform="translate(-13.99 -0.41)"/><path class="cls-246" d="M26.89,34.46l-.28,0a.12.12,0,0,1-.14,0c0-.13.07-.17.16-.22a1.33,1.33,0,0,0,.38-.18c.2-.08.37-.28.61-.14h.12C27.51,34.21,27.14,34.23,26.89,34.46Z" transform="translate(-13.99 -0.41)"/><path class="cls-247" d="M24.31,35.41a2.91,2.91,0,0,1-1.68,0c.13-.16.32-.14.5-.15h.52a1.21,1.21,0,0,1,.6.09Z" transform="translate(-13.99 -0.41)"/><path class="cls-247" d="M25.56,35l.09.1a4.45,4.45,0,0,1-1.34.32l0,0a.11.11,0,0,1,0-.12,1.63,1.63,0,0,1,.37-.13l.12,0c.2-.05.39-.13.59-.17A.18.18,0,0,1,25.56,35Z" transform="translate(-13.99 -0.41)"/><path class="cls-239" d="M23.17,35.4h-.54a1.51,1.51,0,0,1-.63-.09l0,0C22.44,35.15,22.84,35,23.17,35.4Z" transform="translate(-13.99 -0.41)"/><path class="cls-248" d="M14.46,27.82l0,.53c-.12-.15-.06-.35-.1-.52v-.39l.07,0A.27.27,0,0,1,14.46,27.82Z" transform="translate(-13.99 -0.41)"/><path class="cls-249" d="M14.13,26.48c-.19-.25-.1-.53-.11-.8a26.9,26.9,0,0,1,0-2.84.12.12,0,0,1,.16.05,8.39,8.39,0,0,1,.08,1.94,2.36,2.36,0,0,0,.09.91.91.91,0,0,1,.09.54C14.4,26.43,14.34,26.58,14.13,26.48Z" transform="translate(-13.99 -0.41)"/><path class="cls-250" d="M14.63,20c.18-.22.15-.56.4-.73s.15,0,.19.09c0,.31.06.64-.25.87-.15,0-.23-.07-.31-.16Z" transform="translate(-13.99 -0.41)"/><path class="cls-251" d="M14.13,26.48a.21.21,0,0,0,.21-.21c.09,0,.13,0,.17.09a.55.55,0,0,1,0,.22c-.13.25.1.58-.19.8a.13.13,0,0,0,0,.06A2.28,2.28,0,0,1,14.13,26.48Z" transform="translate(-13.99 -0.41)"/><path class="cls-252" d="M14.13,22.84H14a3.4,3.4,0,0,1,.18-.95l.07.06A.78.78,0,0,1,14.13,22.84Z" transform="translate(-13.99 -0.41)"/><path class="cls-252" d="M14.32,21.27l.15-.82a.09.09,0,0,1,.13.05.84.84,0,0,1,.05.54.33.33,0,0,1-.26.27Z" transform="translate(-13.99 -0.41)"/><path class="cls-252" d="M14.21,21.89a1,1,0,0,1,.11-.62l0,0c.14.24.21.46-.11.62Z" transform="translate(-13.99 -0.41)"/><path class="cls-14" d="M14.55,20.45h-.08a.56.56,0,0,1,.16-.42l0,0C14.77,20.23,14.74,20.36,14.55,20.45Z" transform="translate(-13.99 -0.41)"/><path class="cls-253" d="M27.21,14.76l.51.19,0,.09-.05.05a.37.37,0,0,1-.41-.07A.25.25,0,0,1,27.21,14.76Z" transform="translate(-13.99 -0.41)"/><path class="cls-253" d="M28.16,15.26a.71.71,0,0,1-.43-.1s-.05,0,0-.06,0,0,0,0l0,0Z" transform="translate(-13.99 -0.41)"/><path class="cls-254" d="M19.73,14.72c.2-.31.62-.12.85-.37A21.58,21.58,0,0,1,22.86,14a29.52,29.52,0,0,1,3.51.21l.23.19a.36.36,0,0,1-.39.09A10.32,10.32,0,0,0,24,14.36a.51.51,0,0,1-.17,0,1.6,1.6,0,0,0-.72-.05c-.73.07-1.42.32-2.14.35-.39,0-.69.34-1.09.3a.25.25,0,0,1-.14-.08Z" transform="translate(-13.99 -0.41)"/><path class="cls-255" d="M33.23,22.32c.13.18.12.48.42.52.1-.08.17-.05.23.06a.73.73,0,0,0,.1.67,3.55,3.55,0,0,1,.26.71.55.55,0,0,1,0,.22.45.45,0,0,1-.19.31A.23.23,0,0,0,34,25c-.13,0-.27-.12-.38,0-.11,0-.24,0-.32-.09s0-.57-.14-.83-.14-.69-.3-1-.1-.59.16-.82A.23.23,0,0,1,33.23,22.32Z" transform="translate(-13.99 -0.41)"/><path class="cls-256" d="M34,26.27a2.29,2.29,0,0,1-.21,1.34c-.11.1-.21.05-.24-.06a.65.65,0,0,0-.24-.32c-.09-.13-.15-.25,0-.38s.21-.07.13-.22a.68.68,0,0,1,0-.59c.1-.11.21-.19.36-.08Z" transform="translate(-13.99 -0.41)"/><path class="cls-257" d="M33.75,26l-.31.1c-.16.15.08.42-.18.54-.36-.23-.51-.5-.13-.86.21-.19,0-.52.2-.72.07,0,.14-.11.21,0s.2.35.31.52Z" transform="translate(-13.99 -0.41)"/><path class="cls-258" d="M33.85,25.54c-.29-.06-.24-.33-.31-.52.16-.07,0-.3.21-.36s0,.29.21.36A.86.86,0,0,1,33.85,25.54Z" transform="translate(-13.99 -0.41)"/><path class="cls-259" d="M34.16,24.5v-.21a2.26,2.26,0,0,0-.08-.5c0-.14,0-.32.19-.33a.25.25,0,0,1,.11.21c0,.24,0,.48,0,.73C34.31,24.46,34.28,24.56,34.16,24.5Z" transform="translate(-13.99 -0.41)"/><path class="cls-260" d="M34.16,24.5l.21-.1V25c-.17,0-.18-.19-.31-.2Z" transform="translate(-13.99 -0.41)"/><path class="cls-261" d="M21.6,35.17l-1-.38,0-.06c.6-.07,1.15-.36,1.76-.44.11.18.14.4.24.59a.25.25,0,0,1,0,.12c-.14.09-.31,0-.45.08S21.75,35,21.6,35.17Z" transform="translate(-13.99 -0.41)"/><path class="cls-262" d="M20.56,34.79l-.1,0a.86.86,0,0,1-.4-.44.3.3,0,0,1,.09-.28h0a.57.57,0,0,1,.22-.11c.31,0,.61,0,.77.37a.28.28,0,0,1-.12.27c-.14.09-.32.06-.45.19Z" transform="translate(-13.99 -0.41)"/><path class="cls-263" d="M23.17,35.4A3.08,3.08,0,0,0,22,35.27l0-.06a.23.23,0,0,1,.14-.1c.2,0,.41,0,.61,0s.4,0,.6,0h.43c.15,0,.3,0,.44,0s.37,0,.51.15c-.13.12-.29.07-.43.1s-.43,0-.63.1Z" transform="translate(-13.99 -0.41)"/><path class="cls-264" d="M18.88,33.75a.85.85,0,0,1,.74.53C19.33,34.17,19,34.15,18.88,33.75Z" transform="translate(-13.99 -0.41)"/><path class="cls-265" d="M20.15,34.05v.31a.27.27,0,0,1-.32,0,.15.15,0,0,1-.09,0C19.74,34.06,19.81,33.87,20.15,34.05Z" transform="translate(-13.99 -0.41)"/><path class="cls-266" d="M22.12,35.18l-.12,0-.4,0c.09-.31.34-.14.52-.18A.12.12,0,0,1,22.12,35.18Z" transform="translate(-13.99 -0.41)"/><path class="cls-267" d="M19.83,34.37h.32l.31.41C20.18,34.74,20,34.5,19.83,34.37Z" transform="translate(-13.99 -0.41)"/><path class="cls-268" d="M32.71,19.1a.53.53,0,0,1-.31-.62l.09,0C32.52,18.71,32.77,18.85,32.71,19.1Z" transform="translate(-13.99 -0.41)"/><path class="cls-269" d="M33.65,21.7l-.11-.62c.29.13.19.39.21.62Z" transform="translate(-13.99 -0.41)"/><path class="cls-23" d="M33.34,20.35a.21.21,0,0,1,.1.21.27.27,0,0,1-.12.09c-.14,0-.29.11-.43,0a.22.22,0,0,1,0-.22c.13-.13.3,0,.43-.08Z" transform="translate(-13.99 -0.41)"/><path class="cls-270" d="M33.33,20.56h.11c.12.07.1.19.1.31l-.2-.11A.13.13,0,0,1,33.33,20.56Z" transform="translate(-13.99 -0.41)"/><path class="cls-271" d="M34.27,23.46c-.29.25.11.58-.11.83l-.43-1c-.07-.16-.17-.33.12-.37a.27.27,0,0,1,.11.1C34.32,23,34.17,23.32,34.27,23.46Z" transform="translate(-13.99 -0.41)"/><path class="cls-272" d="M34,23.05l-.11-.11a.2.2,0,0,0-.2-.1c0-.31-.08-.65.29-.82C34.09,22.36,34.28,22.7,34,23.05Z" transform="translate(-13.99 -0.41)"/><path class="cls-273" d="M32.61,29.07l.1-.31a.13.13,0,0,1,.21,0,.31.31,0,0,1-.21.31Z" transform="translate(-13.99 -0.41)"/><path class="cls-273" d="M33.33,27.2c.35-.07.19.37.42.41-.09.17-.24.3-.22.51-.24-.05-.48-.12-.36.29a.25.25,0,0,1-.15.24.68.68,0,0,1-.19-.76A3.12,3.12,0,0,1,33.33,27.2Z" transform="translate(-13.99 -0.41)"/><path class="cls-274" d="M14.65,27.82a.75.75,0,0,1,.61.72c0,.32-.07.61-.51.43a1.83,1.83,0,0,1-.21-.94C14.62,28,14.57,27.87,14.65,27.82Z" transform="translate(-13.99 -0.41)"/><path class="cls-275" d="M14.65,27.82a.2.2,0,0,1-.11.21l-.08-.21c0-.15,0-.32-.13-.44.16-.25-.14-.56.11-.8a.12.12,0,0,1,.1.1A.8.8,0,0,1,14.65,27.82Z" transform="translate(-13.99 -0.41)"/><path class="cls-276" d="M23.89,14.23a9.88,9.88,0,0,1,2.71.19h0c.12.1.3.1.41.22l.21.12.1.19c0,.1-.09.16-.21.11l-.1.1c-.27.07-.36-.23-.57-.28s-.45.12-.67,0A4.85,4.85,0,0,1,24,14.41C23.93,14.38,23.86,14.33,23.89,14.23Z" transform="translate(-13.99 -0.41)"/><path class="cls-253" d="M27,14.64a.53.53,0,0,1-.41-.22C26.77,14.42,26.93,14.45,27,14.64Z" transform="translate(-13.99 -0.41)"/><path class="cls-277" d="M24.2,35.19h-.42a.53.53,0,0,0-.23-.41c0-.21.27-.22.31-.4A1.33,1.33,0,0,1,25.08,34c.19,0,.34,0,.46-.15a.17.17,0,0,1,.14,0c.13.26.36.26.6.23a.35.35,0,0,1,.14,0c.1.07.29,0,.27.26a.21.21,0,0,0-.21.11c-.12.19-.41.11-.52.31l-.09,0a.88.88,0,0,1-.28-.12c-.28-.2-.53-.25-.69.14S24.41,35,24.2,35.19Z" transform="translate(-13.99 -0.41)"/><path class="cls-278" d="M24.2,35.19a3.09,3.09,0,0,0,.89-.84c.07-.12.57.18.78.45l-.31.19h-.21a2,2,0,0,0-.63.21H24.2Z" transform="translate(-13.99 -0.41)"/><path class="cls-279" d="M26,34.78c-.06-.5.32-.26.52-.31h.13A.82.82,0,0,1,26,34.78Z" transform="translate(-13.99 -0.41)"/><path class="cls-280" d="M26.69,34.36l-.31-.2a.44.44,0,0,1,.62,0h0A.32.32,0,0,1,26.69,34.36Z" transform="translate(-13.99 -0.41)"/><path class="cls-239" d="M23.67,35.4a.92.92,0,0,1,.63-.1.28.28,0,0,1,0,.09Z" transform="translate(-13.99 -0.41)"/><path class="cls-263" d="M24.72,35.2a.63.63,0,0,1,.63-.21A1.28,1.28,0,0,1,24.72,35.2Z" transform="translate(-13.99 -0.41)"/><path class="cls-281" d="M14.24,21.91c.17-.18.06-.41.11-.62l.19-.21a.11.11,0,0,1,.14,0,.51.51,0,0,1,.09.48,2.28,2.28,0,0,0-.13,1.18.36.36,0,0,0,0,.49.47.47,0,0,1,0,.31,1,1,0,0,0-.14.63,2.48,2.48,0,0,1-.22,1.69c-.2-.24-.09-.53-.1-.79,0-.74,0-1.48,0-2.22Z" transform="translate(-13.99 -0.41)"/><path class="cls-282" d="M14.23,25.85a5.68,5.68,0,0,0,0-1.93.43.43,0,0,1,.26-.46c.25.31.1.68.15,1v.17a1.54,1.54,0,0,0,.05.31,6.47,6.47,0,0,1-.1,1.32c-.05.07-.1.13-.2.1l-.1-.1C14.32,26.12,14.38,26,14.23,25.85Z" transform="translate(-13.99 -0.41)"/><path class="cls-283" d="M14.86,20.25l-.21.83h-.11v-.63c0-.13.07-.27.11-.4S14.85,20.12,14.86,20.25Z" transform="translate(-13.99 -0.41)"/><path class="cls-70" d="M14.44,26.37l.1-.1c.24,0,.31.09.21.31a.21.21,0,0,1-.21.1l-.1-.1Z" transform="translate(-13.99 -0.41)"/><path class="cls-284" d="M27.1,15.06l.21-.11.41.12s0,.06,0,.09C27.49,15.27,27.27,15.35,27.1,15.06Z" transform="translate(-13.99 -0.41)"/><path class="cls-276" d="M23.47,14.23c-.14,0-.3,0-.41-.1.24,0,.5-.1.72.09Z" transform="translate(-13.99 -0.41)"/><path class="cls-285" d="M33,25.44a14.66,14.66,0,0,1-.31-2.29.15.15,0,0,1,.21,0c.32.24.11.66.31.94A1.74,1.74,0,0,1,33,25.44Z" transform="translate(-13.99 -0.41)"/><path class="cls-85" d="M33,25.44c-.06-.47.34-.87.21-1.35.21.29.06.62.1.93s.13.72-.28,1c-.25.17.26.32.18.56s-.07.15-.18.14c-.12-.21-.41-.35-.34-.66A.55.55,0,0,0,33,25.44Z" transform="translate(-13.99 -0.41)"/><path class="cls-286" d="M32.92,23.15h-.21s0,0,0,0c-.5-.39-.22-.85-.1-1.3a.45.45,0,0,1,.41.52A1.67,1.67,0,0,0,32.92,23.15Z" transform="translate(-13.99 -0.41)"/><path class="cls-273" d="M33.33,26.89a.36.36,0,0,1,.21-.21c.09.07.14.16.06.24S33.42,26.91,33.33,26.89Z" transform="translate(-13.99 -0.41)"/><path class="cls-287" d="M19.74,33.53h.41c.31-.13.5,0,.65.27-.08.21-.33.11-.44.25h-.21C20.13,33.79,19.8,33.77,19.74,33.53Z" transform="translate(-13.99 -0.41)"/><path class="cls-288" d="M20.57,34.77c0-.28.25-.17.41-.2a.41.41,0,0,0,.26-.44.27.27,0,0,1,.09-.12,6.5,6.5,0,0,1,1.87.11c.19,0,.42.08.37.37a1,1,0,0,1-1.14-.13,1.24,1.24,0,0,0-.39.1A2.52,2.52,0,0,1,20.57,34.77Z" transform="translate(-13.99 -0.41)"/><path class="cls-289" d="M22.43,34.36a4,4,0,0,0,1.15.11.21.21,0,0,1,.31,0c.15.36-.31.11-.31.31a.4.4,0,0,1-.27.22.91.91,0,0,1-.77-.12C22.5,34.71,22.12,34.61,22.43,34.36Z" transform="translate(-13.99 -0.41)"/><path class="cls-290" d="M22.54,34.88h.83a.22.22,0,0,1,0,.31h-.63c-.08-.06-.18-.09-.2-.2Z" transform="translate(-13.99 -0.41)"/><path class="cls-291" d="M22.54,35a.36.36,0,0,1,.2.2h-.62V35C22.26,34.89,22.4,35,22.54,35Z" transform="translate(-13.99 -0.41)"/><path class="cls-292" d="M21.29,34.16v.1c0,.09-.09.16-.21.1-.16-.27-.45-.27-.72-.31.08-.19.23-.21.41-.21a.14.14,0,0,1,.12,0A.73.73,0,0,1,21.29,34.16Z" transform="translate(-13.99 -0.41)"/><path class="cls-261" d="M21.08,34.36l.21-.1c.14.35-.12.29-.31.31Z" transform="translate(-13.99 -0.41)"/><path class="cls-293" d="M23.37,35.19v-.31l.21-.1c.37,0,.44.12.2.41Z" transform="translate(-13.99 -0.41)"/><path class="cls-294" d="M32.92,20.45v.21a.15.15,0,0,1,0,.21h-.1a.33.33,0,0,1-.13-.13c-.07-.08-.18-.11-.24-.2a1,1,0,0,1,0-.63.39.39,0,0,1,.15-.06.25.25,0,0,1,.21.09C32.88,20.11,33.07,20.26,32.92,20.45Z" transform="translate(-13.99 -0.41)"/><path class="cls-295" d="M32.92,20.87v-.21a.66.66,0,0,1,.41-.1v.2c0,.18,0,.37-.23.4S32.93,21,32.92,20.87Z" transform="translate(-13.99 -0.41)"/><path class="cls-296" d="M32.81,20.66v.21a.45.45,0,0,1-.42.52V20.9C32.47,20.7,32.57,20.56,32.81,20.66Z" transform="translate(-13.99 -0.41)"/><path class="cls-60" d="M32.92,20.45l-.11-.52c0-.09,0-.13.11-.1,0,.26.22.39.41.52C33.22,20.5,33.06,20.44,32.92,20.45Z" transform="translate(-13.99 -0.41)"/><path class="cls-297" d="M32.92,19.83l-.11.1h-.2c-.15-.24,0-.32.2-.31Z" transform="translate(-13.99 -0.41)"/><path class="cls-298" d="M14.75,26.58a.31.31,0,0,0-.21-.31l.11-1.35a1.6,1.6,0,0,1,.47,1.6l-.06.06Z" transform="translate(-13.99 -0.41)"/><path class="cls-299" d="M27.42,33.33c0,.22-.27.23-.32.41a.82.82,0,0,1-.6.19c-.28-.08-.59.15-.85-.08h0c0-.3.35-.21.48-.36s.34-.16.52-.24S27,33,27.27,33a.21.21,0,0,1,.11.08A.48.48,0,0,1,27.42,33.33Z" transform="translate(-13.99 -0.41)"/><path class="cls-300" d="M26.48,33.84a1.91,1.91,0,0,1,.62-.1.65.65,0,0,1-.1.41h-.62c-.08-.09-.17-.18-.1-.3S26.41,33.78,26.48,33.84Z" transform="translate(-13.99 -0.41)"/><path class="cls-5" d="M27.31,33.12c.23-.18.46-.3.73-.11-.05.42-.38.29-.62.32A.22.22,0,0,1,27.31,33.12Z" transform="translate(-13.99 -0.41)"/><path class="cls-301" d="M26.48,14.74c.06.22.08.4-.22.44s-.61.08-.71-.33l.31-.11C26.07,15,26.27,14.54,26.48,14.74Z" transform="translate(-13.99 -0.41)"/><path class="cls-302" d="M26.17,33.53c-.07.27-.39.14-.52.31s-.17.41-.55.29a1.15,1.15,0,0,0-1.21.34h-.31c-.13-.3-.42-.21-.64-.25a7,7,0,0,0-1.65-.06c-.15-.09-.34-.13-.41-.31a1,1,0,0,1,.54-.38.35.35,0,0,1,.14,0,.76.76,0,0,0,.47.11,5.47,5.47,0,0,1,.57,0,7.5,7.5,0,0,0,2.66-.27A.89.89,0,0,1,26.17,33.53Z" transform="translate(-13.99 -0.41)"/><path class="cls-280" d="M26.48,33.84c-.27,0-.06.21-.1.32-.27,0-.73.36-.73-.31C25.93,33.94,26.21,33.64,26.48,33.84Z" transform="translate(-13.99 -0.41)"/><path class="cls-13" d="M14.54,24.61V23.15a.12.12,0,0,1,.16,0,1.72,1.72,0,0,1,.08,1.14C14.75,24.46,14.74,24.62,14.54,24.61Z" transform="translate(-13.99 -0.41)"/><path class="cls-282" d="M14.65,23.15h-.11c-.34-.14-.2-.27,0-.41l.11.1A.21.21,0,0,1,14.65,23.15Z" transform="translate(-13.99 -0.41)"/><path class="cls-303" d="M15.17,24.71h-.63v-.1a2.69,2.69,0,0,0,.11-1.46v-.31l.21-.31c.09.47.15.94.2,1.41a.94.94,0,0,0,.16.47A.26.26,0,0,1,15.17,24.71Z" transform="translate(-13.99 -0.41)"/><path class="cls-304" d="M20.05,33.12c.28.05.61.39.83-.11.45-.08.57,0,.62.52-.27,0-.32.4-.62.32h-.11a1.18,1.18,0,0,0-.62-.31C20.22,33.37,19.92,33.3,20.05,33.12Z" transform="translate(-13.99 -0.41)"/><path class="cls-53" d="M32.4,21a.66.66,0,0,1,.1-.41c.12,0,.24,0,.31.1C32.58,20.64,32.54,20.87,32.4,21Z" transform="translate(-13.99 -0.41)"/><path class="cls-304" d="M21.5,33.53a.37.37,0,0,1,.42.21A.37.37,0,0,1,21.5,33.53Z" transform="translate(-13.99 -0.41)"/></g></svg>