<?xml version="1.0" encoding="utf-8"?>
<!-- Generator: Adobe Illustrator 25.2.1, SVG Export Plug-In . SVG Version: 6.00 Build 0)  -->
<svg version="1.1" id="Слой_1" xmlns="http://www.w3.org/2000/svg" xmlns:xlink="http://www.w3.org/1999/xlink" x="0px" y="0px"
	 viewBox="0 0 340.3 50.4" style="enable-background:new 0 0 340.3 50.4;" xml:space="preserve">
<style type="text/css">
	.st0{fill:#FFFFFF;}
	.st1{fill:#F96D15;}
	.st2{fill:#F97122;}
	.st3{fill:#F79634;}
	.st4{fill:#F66F1C;}
	.st5{fill:#F87A30;}
	.st6{fill:#FB7111;}
	.st7{fill:#EA7418;}
	.st8{fill:#F6803F;}
	.st9{fill:#F47B1F;}
	.st10{fill:#F89D71;}
	.st11{fill:#F97834;}
	.st12{fill:#F66D0A;}
	.st13{fill:#DD671D;}
	.st14{fill:#FB921C;}
	.st15{fill:#F6781A;}
	.st16{fill:#F9852E;}
	.st17{fill:#F98337;}
	.st18{fill:#F18016;}
	.st19{fill:#F96904;}
	.st20{fill:#F97E24;}
	.st21{fill:#F76912;}
	.st22{fill:#FA851A;}
	.st23{fill:#F98118;}
	.st24{fill:#F57210;}
	.st25{fill:#F86B09;}
	.st26{fill:#FB7113;}
	.st27{fill:#FB6F0B;}
	.st28{fill:#F37005;}
	.st29{fill:#F96A18;}
	.st30{fill:#FB8A0C;}
	.st31{fill:#F8850F;}
	.st32{fill:#FC7906;}
	.st33{fill:#FC6C12;}
	.st34{fill:#F87111;}
	.st35{fill:#F56711;}
	.st36{fill:#FC6C0C;}
	.st37{fill:#F86D1A;}
	.st38{fill:#F86B13;}
	.st39{fill:#FD671A;}
	.st40{fill:#F96F16;}
	.st41{fill:#F77614;}
	.st42{fill:#FD8713;}
	.st43{fill:#F76E14;}
	.st44{fill:#FA7F11;}
	.st45{fill:#EF710F;}
	.st46{fill:#F36112;}
	.st47{fill:#F77029;}
	.st48{fill:#F98207;}
	.st49{fill:#F77B07;}
	.st50{fill:#F8820D;}
	.st51{fill:#EE7806;}
	.st52{fill:#FB8E17;}
	.st53{fill:#FB9217;}
	.st54{fill:#FB8E1A;}
	.st55{fill:#FC931F;}
	.st56{fill:#FB8E14;}
	.st57{fill:#FC951F;}
	.st58{fill:#F99524;}
	.st59{fill:#FA8716;}
	.st60{fill:#FC982B;}
	.st61{fill:#F6930F;}
	.st62{fill:#F87B14;}
	.st63{fill:#FC8D13;}
	.st64{fill:#FC7A16;}
	.st65{fill:#FC8811;}
	.st66{fill:#F47414;}
	.st67{fill:#FB840C;}
	.st68{fill:#F97808;}
	.st69{fill:#F97712;}
	.st70{fill:#FB8013;}
	.st71{fill:#F0830C;}
	.st72{fill:#FC8113;}
	.st73{fill:#EE7318;}
	.st74{fill:#FC8A0F;}
	.st75{fill:#FC8815;}
	.st76{fill:#FB8409;}
	.st77{fill:#FB890D;}
	.st78{fill:#FB7216;}
	.st79{fill:#F96E1E;}
	.st80{fill:#F8751E;}
	.st81{fill:#FB7D16;}
	.st82{fill:#F36B08;}
	.st83{fill:#F6740F;}
	.st84{fill:#FB841B;}
	.st85{fill:#F47F18;}
	.st86{fill:#F88916;}
	.st87{fill:#FC750E;}
	.st88{fill:#FC7E0C;}
	.st89{fill:#FA8708;}
	.st90{fill:#FA840A;}
	.st91{fill:#FB7B0C;}
	.st92{fill:#FC9617;}
	.st93{fill:#FC8A17;}
	.st94{fill:#FC901B;}
	.st95{fill:#FC8920;}
	.st96{fill:#FD8B21;}
	.st97{fill:#FC9314;}
	.st98{fill:#FA9012;}
	.st99{fill:#FB8B17;}
	.st100{fill:#FB880D;}
	.st101{fill:#FC831F;}
	.st102{fill:#FD8414;}
	.st103{fill:#FA8C0B;}
	.st104{fill:#FA910F;}
	.st105{fill:#FB8B10;}
	.st106{fill:#FB8A13;}
	.st107{fill:#FC8A16;}
	.st108{fill:#FD8310;}
	.st109{fill:#FB8B14;}
	.st110{fill:#FA8D1D;}
	.st111{fill:#FD8A19;}
	.st112{fill:#FC8A11;}
	.st113{fill:#F7860C;}
	.st114{fill:#FA890A;}
	.st115{fill:#FA8C08;}
	.st116{fill:#FC9812;}
	.st117{fill:#FC9A16;}
	.st118{fill:#FD8C13;}
	.st119{fill:#FA7E0F;}
	.st120{fill:#FC8120;}
	.st121{fill:#FC7818;}
	.st122{fill:#FD9523;}
	.st123{fill:#FA8E15;}
	.st124{fill:#FB8E0E;}
	.st125{fill:#F98E0E;}
	.st126{fill:#FC7219;}
	.st127{fill:#F78609;}
	.st128{fill:#FC8F16;}
	.st129{fill:#F46F07;}
	.st130{fill:#F1680E;}
	.st131{fill:#FC711E;}
	.st132{fill:#F76104;}
	.st133{fill:#EE6706;}
	.st134{fill:#F17908;}
	.st135{fill:#FB930B;}
	.st136{fill:#FC970E;}
	.st137{fill:#FB8D12;}
	.st138{fill:#FB870B;}
	.st139{fill:#FC910F;}
	.st140{fill:#FE911C;}
	.st141{fill:#FA8C0C;}
	.st142{fill:#F78B07;}
	.st143{fill:#FB9B10;}
	.st144{fill:#FB9E12;}
	.st145{fill:#FB9B12;}
	.st146{fill:#FE9E1C;}
	.st147{fill:#F89F16;}
	.st148{fill:#FB930A;}
	.st149{fill:#F96E14;}
	.st150{fill:#E45C02;}
	.st151{fill:#F8730E;}
	.st152{fill:#FD7917;}
	.st153{fill:#F56813;}
	.st154{fill:#F68023;}
	.st155{fill:#D33208;}
	.st156{fill:#FB742F;}
	.st157{fill:#F98017;}
	.st158{fill:#FA940F;}
	.st159{fill:#FB9212;}
	.st160{fill:#F69803;}
	.st161{fill:#EB5702;}
	.st162{fill:#FC780A;}
	.st163{fill:#EC8007;}
	.st164{fill:#FE7624;}
	.st165{fill:#F9891F;}
	.st166{fill:#F69E12;}
	.st167{fill:#E15801;}
	.st168{fill:#EB5001;}
	.st169{fill:#F9911A;}
	.st170{fill:#F89004;}
	.st171{fill:#F6970B;}
	.st172{fill:#FB9317;}
	.st173{fill:#FB970F;}
	.st174{fill:#F99A10;}
	.st175{fill:#D42A0F;}
	.st176{fill:#FB8A06;}
	.st177{fill:#FB8208;}
	.st178{fill:#F09102;}
	.st179{fill:#F6930C;}
	.st180{fill:#FBA012;}
	.st181{fill:#FC9F10;}
	.st182{fill:#FA9C0C;}
	.st183{fill:#FC9811;}
	.st184{fill:#F4A20D;}
	.st185{fill:#EA5A05;}
	.st186{fill:#E85A08;}
	.st187{fill:#D61715;}
	.st188{fill:#D22507;}
	.st189{fill:#FB9A10;}
	.st190{fill:#FD9A19;}
	.st191{fill:#FA761C;}
	.st192{fill:#DE3C0F;}
	.st193{fill:#FC9D22;}
	.st194{fill:#F98513;}
	.st195{fill:#FA9F13;}
	.st196{fill:#D94605;}
	.st197{fill:#CA2701;}
	.st198{fill:#DB3414;}
	.st199{fill:#F2A005;}
	.st200{fill:#F89E0D;}
	.st201{fill:#FA811F;}
	.st202{fill:#F49C08;}
	.st203{fill:#FB9B0F;}
	.st204{fill:#FA9E0D;}
	.st205{fill:#DF2120;}
	.st206{fill:#DD1725;}
	.st207{fill:#FA990B;}
	.st208{fill:#FB920D;}
	.st209{fill:#F69A0A;}
	.st210{fill:#F4A30A;}
	.st211{fill:#FB9D1A;}
	.st212{fill:#F6A20D;}
	.st213{fill:#FB8720;}
	.st214{fill:#FE9C22;}
	.st215{fill:#D83314;}
	.st216{fill:#E12F15;}
	.st217{fill:#D62C05;}
	.st218{fill:#E45C0F;}
	.st219{fill:#E73321;}
	.st220{fill:#D22C0A;}
	.st221{fill:#D71019;}
	.st222{fill:#CB1F03;}
	.st223{fill:#C51004;}
	.st224{fill:#DB4608;}
	.st225{fill:#FCA61D;}
	.st226{fill:#F1A50A;}
	.st227{fill:#F1A805;}
	.st228{fill:#F08825;}
	.st229{fill:#F9921D;}
	.st230{fill:#D61E15;}
	.st231{fill:#CC1E07;}
	.st232{fill:#CF1A05;}
	.st233{fill:#DB171A;}
	.st234{fill:#F49902;}
	.st235{fill:#E63324;}
	.st236{fill:#C92602;}
	.st237{fill:#FA7326;}
	.st238{fill:#EDB990;}
	.st239{fill:#FC7B2D;}
	.st240{fill:#F68237;}
	.st241{fill:#FB7E1F;}
	.st242{fill:#F67D2F;}
	.st243{fill:#E48227;}
	.st244{fill:#F2C4AC;}
	.st245{fill:#F9772F;}
	.st246{fill:#F6C3A7;}
	.st247{fill:#EFA17C;}
	.st248{fill:#EB6310;}
	.st249{fill:#F46711;}
	.st250{fill:#F96920;}
	.st251{fill:#F76717;}
	.st252{fill:#F98A2E;}
	.st253{fill:#F89222;}
	.st254{fill:#FC7D17;}
	.st255{fill:#FC7313;}
	.st256{fill:#F87C1A;}
	.st257{fill:#F77610;}
	.st258{fill:#F96D12;}
	.st259{fill:#EE6712;}
	.st260{fill:#F37017;}
	.st261{fill:#F86E18;}
	.st262{fill:#F27428;}
	.st263{fill:#EB742C;}
	.st264{fill:#FC5F07;}
	.st265{fill:#EB6311;}
	.st266{fill:#F36E22;}
	.st267{fill:#FB6A16;}
	.st268{fill:#FD7B21;}
	.st269{fill:#FD7806;}
	.st270{fill:#FD7712;}
	.st271{fill:#F28417;}
	.st272{fill:#FA7821;}
	.st273{fill:#F66618;}
	.st274{fill:#F26E09;}
	.st275{fill:#F48520;}
	.st276{fill:#F57216;}
	.st277{fill:#F36C11;}
	.st278{fill:#F7782F;}
	.st279{fill:#F76F0D;}
	.st280{fill:#EE6309;}
	.st281{fill:#F56B11;}
	.st282{fill:#EE5D09;}
	.st283{fill:#FE8E14;}
	.st284{fill:#FC871C;}
	.st285{fill:#F98915;}
	.st286{fill:#FD7C19;}
	.st287{fill:#F8760E;}
	.st288{fill:#F5711C;}
	.st289{fill:#F97414;}
	.st290{fill:#FB670C;}
	.st291{fill:#F77217;}
	.st292{fill:#F36C0B;}
	.st293{fill:#F58B1A;}
	.st294{fill:#FA8125;}
	.st295{fill:#FC8C0E;}
	.st296{fill:#F58A06;}
	.st297{fill:#F97207;}
	.st298{fill:#FC7514;}
	.st299{fill:#EB6F0F;}
	.st300{fill:#FD9626;}
	.st301{fill:#FC8A1D;}
	.st302{fill:#F77406;}
	.st303{fill:#FA8E18;}
</style>
<path class="st0" d="M42.7,24.4V0.9C42.7,0.4,43,0,43.5,0c0,0,0,0,0,0c0.2,0,0.4,0,0.5,0.1c0.1,0.1,0.2,0.2,0.2,0.4
	c0,0.2,0,0.4,0,0.6v47.1c0,0.5-0.4,0.8-0.8,0.8c-0.6,0-0.7-0.4-0.7-0.9V31.8L42.7,24.4z"/>
<path class="st0" d="M157.2,13.5c0.1-1.3,0.2-2.5,0.4-3.8c1.2-5.3,5-8.3,10.8-8.1c1,0,1.9,0.1,2.8,0.3c3.2,0.4,5.9,2.7,6.7,5.8
	c1.2,3.5,1.2,7.3,0,10.8c-1.1,3.6-4.3,6.2-8,6.4c-1.6,0.2-3.2,0.2-4.8,0c-4.1-0.4-7.3-3.7-7.6-7.8C157.4,15.9,157.3,14.8,157.2,13.5
	z M162.1,12.9c0.2,1.6,0.2,2.6,0.4,3.6c0.1,1.8,1.2,3.4,2.8,4.1c3.1,1.2,7,0.6,8.1-3.9c0.6-2.3,0.6-4.8,0-7.1
	c-0.3-2.3-2.3-4.1-4.7-4.2c-2.5-0.5-5.1,1-5.9,3.5C162.5,10.2,162.3,11.6,162.1,12.9L162.1,12.9z"/>
<path class="st0" d="M106.1,1.6c2.8-0.2,5.6,0.8,7.7,2.7c1.4,1.5,2.3,3.4,2.5,5.5c0.6,3,0.3,6.2-0.7,9.1c-1.2,3.4-4.2,5.8-7.8,6.1
	c-1.8,0.2-3.6,0.1-5.3-0.2c-3.2-0.4-5.9-2.7-6.7-5.8c-1-3.3-1-6.8,0-10.1C97.1,4,100.8,1.5,106.1,1.6z M111.8,13.3h-0.2
	c0-0.7,0-1.3-0.1-2c-0.3-2.2-0.8-4.3-3.2-5.3c-2.8-1.4-6.2-0.2-7.6,2.6c-0.2,0.4-0.4,0.9-0.4,1.3c-0.6,2.4-0.6,4.9,0,7.2
	c0.4,2.2,2.2,3.9,4.4,4c3.1,0.2,5.1-0.8,6-3.4C111.2,16.3,111.5,14.8,111.8,13.3L111.8,13.3z"/>
<path class="st0" d="M148.8,15h-8.4v8.5c0.1,0.5-0.2,1.1-0.7,1.2c0,0-0.1,0-0.1,0h-0.3H139c-3.2,0.2-3.2,0.1-3.2-3V3.4
	c0-1.1,0.4-1.6,1.4-1.6h0.5c2.7-0.1,2.8,0,2.8,2.7V10c0,0.7,0.2,0.9,0.9,0.9h6.5c0.7,0,0.9-0.2,0.9-0.9V3.2c0-0.8,0.3-1.2,1.1-1.2
	c0.2,0,0.5-0.1,0.7-0.1c2.7-0.2,3,0,3,2.8v18.5c0,1.4-0.2,1.6-1.6,1.6c-3.2,0.1-3.2,0.1-3.2-3L148.8,15z"/>
<path class="st0" d="M67.6,5.9h-8.3v17.3c0,1.3-0.2,1.5-1.4,1.5c-3.2,0.2-3.2,0.2-3.2-3.1V4c0-1.6,0.3-2,2-2h13.8
	c1.5,0,1.9,0.3,1.9,1.9v19.6c0.1,0.6-0.3,1.2-0.9,1.3c-0.1,0-0.2,0-0.2,0H71c-3.3,0.3-3.5,0.2-3.5-3.1L67.6,5.9L67.6,5.9z"/>
<path class="st0" d="M81.8,16.8v6.6c0,0.9-0.4,1.3-1.2,1.3h-0.2c-3.2,0.2-3.3,0.1-3.3-3.1V4.4c0-2.2,0.4-2.6,2.5-2.5
	c2.4,0,4.9,0,7.3,0.3c3.1,0.2,5.6,2.6,5.8,5.8c0.7,3.3-1.1,6.7-4.3,8c-1.4,0.4-2.9,0.7-4.4,0.9C83.2,16.8,82.5,16.9,81.8,16.8z
	 M81.8,13.2c1.9,0,3.9,0.4,5.2-1.5c1-1.3,1.1-3.2,0.2-4.6c-1.3-2-3.4-1.4-5.3-1.5V13.2z"/>
<path class="st0" d="M191.6,12.7c2.2,0.5,3.8,2.3,4.2,4.5c0.6,2.8-0.9,5.6-3.4,6.8c-3.2,1.5-6.8,1.6-10.1,0.3
	c-1.4-0.8-1.9-2.5-1.3-4c0.1-0.2,0.8-0.3,1.1-0.1c1.5,0.8,3.1,1.2,4.8,1.1c2.2-0.2,3.5-1.4,3.4-3.4c0-1.5-1.1-2.6-2.6-2.8
	c-1.3-0.2-2.6-0.3-3.9-0.2c-1,0-1.5-0.3-1.4-1.3v-1c0-1,0.4-1.4,1.4-1.4c1.3,0,2.6-0.1,3.8-0.3c1.5-0.2,2.5-1.5,2.4-3
	c-0.1-1.6-1.1-2.3-2.9-2.5c-1.6-0.1-3.2,0.3-4.7,1.1c-1,0.5-1.2,0.4-1.3-0.7c-0.3-2.2,0.1-2.9,2.2-3.5c2.5-0.8,5.2-0.9,7.7-0.3
	c2.4,0.5,4.1,2.5,4.1,4.9c0.2,2.3-1,4.5-3.1,5.4L191.6,12.7z"/>
<path class="st0" d="M125,5.8v17.3c0,1.4-0.2,1.6-1.6,1.6c-3.2,0.1-3.2,0.1-3.2-3.1V4c0-1.7,0.3-2,2-2h9.5c0.9,0,1.2,0.4,1.3,1.2
	c0.2,2.5,0,2.7-2.4,2.7L125,5.8z"/>
<path class="st0" d="M310.7,20.6h0.7c2.2-0.1,2.1,0.2,2.1,2.2v6.4c0,0.9-0.3,1.2-1.2,1.2c-0.1,0-0.3,0-0.4,0c-2.4,0.2-2.6,0-2.6-2.4
	v-2.8c0-0.5-0.1-0.8-0.7-0.8h-13.9c-0.1,0-0.3,0.1-0.4,0.1v4.6c0,0.8-0.3,1.2-1.1,1.2H293c-2.5,0.3-2.9,0-2.9-2.5v-6
	c0-0.9,0.3-1.3,1.2-1.3c0.5-0.1,0.9-0.3,1.2-0.7c1.4-2.4,2.3-5.1,2.6-7.9c0.5-2.9,0.8-5.8,1.2-8.7c0.2-1.3,0.5-1.6,1.9-1.6h10.5
	c1.6,0,1.9,0.4,1.9,2L310.7,20.6L310.7,20.6z M297.2,20.6h8.6v-15h-4.2c-0.7,0-0.9,0.2-1,0.9C300,11.3,299.7,16.2,297.2,20.6
	L297.2,20.6z"/>
<path class="st0" d="M240,25c-1.1-0.1-2.3-0.2-3.4-0.4c-3.2-0.6-5.7-3-6.4-6.1c-1-3.3-0.9-6.8,0.1-10.1c1.1-3.9,4.6-6.6,8.7-6.8
	c1.5-0.1,3.1,0,4.6,0.2c3.4,0.4,6.1,2.9,6.9,6.2c0.9,3,0.9,6.2,0.1,9.2C249.2,22.3,245.6,25,240,25z M240.4,5.4
	c-2.7-0.2-5.1,1.6-5.6,4.3c-0.6,2.5-0.6,5.1,0.1,7.6c0.3,1.4,1.3,2.6,2.6,3.2c2.8,1.4,6.3,0.3,7.7-2.5c0.2-0.5,0.4-0.9,0.5-1.4
	c0.5-2.3,0.5-4.8,0-7.1C245.3,7,243,5.2,240.4,5.4z"/>
<path class="st0" d="M268,13c0.2-1.6,0.5-3.2,0.9-4.8c1.1-3.7,4.3-6.3,8.1-6.5c1.6-0.2,3.3-0.1,4.9,0.1c3.7,0.4,6.6,3.2,7.2,6.9
	c0.7,3,0.7,6.1-0.1,9.1c-1,4.1-4.6,7.1-8.8,7.2c-1.4,0.1-2.7,0.1-4.1-0.1c-4.1-0.4-7.4-3.7-7.7-7.8C268.2,15.8,268.2,14.7,268,13z
	 M284.9,13.2h-0.2c-0.1-1-0.1-2-0.3-2.9c-0.5-3.1-2.3-4.8-5-4.8c-3.4-0.1-5.5,1.4-6.1,4.6c-0.5,2.4-0.5,4.8,0.1,7.1
	c0.4,2.2,2.4,3.9,4.6,3.9c2.4,0.4,4.8-0.9,5.7-3.2C284.3,16.4,284.6,14.8,284.9,13.2L284.9,13.2z"/>
<path class="st0" d="M221.1,5.9h-8.3v17.4c0,1.1-0.4,1.4-1.4,1.5c-3,0.3-3.3,0-3.3-3V3.9c0-1.7,0.3-2.1,2-2.1h13.8
	c1.6,0,1.9,0.4,1.9,2v19.5c0,0.8-0.3,1.3-1.1,1.3h-0.1c-3,0.5-3.5,0-3.5-2.9L221.1,5.9L221.1,5.9z"/>
<path class="st0" d="M321.2,10.2c1.9,0.1,3.6,0.1,5.4,0.3c3.9,0.5,6.2,2.8,6.3,6.3c0,4.1-2,7-6,7.5c-3,0.3-6.1,0.4-9.1,0.3
	c-0.4,0-0.9-0.7-1.2-1.1s-0.1-0.6-0.1-0.9V3.3c0-1.2,0.2-1.4,1.5-1.5c3.2-0.2,3.2-0.2,3.2,3L321.2,10.2z M321.2,20.8
	c1.4,0,2.6,0.1,3.8,0c1.5-0.1,2.8-1.3,2.9-2.9c0.2-1.9-0.5-3.4-2.1-3.7c-1.5-0.3-3.1-0.4-4.7-0.5V20.8z"/>
<path class="st0" d="M259.5,5.8v17.5c0.1,0.7-0.3,1.3-1,1.4c0,0,0,0,0,0c-0.1,0-0.2,0-0.3,0c-3,0.4-3.5,0-3.5-2.9v-18
	c0-1.6,0.3-2,2-2h9.4c1,0,1.4,0.4,1.4,1.3c0.1,2.5,0,2.6-2.4,2.6L259.5,5.8z"/>
<path class="st0" d="M340.3,13.2v10.1c0,0.9-0.4,1.3-1.2,1.4s-1.5,0-2.2,0c-1,0-1.4-0.5-1.4-1.6V3c0-0.8,0.3-1.2,1.1-1.3h0.3
	c3.2-0.2,3.3-0.2,3.3,3L340.3,13.2z"/>
<path class="st0" d="M120.7,44.4l4.5-10.4c0.1-0.3,0.2-0.8,0.5-1c0.6-0.3,1.2-0.5,1.9-0.6c0.2,0,0.6,0.8,0.6,1.2v11.9
	c0,0.4-0.4,0.8-0.7,1.2c-0.2-0.4-0.7-0.8-0.7-1.2c0-3.7,0-7.3-0.3-11c-1.2,2.8-2.4,5.6-3.6,8.5c-0.4,1-0.9,2.1-1.4,3
	c-0.2,0.4-0.6,0.8-0.9,0.8c-0.4-0.1-0.7-0.4-0.9-0.8c-1.4-3.3-2.7-6.5-4.1-9.8c-0.2-0.5-0.4-0.9-0.8-1.2v10.6c0,0.4-0.5,0.8-0.8,1.2
	c-0.3-0.4-0.8-0.8-0.8-1.2V33.8c0-0.6,0.3-1.1,0.8-1.5c0.8-0.3,1.7,0.1,2.1,0.9c0,0,0,0.1,0.1,0.2c1.2,3,2.5,6,3.7,9
	C120.1,43,120.3,43.6,120.7,44.4z"/>
<path class="st0" d="M95.2,46.8H84v2.8c0,0.3-0.4,0.6-0.6,0.9c-0.2-0.3-0.6-0.6-0.6-0.9v-3.3c0-0.3,0.2-0.8,0.3-0.8
	c1.8-0.2,2.1-1.7,2.3-2.9c0.6-2.4,1-4.8,1.4-7.2c0.6-3.5,0-2.9,3.3-3h3.1c1,0,1.4,0.4,1.4,1.4v11.4c2,0.6,2,0.6,2,2.6
	c0.1,0.5,0.1,1,0,1.5c-0.2,0.4-0.4,0.9-0.7,1.2c-0.3-0.4-0.5-0.7-0.6-1.2C95.2,48.5,95.2,47.6,95.2,46.8z M88.8,33.6l-2.4,11.6H93
	V33.6H88.8z"/>
<path class="st0" d="M100.8,43.2l6.1-9.2c0.3-0.5,0.7-1,1.1-1.5c0.2-0.2,0.6-0.3,0.9-0.2c0.2,0.2,0.4,0.4,0.4,0.7v12.9
	c0,0.3-0.5,0.6-0.8,0.8c-0.2-0.3-0.6-0.7-0.6-1V35.6h-0.2l-6.1,9.2c-0.3,0.6-0.7,1.1-1.1,1.6c-0.3,0.2-0.6,0.3-1,0.3
	c-0.2,0-0.4-0.5-0.4-0.8V33.2c0-0.3,0.5-0.6,0.7-1c0.3,0.3,0.8,0.7,0.8,1v10L100.8,43.2z"/>
<path class="st0" d="M53.7,39.5c0-0.8,0.1-1.6,0.3-2.4c0.4-3.2,3.3-5.4,6.5-5c0,0,0,0,0,0l0,0c3-0.1,5.5,2.3,5.5,5.3c0,0,0,0,0,0
	v0.2c0.1,1.5,0.1,3.1-0.2,4.5c-0.7,3.3-2.9,4.8-6.6,4.7c-2.8,0-5.2-2.2-5.3-5C53.9,41,53.8,40.3,53.7,39.5z M55.4,39.3
	c-0.1,0.7,0,1.4,0.2,2.1c0.2,2.4,2.4,4.3,4.8,4.1c2-0.2,3.7-1.7,4-3.7c0.2-1.6,0.2-3.1,0-4.7c-0.1-2.1-1.9-3.6-3.9-3.6
	c-2.2-0.3-4.2,1.1-4.7,3.3C55.6,37.6,55.5,38.4,55.4,39.3z"/>
<path class="st0" d="M143.9,39.3c-0.1,0.8-0.2,1.7-0.3,2.5c-0.4,3.2-3.3,5.5-6.5,5.1l-0.4-0.1c-2.9-0.1-5.3-2.5-5.2-5.4
	c0-0.1,0-0.1,0-0.2c-0.1-1.7,0-3.4,0.4-5c0.7-2.8,3.5-4.6,6.4-4.1c2.7-0.1,5.1,2,5.4,4.7C143.7,37.6,143.8,38.5,143.9,39.3z
	 M142.3,39.8c0-0.8-0.1-1.7-0.2-2.5c-0.4-2.4-2.8-4-5.2-3.6c-1.8,0.3-3.3,1.8-3.6,3.6c-0.2,1.6-0.2,3.2,0,4.8c0.2,2,1.9,3.6,4,3.5
	c2,0.2,3.9-1.1,4.5-3C142,41.7,142.1,40.7,142.3,39.8z"/>
<path class="st0" d="M148.5,38.3h6.9v-4.7c0-0.5,0.4-1.2,0.8-1.3c0.9-0.1,0.8,0.7,0.8,1.3v12c0,0.4-0.5,0.8-0.7,1.2
	c-0.3-0.4-0.8-0.8-0.8-1.2v-5.7h-6.9v4.7c0.1,0.4,0.1,0.8,0,1.2c0,0.3-0.4,0.6-0.6,0.8c-0.3-0.3-0.8-0.6-0.8-0.9V34.2
	c0-0.7-0.5-1.9,0.7-1.9s0.7,1.3,0.8,2C148.5,35.6,148.5,36.9,148.5,38.3z"/>
<path class="st0" d="M171.2,46.6c-1,0.5-1.5,0.2-1.8-0.8c-1.2-3.1-1.2-3.1-4.6-3.1c-2.6,0-2.6,0-3.5,2.7c-0.3,0.9-0.5,1.8-1.9,1.3
	c0-0.3,0.1-0.7,0.2-1c1.5-4.1,3-8.2,4.6-12.3c0.2-0.5,0.7-0.9,1.2-1c0.5,0.1,0.9,0.5,1.1,0.9c1.6,4.2,3.1,8.5,4.7,12.7
	C171.1,46.2,171.2,46.4,171.2,46.6z M167.8,41.4l-2.6-7.3l-2.5,7.3H167.8z"/>
<path class="st0" d="M72.9,33.6v11.2c0.1,0.4,0.1,0.7,0,1.1c-0.2,0.3-0.4,0.6-0.7,0.8c-0.3-0.3-0.7-0.5-0.7-0.8V33.6h-3.4
	c-0.4-0.1-0.8-0.3-1.2-0.6c0.4-0.2,0.7-0.7,1.1-0.7h8.5c0.4,0,0.7,0.4,1.1,0.6c-0.4,0.2-0.7,0.6-1.1,0.7
	C75.3,33.7,74.2,33.6,72.9,33.6z"/>
<g id="Слой_3">
	<path class="st1" d="M1.9,30.1c-0.4-0.3-0.7-0.6-1-0.9c0-0.1,0-0.1,0-0.2c0,0,0.1,0,0.1,0c0.3,0.3,0.6,0.1,0.9,0.1
		c0.3,0.2,0.2,0.5,0.2,0.7c0,0.1,0,0.2-0.1,0.3C2,30.1,1.9,30.1,1.9,30.1z"/>
	<path class="st2" d="M4.3,32.7H4.1c-0.8-0.8-1.5-1.7-2.2-2.6l0,0c0.2,0,0.3,0.1,0.4,0.2L3,31.1c0.1,0.1,0.2,0.4,0.3,0.5
		c0.1,0.1,0.2,0.3,0.4,0.4l0.1,0.2c0.1,0.1,0.2,0.2,0.2,0.3C4.2,32.5,4.4,32.5,4.3,32.7z"/>
	<path class="st3" d="M3.6,15.3c0.4-0.1,0.8-0.3,1.1-0.6c0.2-0.2,0.4-0.3,0.6-0.4c0.1,0,0.2-0.1,0.4,0c0,0,0,0.1,0,0.1
		c-0.1,0.1-0.2,0.2-0.3,0.4C5.4,15,5.2,15.1,5,15c-0.4-0.1-0.5,0.1-0.8,0.3c-0.1,0-0.2,0-0.3,0L3.6,15.3C3.7,15.3,3.7,15.3,3.6,15.3
		z"/>
	<path class="st4" d="M15.7,32.2l-2,1.3c0,0-0.1,0-0.1,0c0,0,0,0,0,0c0-0.3,0.2-0.5,0.5-0.6c0.3-0.1,0.6-0.3,0.8-0.5l0.1-0.1
		c0.1-0.2,0.4-0.3,0.6-0.3C15.7,32.1,15.8,32.1,15.7,32.2z"/>
	<path class="st5" d="M15.7,32.2l-0.1-0.1c0,0-0.1-0.1-0.1-0.1c-0.1-0.2,0.1-0.3,0.2-0.3s0.6-0.3,0.9-0.4c0,0,0.1,0,0.1,0
		c0,0,0,0.1,0,0.1l0,0C16.5,31.7,16.1,32,15.7,32.2z"/>
	<path class="st6" d="M18.6,29.1C18.6,29.1,18.6,29.2,18.6,29.1c-0.1,0.2-0.1,0.3-0.3,0.3s-0.2-0.4-0.4-0.6s-0.1-0.2,0-0.3
		c0.1-0.1,0.2-0.1,0.3,0c0.2,0,0.3,0,0.5,0.1c0.1,0,0.1,0.1,0.1,0.1C18.8,28.8,18.8,29,18.6,29.1z"/>
	<path class="st7" d="M2.6,16.5c0-0.1,0.1-0.2,0.2-0.2c0,0,0.1,0,0.1,0C3,16.4,3,16.4,3,16.5c0,0.2-0.1,0.4-0.2,0.5
		c-0.3,0.1-0.3,0.5-0.6,0.6c-0.1,0-0.2,0-0.2,0c-0.1-0.3,0.2-0.4,0.2-0.6l0,0C2.4,16.9,2.5,16.7,2.6,16.5z"/>
	<path class="st8" d="M18.3,29.4l0.3-0.2c-0.3,0.5-0.7,1-1.1,1.4c0,0-0.1,0-0.1,0c-0.1-0.2,0.1-0.3,0.2-0.5c0,0,0-0.1,0.1-0.1
		C17.9,29.8,18,29.5,18.3,29.4z"/>
	<path class="st9" d="M2.9,16.3H2.8c0.2-0.4,0.5-0.7,0.9-1h0.1c0,0.2-0.1,0.3-0.2,0.4c-0.2,0.2-0.3,0.4-0.4,0.6
		C3.1,16.3,3.1,16.4,2.9,16.3z"/>
	<path class="st9" d="M2.2,17C2.3,17.3,2,17.4,2,17.7S1.9,17.9,1.8,18s-0.2,0.1-0.3,0H1.4L2.2,17z"/>
	<path class="st10" d="M17.4,30.5h0.1c-0.2,0.3-0.4,0.6-0.7,0.8v-0.1c0,0,0-0.1,0-0.1c0.1-0.1,0.2-0.2,0.2-0.3l0.1-0.1
		C17.1,30.6,17.2,30.5,17.4,30.5z"/>
	<path class="st11" d="M18.5,17.9v0.1c0,0-0.1,0-0.1,0c-0.1-0.1-0.1-0.1-0.2-0.2c-0.1-0.1-0.2-0.3-0.1-0.4l0.3,0.2L18.5,17.9z"/>
	<path class="st9" d="M2.6,16.5c0,0.3-0.2,0.4-0.4,0.5C2.2,16.8,2.5,16.7,2.6,16.5z"/>
	<path class="st12" d="M1.5,18.1L1.8,18c0.1,0,0.1,0.1,0.2,0.2c0,0.1,0,0.1,0,0.2c0,0.1,0,0.2-0.1,0.3c0,0,0,0.1-0.1,0.1
		c0,0.1-0.1,0.1-0.2,0.1C1.5,19,1.4,19,1.3,18.8c0-0.2,0-0.4,0.1-0.6L1.5,18.1z"/>
	<path class="st13" d="M1.2,19L1,18.9l0.3-0.6v0.7c0,0,0,0.1,0,0.1c0,0,0,0,0,0C1.3,19.1,1.2,19,1.2,19z"/>
	<path class="st14" d="M14.2,14.9C14.2,14.9,14.2,14.9,14.2,14.9c0.2,0.1,0.5,0.2,0.7,0.2l0,0c0.3,0.2,0.6,0.4,0.9,0.6
		c0.2,0.1,0.4,0.3,0.6,0.4s0.5,0.2,0.4,0.5c-0.1,0.1-0.3,0.1-0.5,0c-0.4-0.4-0.8-0.2-1.3-0.4c0.1,0.1,0.2,0,0.3,0.1
		c0.1,0,0.3,0.1,0.3,0.3c0,0.1,0,0.2-0.6,0.5c0.7-0.4,1.4-0.2,2.1-0.1c0.1,0.2,0.1,0.5,0.4,0.5c0.2,0,0.3,0.1,0.5,0.2
		c0.1,0.1,0.1,0.1,0.2,0.2c0,0,0,0.1,0,0.1l-0.1,0.1c-0.1,0.2,0,0.3,0,0.5c0,0.1,0,0.3,0,0.4c-0.2,0.4-0.8,0.6-1.2,0.4
		c0,0-0.1,0-0.1-0.1c-0.1-0.2-0.1-0.3,0-0.5c0.1-0.6,0.1-0.7-0.4-1c-0.1-0.1-0.2-0.2-0.3-0.2c-0.1-0.1-0.2-0.3-0.4-0.1
		c-0.1,0.1-0.2,0.3-0.1,0.4c0,0,0,0,0.1,0.1c0.1,0,0.1,0.1,0.1,0.2c-0.2,0.3-0.5,0.4-0.8,0.4c-0.2,0-0.4-0.1-0.4-0.3
		c0,0,0-0.1,0-0.1c0-0.2-0.2-0.3-0.3-0.5c-0.5-0.4-0.9-0.9-1.3-1.4c0-0.3-0.2-0.6-0.5-0.7c-0.2-0.1-0.4-0.2-0.4-0.5c0,0,0-0.1,0-0.1
		c0.3,0,0.5,0.2,0.8,0.3s0.2,0.2,0.4,0.1s0-0.3,0-0.4c0,0,0-0.1,0-0.1c0-0.1,0.1-0.1,0.1-0.1c0.2,0.1,0.4,0.1,0.7,0.1
		C13.9,14.8,14,14.8,14.2,14.9z"/>
	<path class="st15" d="M16.8,16.5c-0.1-0.2-0.4-0.2-0.5-0.4s-0.1-0.2,0-0.4c0.1,0,0.2,0.1,0.2,0.1c0.4,0.3,1,0.5,1.2,1
		c0,0,0,0.1,0,0.1c0,0.1,0,0.1-0.1,0.2c-0.1,0-0.3-0.1-0.4-0.2C17,16.8,16.8,16.8,16.8,16.5z"/>
	<path class="st16" d="M15.7,15.7c-0.3-0.1-0.6-0.4-0.8-0.6c0.5,0.1,0.9,0.3,1.2,0.6C16,15.8,15.8,15.8,15.7,15.7z"/>
	<path class="st17" d="M17.7,16.8c-0.4-0.4-0.9-0.6-1.2-1C16.9,16.1,17.5,16.2,17.7,16.8z"/>
	<path class="st18" d="M15.7,15.7h0.4l0.1,0v0.4C16.1,16,15.8,15.9,15.7,15.7z"/>
	<path class="st19" d="M17.6,17l0.1-0.1c0.1,0.2,0.3,0.3,0.3,0.5c0,0-0.1,0.1-0.1,0.1C17.7,17.4,17.5,17.3,17.6,17z"/>
	<path class="st16" d="M14.9,15.1c-0.2,0-0.5,0-0.7-0.1C14.4,14.9,14.7,14.9,14.9,15.1z"/>
	<path class="st20" d="M18.1,17.9L18,17.6c-0.1-0.1-0.1-0.1,0-0.2c0,0,0,0,0,0h0h0.1c0,0.2,0.2,0.3,0.2,0.4
		C18.3,17.9,18.2,18,18.1,17.9C18.1,17.9,18.1,17.9,18.1,17.9z"/>
	<path class="st21" d="M4.3,32.7c0-0.2-0.2-0.2-0.3-0.3s0.1-0.2,0.2-0.3c0.1,0,0.3,0,0.3,0.1c0.1,0.2,0.2,0.4,0.5,0.3
		c0.3,0.1,0.6,0.3,0.8,0.5c0.1,0.2,0.4,0.2,0.4,0.5c0,0,0,0.1-0.1,0.1c-0.2,0-0.3,0.1-0.4,0.3l-0.1-0.1c-0.2-0.2-0.5-0.3-0.7-0.5
		S4.6,32.9,4.3,32.7z"/>
	<path class="st22" d="M19.2,21.9H19c-0.2-0.1-0.2-0.4-0.5-0.4s-0.4-0.2-0.2-0.5c0.2-0.1,0.4-0.3,0.5-0.5c0,0,0.1,0,0.1,0
		c0.2,0.2,0.3,0,0.4-0.1s0.2,0,0.2,0.1v0.2c0.1,0.2,0.2,0.4,0.1,0.6C19.4,21.4,19.3,21.7,19.2,21.9z"/>
	<path class="st23" d="M18.1,17.9h0.2l0.1,0.2c0.1,0.2,0.2,0.4,0.3,0.6c0.3,0.4,0.5,0.8,0.6,1.2h-0.1c-0.2-0.1-0.4-0.3-0.5-0.5
		c0-0.1-0.1-0.2-0.1-0.2c0-0.1-0.1-0.2-0.2-0.3l-0.1-0.1c-0.1-0.1-0.2-0.3-0.2-0.5c0,0,0-0.1,0-0.1C18.1,18.1,18.1,18,18.1,17.9
		L18.1,17.9z"/>
	<path class="st24" d="M0.9,29c-0.1-0.1-0.1-0.3-0.1-0.4c0.4-0.3,0.5-0.6,0.1-0.9c-0.1-0.1-0.2-0.1-0.2-0.2c0.1-0.4,0.1-0.8-0.1-1.1
		c0.1-0.1,0.1-0.2,0.2-0.2c0.1,0,0.2,0,0.3,0c0.1,0.5,0,1.1,0.4,1.5c0,0.4,0.2,0.8,0.6,1c0.1,0.2,0.2,0.4,0.3,0.6
		c-0.2,0.2,0.2,0.3,0.2,0.5c-0.1,0.1-0.3,0.2-0.4,0.1c0,0-0.1,0-0.1,0c-0.2-0.2,0-0.6-0.2-0.8c-0.3,0-0.6,0-0.8-0.1L0.9,29z"/>
	<path class="st25" d="M1,29c0.3-0.2,0.6,0,0.8,0.1C1.5,29.2,1.2,29.6,1,29z"/>
	<path class="st26" d="M2,29.9h0.1c0.1-0.1,0.2,0,0.3,0.1s0,0.3-0.2,0.3l-0.3-0.2C1.9,30,1.9,29.9,2,29.9z"/>
	<path class="st27" d="M3.8,32.1L3.7,32c-0.1-0.2-0.2-0.3-0.4-0.4C3.1,31.4,3,31.2,2.9,31s0-0.2,0-0.2c0.2-0.1,0.4,0,0.6,0.1
		c0.1,0.1,0.1,0.3,0.2,0.4c0,0,0,0.1,0.1,0.1C4,31.7,4.1,31.9,3.8,32.1z"/>
	<path class="st1" d="M3,30.8c-0.1,0-0.1,0.1-0.1,0.2c-0.3-0.2-0.5-0.5-0.7-0.7c0.1-0.2,0.2-0.3-0.1-0.4c0.1-0.2,0.3-0.1,0.4-0.1
		s0.1,0,0.1,0.1c-0.2,0.5,0.4,0.4,0.5,0.6C3.2,30.6,3.1,30.8,3,30.8z"/>
	<path class="st28" d="M3.8,32.1c0.2-0.2,0-0.4,0-0.6c0.3-0.1,0.3,0.1,0.4,0.3c0.1,0.2,0.1,0.3,0,0.5L4,32.4L3.8,32.1z"/>
	<path class="st29" d="M3.2,31.6c0.3,0,0.4,0.2,0.4,0.4C3.5,31.9,3.4,31.8,3.2,31.6z"/>
	<path class="st30" d="M5.7,14.4h0.1c0.1,0.1,0.4,0.1,0.5,0.2s0.4,0.3,0.2,0.6s-0.4,0.3-0.6,0.2s-0.4,0-0.6,0H4.7
		c-0.2,0-0.4,0-0.4-0.2c0.2-0.3,0.4-0.5,0.8-0.3c0.1,0.1,0.2,0,0.3-0.1c0,0,0-0.1,0-0.2C5.3,14.4,5.6,14.4,5.7,14.4z"/>
	<path class="st31" d="M4.3,15.3c0.1,0.1,0.3,0.1,0.4,0.1c0.1,0.1,0.1,0.1,0.1,0.2c0,0.2,0,0.4-0.2,0.5s-0.5,0.4-0.9,0.1
		c-0.1-0.1-0.1-0.3,0-0.4C3.8,15.6,4,15.5,4,15.3L4.3,15.3z"/>
	<path class="st32" d="M4,15.3c0,0.1,0.2,0.2,0.1,0.3s-0.2,0.1-0.4,0.1s-0.2,0.1-0.2-0.1l0.2-0.3H4z"/>
	<path class="st33" d="M13.6,33.5L13,33.8v-0.1c0-0.1,0-0.3,0.1-0.4c0.1-0.2,0.2-0.3,0.4-0.4c0.2-0.1,0.5-0.1,0.5-0.3
		c0-0.1,0.2-0.2,0.3-0.2c0.1,0,0.1,0,0.1,0.1c0.1,0.3-0.1,0.4-0.2,0.6C14,33.2,13.8,33.3,13.6,33.5z"/>
	<path class="st34" d="M14.1,33l0.2-0.6c0.2-0.2,0.4-0.2,0.6,0c0,0,0,0.1,0,0.1c0,0,0,0,0,0C14.8,32.8,14.4,32.8,14.1,33z"/>
	<path class="st35" d="M15,32.5L15,32.5c-0.1-0.2-0.3-0.3-0.3-0.5c0.1-0.2,0.1-0.3,0.3-0.4c0.1,0,0.2,0,0.3,0
		c0.1,0.1,0.2,0.2,0.1,0.3c-0.2,0.1-0.3,0.3-0.4,0.4L15,32.5z"/>
	<path class="st36" d="M15.1,32.4c0-0.2,0-0.5,0.3-0.4c0.1-0.1,0.1-0.1,0.2,0c0,0,0,0,0,0v0.1L15.1,32.4z"/>
	<path class="st37" d="M17.4,30.5l-0.3,0.2c-0.1-0.1-0.2,0-0.2,0.1c0,0.1-0.1,0.2-0.2,0.3c0,0,0,0.1,0,0.1h-0.1
		c-0.2-0.2-0.3-0.4-0.5-0.7c0.2-0.7,0.4-1,0.9-1c0.2,0.2,0.4,0.3,0.6,0.5L17.4,30.5z"/>
	<path class="st38" d="M16.2,30.6c0.2,0.1,0.4,0.3,0.4,0.6c-0.3,0.3-0.6,0.4-0.9,0.5c-0.2,0.1-0.1,0.1-0.1,0.2h-0.2l-0.1-0.3
		c0,0,0.1-0.1,0.1-0.1c0.1,0,0.2,0,0.4-0.1c0.2-0.1,0.3-0.3,0.4-0.6C16.1,30.8,16.1,30.7,16.2,30.6L16.2,30.6z"/>
	<path class="st39" d="M18.3,29.4c-0.1,0.3-0.3,0.5-0.6,0.6c-0.1-0.1-0.1-0.2-0.1-0.3c0-0.4-0.2-0.8,0.4-0.9
		C18.3,28.9,18.1,29.2,18.3,29.4z"/>
	<path class="st40" d="M18.6,28.7c-0.2,0-0.3,0-0.4-0.1c0-0.1,0-0.3,0-0.4c0.3-0.3,0.5,0,0.6,0.2C18.8,28.5,18.7,28.6,18.6,28.7z"/>
	<path class="st40" d="M18,28.8c-0.4,0.2-0.3,0.6-0.3,0.9c-0.4-0.1-0.2-0.4-0.3-0.6c0-0.1,0-0.2,0.1-0.3c0-0.1,0.1-0.1,0.1-0.2
		c0.1-0.1,0.2-0.1,0.3,0L18,28.8z"/>
	<path class="st41" d="M17.9,28.6l-0.2,0.1c-0.1-0.1,0-0.2,0-0.2s0.3-0.1,0.4-0.2h0.1c0.1,0.1,0.1,0.2,0,0.3L17.9,28.6z"/>
	<path class="st42" d="M2.9,16.3l0.2-0.1c0.1,0,0.1,0,0.1,0.1c0,0.2,0.1,0.3,0.2,0.5c0.1,0.2,0.1,0.4-0.2,0.5S3,17,2.9,16.8
		s0-0.2,0-0.3L2.9,16.3z"/>
	<path class="st9" d="M2.2,17.6C2.4,17.4,2.3,17,2.7,17v0.1c0,0.1,0,0.2-0.1,0.3C2.5,17.5,2.5,17.7,2.2,17.6L2.2,17.6z"/>
	<path class="st43" d="M1.9,18.2c-0.1,0-0.1-0.1-0.1-0.2L2,17.7h0.2c0,0,0.1,0.1,0,0.2c0,0.1-0.1,0.1-0.1,0.2
		C2.1,18.1,2,18.2,1.9,18.2z"/>
	<path class="st44" d="M2.9,16.5v0.3c0,0.1,0,0.2,0,0.2c-0.1,0.1-0.2,0.1-0.2,0l0,0C2.9,16.9,2.8,16.6,2.9,16.5z"/>
	<path class="st41" d="M18.9,27.4c0,0.3,0,0.6,0.1,0.8l-0.1,0.1h-0.2c-0.2-0.1-0.3-0.3-0.5-0.1l0,0C18,28.2,18,28.2,18,28
		c0-0.1,0.1-0.1,0.1-0.2c0,0,0.1,0,0.1,0c0.4,0.1,0.4-0.2,0.5-0.4C18.8,27.4,18.9,27.4,18.9,27.4z"/>
	<path class="st45" d="M17.5,29c0.2,0.2,0,0.5,0.2,0.7V30c0,0,0,0.1,0,0.1c-0.3,0-0.6,0-0.6-0.4c-0.1-0.2-0.1-0.4,0-0.5
		C17.2,29,17.3,28.9,17.5,29z"/>
	<path class="st44" d="M3.2,16.3l-0.1-0.1c0-0.3,0.2-0.5,0.4-0.6c0,0.1,0.1,0.1,0.2,0.1v0.5C3.6,16.3,3.4,16.3,3.2,16.3z"/>
	<path class="st46" d="M16.9,30.8c-0.1-0.1-0.1-0.3,0-0.4s0.1,0.1,0.2,0.3c0,0,0,0.1,0,0.1C17,30.9,16.9,30.9,16.9,30.8z"/>
	<path class="st47" d="M16.9,30.8H17c-0.1,0.1-0.2,0.2-0.3,0.3L16.9,30.8z"/>
	<path class="st48" d="M2.1,18l0.1-0.1c0.3,0.2,0.5,0.1,0.7-0.1c0.5,0.1,0.6,0.2,0.5,0.7c-0.1,0.3-0.1,0.7,0,1c0,0.3,0,0.7-0.5,0.5
		c-0.1,0-0.2,0-0.2,0.2c0.1,0.4-0.2,0.5-0.5,0.4c-0.1,0-0.2,0-0.3,0.1c0.2,0.3,0.5,0.6-0.1,0.8c-0.2,0-0.3-0.1-0.5-0.2
		c0,0-0.1-0.1-0.1-0.1c-0.1-0.1-0.1-0.2,0-0.4c0.3-0.3,0.4-0.8,0.1-1.1c-0.1-0.2,0.1-0.5,0.3-0.7l0.1-0.1C2,18.9,2,19.3,2.3,19.6
		C2.2,19,1.9,18.5,2.1,18z"/>
	<path class="st49" d="M1.7,18.8c0,0.2,0,0.3-0.1,0.5c-0.1,0.1-0.1,0.2,0,0.3c0.4,0.3,0.2,0.6,0,0.8c-0.1,0.1-0.2,0.3-0.2,0.5
		C1.4,21,1.2,21,1.2,21c-0.2-0.7-0.1-1.4,0.2-2v-0.1L1.7,18.8z"/>
	<path class="st50" d="M2.1,18c0,0.4,0.1,0.8,0.3,1.2c0.1,0.2,0.1,0.5-0.1,0.5S2.1,19.5,2,19.4c-0.1-0.2-0.2-0.4-0.2-0.7l0,0
		c0.1-0.1,0.2-0.2,0.1-0.3v-0.2L2.1,18z"/>
	<path class="st51" d="M1.9,18.4c0.2,0.2,0.1,0.3-0.1,0.3L1.9,18.4z"/>
	<path class="st12" d="M1.4,19c-0.1,0.7-0.2,1.3-0.2,2C1,21.4,1,21.7,0.9,22.1c0,0.1-0.1,0.3-0.3,0.3c-0.1,0-0.1,0-0.1-0.1
		c-0.3-0.6,0.2-1.1,0.1-1.7c0-0.3-0.1-0.6,0.2-0.8S1,19.3,1.2,19L1.4,19z"/>
	<path class="st52" d="M18.5,18.8l0.1,0.1c0,0.2-0.3,0.3-0.3,0.5c-0.1,0.4-0.2,0.8,0.1,1.2c0.1,0.1,0,0.3-0.1,0.4
		c-0.2,0.3,0,0.3,0.2,0.4s0.1,0.1,0.1,0.1c-0.2,0.5,0,0.9,0.2,1.3c0,0.7,0.3,1.4,0.3,2.2c0.1,0.3,0,0.6-0.3,0.7
		c-0.3,0.1-0.3,0.6-0.6,0.7c-0.2,0-0.3-0.1-0.4-0.2c-0.4-0.3-0.4-0.5,0-0.7s0.4-0.5,0.2-0.8c-0.1-0.1-0.1-0.3,0-0.4
		c0-0.1,0.1-0.2,0-0.2c-0.4-0.2-0.3-0.7-0.5-1c-0.1-1.1-0.9-2.1-2-2.3c-0.2,0-0.4-0.1-0.5-0.3c-0.2-0.3-0.2-0.7-0.4-1
		c0-0.3,0.1-0.5,0.4-0.4s0.3,0,0.4-0.2s0.2-0.6,0.3-0.9c-0.1-0.1-0.4,0-0.3-0.3s0-0.5,0.3-0.6s0.3,0,0.4,0.2
		c0.1,0.1,0.2,0.3,0.4,0.3c0.4,0.1,0.7,0.5,0.6,1c0,0.1-0.1,0.2-0.1,0.3c-0.1,0.3-0.1,0.4,0.2,0.4s0.8,0.3,0.9-0.4
		C18.2,18.8,18.4,18.7,18.5,18.8z"/>
	<path class="st53" d="M15.6,18.1c0.1,0.5-0.2,0.9-0.3,1.4c0,0.2-0.2,0-0.3-0.1s-0.4-0.2-0.5,0.2c-0.1,0-0.2,0-0.2-0.1
		c0-0.6-0.5-0.9-0.8-1.3C13.5,18,13.2,18,13,17.9c-0.4-0.1-0.8-0.2-0.6-0.8c0-0.1-0.1-0.1-0.2-0.2c-0.1-0.3,0.3-0.4,0.3-0.6
		s0.1-0.2,0.2-0.1c0.4,0.3,0.8,0.7,1.1,1.1c0.1,0.1,0.2,0.2,0.3,0.2c0.2,0,0.3,0.2,0.3,0.4c0,0,0,0,0,0.1c-0.1,0.5,0.2,0.4,0.5,0.3
		C15.3,18.3,15.4,18.2,15.6,18.1z"/>
	<path class="st54" d="M9.9,13.8c0.6,0.3,1.3,0.5,2,0.5c-0.1,0.1-0.1,0.2-0.2,0.2c-0.1,0.2,0.3,0.2,0.2,0.4v0.1
		c-0.4,0-0.4,0.5-0.8,0.5c-0.1-0.1-0.2-0.1-0.3-0.1c-0.3,0-0.5-0.1-0.7-0.3c-0.2-0.4-0.5-0.7-0.9-0.8c-0.1,0-0.2-0.2-0.2-0.3
		c0,0,0,0,0,0c0.1-0.2,0.3-0.1,0.5-0.2C9.6,13.7,9.7,13.7,9.9,13.8L9.9,13.8z"/>
	<path class="st55" d="M16.8,16.5l0.5,0.3c0,0,0,0,0,0.1s0,0,0,0c0,0-0.1,0-0.1,0c0,0,0,0,0,0c-0.2,0-0.5,0-0.7,0
		c-0.4,0-0.8-0.2-1.2,0.2c-0.1,0.1-0.3,0.1-0.5,0c0,0,0,0,0-0.1c-0.1-0.2,0.2-0.2,0.3-0.3s0.5,0.1,0.5-0.3s-0.4-0.2-0.6-0.1
		s-0.2,0-0.3-0.1s0.1-0.2,0.2-0.2c0.4,0.2,1-0.2,1.4,0.3C16.4,16.6,16.6,16.5,16.8,16.5z"/>
	<path class="st56" d="M11,15.5c0.2,0,0.3-0.1,0.4-0.3s0.3-0.2,0.5-0.1c0.1,0.2,0.4,0.4,0.6,0.5c0.3,0.1,0.5,0.3,0.3,0.7
		c-0.1,0-0.1,0.1-0.1,0.2c-0.3,0.2-0.5,0.2-0.7-0.1c0-0.1-0.1-0.2-0.2-0.3C11.6,15.8,11.2,15.8,11,15.5z"/>
	<path class="st57" d="M11.9,15c-0.1-0.1-0.2-0.1-0.3-0.2s-0.2-0.2,0-0.3c0.6,0.3,0.6,0.3,0.9-0.1l0.5,0.4c0,0.2,0.5,0.4,0.1,0.7
		c-0.1,0.1-0.3,0.2-0.4,0S12.1,15.2,11.9,15z"/>
	<path class="st58" d="M14.9,15.4c0.2,0,0.4,0.1,0.3,0.3s-0.2,0.1-0.4,0.1c-0.3,0-0.6,0-0.9,0.1c-0.1,0-0.4,0.1-0.4-0.1
		s0.2-0.2,0.4-0.2h0.3C14.4,15.6,14.6,15.4,14.9,15.4z"/>
	<path class="st59" d="M18.5,18.8L18,18.9c-0.1,0-0.1-0.1-0.1-0.2c0,0,0.1-0.1,0.1-0.1c0.1-0.1,0.1-0.2,0.2-0.3L18.5,18.8z"/>
	<path class="st60" d="M14.9,15.4l-0.4,0.2c-0.2,0.1-0.3,0.1-0.3-0.1C14.3,15.3,14.6,15.2,14.9,15.4z"/>
	<path class="st61" d="M17.2,16.9h0.1c0.2,0.1,0.4,0.2,0.3,0.5C17.1,17.5,17,17.4,17.2,16.9z"/>
	<path class="st62" d="M17.6,17.5c0-0.2-0.2-0.3-0.3-0.5v-0.1l0.3,0.2c0.1,0.2,0.1,0.4,0.4,0.4v0.2C17.8,17.7,17.7,17.5,17.6,17.5z"
		/>
	<path class="st52" d="M18.2,18.3c0,0.1-0.1,0.3-0.2,0.3c0.1-0.2-0.2-0.4,0-0.6C18.1,18,18.1,18.2,18.2,18.3L18.2,18.3z"/>
	<path class="st59" d="M18.2,18.3c-0.1,0-0.2-0.2-0.2-0.3h0.1C18.2,18,18.2,18.2,18.2,18.3z"/>
	<path class="st63" d="M9.5,13.8C9.4,14,9.2,13.9,9.1,14c0,0.1,0,0.1,0.1,0.1c0.4,0.1,0.7,0.3,0.8,0.7c0.1,0.3,0.4,0.5,0.8,0.4
		c0,0.5-1,1.3-1.5,1.2c-0.1,0-0.2-0.1-0.2-0.1c-0.1-0.4,0-0.9,0.4-1.1c-0.3-0.2-0.6-0.5-1-0.2c-0.1,0.1-0.3,0-0.4-0.1
		c-0.4-0.3-0.9-0.4-1.4-0.2c-0.1,0-0.3,0-0.4-0.1c-0.2,0-0.3,0-0.4-0.2c1.1-0.3,2.1-0.6,3.2-0.7C9.2,13.8,9.4,13.7,9.5,13.8z"/>
	<path class="st64" d="M19,26.3c0.1,0,0.2,0,0.2-0.1c0.2-0.1,0-0.4,0.2-0.5c0,0.2,0,0.4,0.1,0.6c0,0.1-0.1,0.2-0.2,0.2s0,0.2,0,0.3
		c0,0.3-0.2,0.5-0.4,0.6h-0.1c-0.2,0.1-0.4,0.3-0.5,0.5h-0.1c-0.2-0.3,0-0.6,0.2-0.8s0.5-0.4,0.5-0.8C18.9,26.3,18.9,26.2,19,26.3z"
		/>
	<path class="st65" d="M5.8,33.1L5,32.6c-0.2-0.1-0.3-0.2-0.4-0.3c0-0.1-0.1-0.2,0-0.3s0.4,0,0.6,0C5.6,32,6,32.3,6.1,32.7
		c0,0.2,0.2,0.4,0,0.5C6,33.3,5.9,33.2,5.8,33.1z"/>
	<path class="st66" d="M4.6,32l0.1,0.3c-0.1,0.1-0.1,0.1-0.2,0c0,0,0,0,0,0l-0.3-0.1c-0.1-0.1-0.1-0.3-0.1-0.4
		c0.1-0.1,0.1-0.1,0.2-0.1C4.4,31.7,4.6,31.8,4.6,32z"/>
	<path class="st28" d="M4.5,32.3h0.2c0.1,0.1,0.2,0.2,0.3,0.3C4.7,32.9,4.6,32.8,4.5,32.3z"/>
	<path class="st59" d="M18.6,19.5h-0.1c-0.2,0.1-0.2-0.1-0.3-0.2c0.1-0.2,0.3-0.3,0.4-0.4l0.2,0.3C18.7,19.3,18.7,19.4,18.6,19.5z"
		/>
	<path class="st67" d="M3,30.8l0.1-0.3c-0.2-0.2-0.4-0.4-0.5-0.6l-0.1-0.1c-0.1-0.2-0.4-0.3-0.2-0.5c-0.1-0.3-0.2-0.6-0.1-0.9
		c0.3-0.5,0.3-0.5,0.8-0.2c0.1,0.1,0.2,0.1,0.4,0.2c0.2,0,0.3,0.2,0.3,0.5c0,0,0,0,0,0c0,0.2-0.1,0.3,0.2,0.3
		c0.8,0.1,0.8,0.2,0.8,1.1c-0.1,0.2-0.5,0.2-0.7,0.4l-0.1,0.1c-0.1,0.1-0.1,0.1-0.2,0.2C3.4,30.9,3.2,31,3,30.8z"/>
	<path class="st68" d="M2,28.7c-0.4-0.1-0.6-0.5-0.5-0.9c0,0,0,0,0-0.1h0.1c0.5,0.1,0.4,0.6,0.5,0.9C2.1,28.6,2,28.6,2,28.7z"/>
	<path class="st69" d="M1.5,27.6c-0.5-0.3-0.7-0.9-0.4-1.5l0,0c0,0,0.1,0,0.1,0c0.1,0.4,0,0.7,0.3,1C1.5,27.3,1.6,27.4,1.5,27.6
		L1.5,27.6z"/>
	<path class="st70" d="M2,28.7v-0.2c-0.1-0.1,0-0.2,0.1-0.2c0.1,0,0.2,0,0.2,0.1c0,0,0,0,0,0c0,0.3,0.1,0.6,0,0.9
		C2.1,29.2,1.9,28.9,2,28.7z"/>
	<path class="st71" d="M4.3,31.8H4.1C4,31.6,4,31.5,3.8,31.5v-0.1c0-0.1,0-0.2,0.1-0.3c0.3,0,0.4,0.2,0.4,0.5
		C4.3,31.7,4.3,31.7,4.3,31.8z"/>
	<path class="st72" d="M3.9,31.1l-0.1,0.2c-0.3,0-0.2-0.2-0.2-0.4s0-0.2,0.1-0.2c0.1,0.1,0.2,0.2,0.2,0.3
		C3.9,31.1,3.9,31.1,3.9,31.1z"/>
	<path class="st73" d="M2.6,29.9c0.4,0,0.5,0.3,0.5,0.6c-0.1,0-0.3-0.1-0.4-0.1C2.3,30.3,2.3,30.1,2.6,29.9z"/>
	<path class="st74" d="M6.3,14.7c0.4-0.1,0.8-0.1,1.2-0.1c0.2,0,0.3,0,0.4,0.1C8.1,15,8.4,15,8.6,14.9c0,0,0.1-0.1,0.1-0.1
		c0.1-0.1,0.3-0.1,0.4,0s0.4,0.3,0.7,0.5c-0.7,0.1-0.5,0.7-0.7,1.1c0,0.1-0.2,0.2-0.3,0.3c-0.2,0.2-0.5,0.3-0.7,0.2
		c-0.2-0.1-0.5,0.1-0.6-0.2s0.2-0.4,0.3-0.6s0.3-0.2,0.5-0.5c-0.3-0.2-0.8-0.1-0.9-0.6c0,0.1,0.1,0.2,0,0.4
		c-0.4,0.6-1.1,0.8-1.8,0.5l-0.2-0.1c-0.1-0.1-0.1-0.2-0.1-0.4h0.4C6.6,15.3,6.6,15.3,6.3,14.7z"/>
	<path class="st75" d="M5.4,15.4l0.1,0.3c0,0.2-0.2,0.2-0.3,0.1c-0.2,0-0.4-0.1-0.5-0.2v-0.2L5.4,15.4z"/>
	<path class="st76" d="M3.2,19.4c-0.1-0.3-0.1-0.6,0-0.9c0.1-0.3,0.2-0.7-0.3-0.7c-0.2-0.1-0.2-0.3-0.2-0.5c0-0.1,0.1-0.2,0.2-0.3
		v-0.2l0.3,0.3c0.1,0.1,0.3,0.2,0.4,0s0-0.4-0.3-0.4s-0.2-0.2-0.1-0.4c0.1-0.1,0.3-0.2,0.5-0.1c0.3,0.1,0.6-0.1,0.8-0.2
		c0.2,0,0.5,0,0.7,0.1c0.3,0,0.6,0.2,0.8,0.5c0,0.4-0.1,0.7-0.4,1c-0.1,0.1-0.3,0.1-0.4,0.3c-0.3,0.4-0.7,0.7-1.1,0.9
		c-0.1,0.1-0.3,0.2-0.4,0.3c-0.1,0.1-0.1,0.2-0.2,0.3S3.4,19.5,3.2,19.4z"/>
	<path class="st77" d="M5.2,17.9c-0.1-0.2-0.1-0.3,0.2-0.3s0.7-0.7,0.6-0.9c-0.1-0.3-0.4-0.5-0.8-0.4c-0.2,0-0.5,0-0.7-0.2l0.1-0.4
		C5,15.4,5.2,16,5.5,15.7l0,0c0.5,0.4,1.2,0.2,1.6-0.2c0.2-0.2,0.3-0.2,0.1-0.4S7,14.8,7.2,14.7c0.1-0.1,0.2,0,0.2,0c0,0,0,0,0,0
		c0.1,0.4,0.5,0.6,0.9,0.5c0,0,0,0,0,0c0.1,0,0.2,0.1,0.2,0.2c0,0.1,0,0.2-0.1,0.3c0,0,0,0,0,0C8,16,7.7,16.3,7.6,16.6
		c0.2,0.1,0.4-0.1,0.5,0.1C7.3,17.1,6.9,17.9,6,18C5.8,18,5.5,18.1,5.2,17.9z"/>
	<path class="st78" d="M13.3,32.7v-0.1c0-0.4,0.4-0.3,0.5-0.6c0.1-0.1,0.2-0.2,0.4-0.2l0.4-0.2h0.1c0.1,0,0.2,0,0.3,0.1
		c0,0.1-0.1,0.3-0.2,0.3c-0.2,0.2-0.4,0.2-0.5,0.4c-0.1,0-0.2,0-0.2,0.1c0,0,0,0,0,0.1C13.8,32.7,13.6,32.7,13.3,32.7z"/>
	<path class="st79" d="M14.3,32.4c0-0.4,0.2-0.4,0.5-0.4c0,0.2,0.1,0.3,0.2,0.4C15,32.4,14.3,32.4,14.3,32.4z"/>
	<path class="st80" d="M15,31.7h-0.3c-0.1-0.2,0-0.3,0.2-0.4c0.1,0,0.2,0,0.3,0c0.2,0.1,0.3,0.2,0.2,0.4H15z"/>
	<path class="st81" d="M17.2,29.2c0,0.2,0,0.4-0.1,0.5c-0.6,0-0.6,0.6-0.8,0.9l0,0c-0.1,0.2-0.3,0.3-0.5,0.2c0-0.1,0-0.1,0-0.2
		c0.2-0.2,0.4-0.3,0.5-0.5c0.1-0.1,0.2-0.2,0.2-0.4c0.2-0.4,0.3-0.7,0.8-0.7C17.2,29.1,17.2,29.1,17.2,29.2
		C17.2,29.1,17.2,29.2,17.2,29.2z"/>
	<path class="st82" d="M16.2,30.8c0.1,0.4-0.3,0.5-0.4,0.7c-0.1,0.1-0.3,0.1-0.3-0.1c-0.1-0.1-0.1-0.2,0-0.3
		C15.7,31,15.9,30.7,16.2,30.8z"/>
	<path class="st83" d="M16.2,30.8c-0.3,0-0.5,0.2-0.6,0.4s-0.1,0.4,0.2,0.4c-0.1,0.1-0.3,0.1-0.4,0.1c0-0.1-0.1-0.3-0.2-0.3
		c0-0.4,0.3-0.4,0.5-0.5l0.5-0.2L16.2,30.8z"/>
	<path class="st84" d="M18.9,26.4c0,0.3-0.1,0.6-0.4,0.7c-0.3,0.2-0.4,0.5-0.4,0.8L18.1,28c-0.1,0.2-0.1,0.3-0.3,0.4
		s-0.1,0.1-0.1,0.2l-0.1,0.1c-0.1,0.1-0.2,0.3-0.4,0.2c-0.1-0.2-0.1-0.4,0-0.5c0.1-0.1,0.1-0.2,0.2-0.3c0.2-0.1,0.2-0.2,0.2-0.4
		c0-0.5,0.2-0.9,0.6-1.1C18.5,26.6,18.6,26.3,18.9,26.4z"/>
	<path class="st41" d="M17.2,29c0.1-0.1,0.2-0.2,0.4-0.2c0,0.1,0,0.2-0.1,0.2l-0.3,0.2V29C17.2,29.1,17.2,29.1,17.2,29L17.2,29z"/>
	<path class="st85" d="M17.8,28.5l0.3-0.4c0,0.1,0,0.2,0.1,0.2C18.2,28.5,18,28.4,17.8,28.5z"/>
	<path class="st31" d="M3.4,16.7c0.1,0,0.3-0.3,0.4-0.1s0.2,0.6-0.1,0.8s-0.3-0.1-0.4-0.2C3.6,17.1,3.4,16.9,3.4,16.7z"/>
	<path class="st50" d="M2.8,17.3l0.1,0.5c-0.3,0.1-0.3,0.4-0.4,0.6c-0.2-0.2,0-0.5-0.3-0.6v-0.2c0.2,0,0.2-0.3,0.4-0.3
		C2.7,17.3,2.8,17.3,2.8,17.3C2.8,17.3,2.8,17.3,2.8,17.3z"/>
	<path class="st86" d="M2.8,17.3H2.6L2.7,17h0.2C2.9,17.1,3,17.3,2.8,17.3z"/>
	<path class="st87" d="M18.3,27.9c0-0.4,0.1-0.6,0.5-0.5C18.8,27.7,18.9,28.2,18.3,27.9z"/>
	<path class="st88" d="M1.2,26.2H1.1c0-0.6-0.1-1.2-0.4-1.7c-0.1,0-0.1-0.1-0.1-0.2c0.2-0.1,0.4-0.2,0.6-0.1
		c0.3,0.2,0.2,0.5,0.4,0.8c0.1,0.2,0,0.4-0.1,0.5C1.3,25.7,1.4,26,1.2,26.2z"/>
	<path class="st89" d="M5.2,17.9C5.5,18,5.8,17.8,6.1,18S6,18.3,5.8,18.4c-0.3,0.1-0.5,0.1-0.8,0.1c0,0.2,0.2,0.5,0.1,0.7
		c0,0.1-0.1,0.1-0.1,0.1c-0.3,0.7-0.9,1.2-1.6,1.3c-0.1,0-0.3,0-0.4,0c0.2,0.2,0.4,0.4,0.2,0.7c-0.1,0.2-0.4,0.3-0.6,0.2
		c-0.2-0.1-0.5,0.2-0.7,0c0-0.1,0-0.1,0-0.2c0.2-0.2,0.5-0.4,0-0.5c-0.1,0-0.2-0.1-0.1-0.2c0.1-0.1,0.1-0.2,0.2-0.2
		c0.1-0.1,0.3-0.1,0.4,0c0.3,0.1,0.4,0,0.3-0.3c-0.2-0.4,0.1-0.5,0.3-0.4c0.6,0.3,0.3-0.2,0.4-0.4l0.3-0.1c0.1-0.1,0.4-0.1,0.1-0.3
		L5.2,17.9z"/>
	<path class="st90" d="M1.8,21.3v0.2c0.2,0.2,0.1,0.5,0,0.7c-0.2,0.2-0.2,0.5-0.1,0.7C2,23.3,2,23.7,1.8,24.1c0,0.1,0,0.2,0,0.3
		c0,0.2-0.1,0.3-0.2,0.5L1.6,25c-0.3-0.2-0.3-0.5-0.3-0.7V24c-0.2-0.5,0-1-0.3-1.5c0,0,0-0.1,0-0.1c0.2-0.4,0.3-0.8,0.3-1.2
		c0-0.1,0-0.1,0.1-0.1C1.6,21.1,1.7,21.1,1.8,21.3z"/>
	<path class="st91" d="M1.4,21.1c0,0.5,0.1,1-0.3,1.3c-0.1,0.1,0,0.2,0,0.3c0.3,0.4,0.1,0.9,0.1,1.3c-0.1,0-0.3-0.1-0.3-0.2
		c0.1-0.6-0.3-1.1,0-1.7c0-0.4-0.1-0.9,0.3-1.1h0.2L1.4,21.1z"/>
	<path class="st92" d="M12.3,16.9c0.1,0,0.2-0.1,0.3,0c0.1,0,0.1,0.1,0,0.2c0,0,0,0,0,0c-0.3,0.2-0.1,0.3,0.1,0.4s0.1,0.1,0.1,0.1
		c0.7,0,1,0.6,1.4,0.9s0.1,0.6,0.3,0.9s0.3,0.6,0.4,0.9c0.1,0.2,0.1,0.4,0,0.5c-0.3,0.2-0.5,0-0.5-0.3c0-0.4-0.3-0.7-0.7-0.8
		c-0.4-0.2-0.7-0.4-1.1-0.6c-0.2-0.3-0.5-0.5-0.9-0.6c-0.3-0.1-0.5-0.3-0.5-0.7c0.4-0.2,0.8-0.5,0.8-1
		C12.1,16.9,12.2,16.9,12.3,16.9z"/>
	<path class="st93" d="M18.3,26.8c-0.4,0.3-0.6,0.8-0.5,1.2c0.1,0.3-0.3,0.1-0.4,0.2c-0.1,0-0.2-0.1-0.3-0.2
		c-0.2-0.1-0.3-0.3-0.1-0.5c0.1-0.1,0.2-0.3,0.2-0.5c0.2-0.4,0.2-0.8,0-1.2c0-0.4,0.4-0.6,0.5-1c0-0.2-0.1-0.4-0.2-0.5
		C17.3,24,17,24,16.7,24c-0.3-0.1-0.5-0.2-0.3-0.5s0.1-0.5,0.2-0.7c0.3,0,0.7,0,1,0.2c0.1,0.2,0.4,0.2,0.3,0.5
		c-0.1,0.1,0.1,0.2,0.1,0.2c0.3,0.1,0.4,0.3,0.1,0.5s0,0.3,0.1,0.4c0.2,0.2,0.1,0.6-0.1,0.7c0,0-0.1,0-0.1,0.1
		c-0.5,0.3-0.5,0.4,0,0.7c0.1,0.1,0.2,0.1,0.3,0.2C18.4,26.5,18.5,26.6,18.3,26.8C18.3,26.8,18.3,26.8,18.3,26.8z"/>
	<path class="st94" d="M17.6,23c-0.3,0.1-0.7,0-0.9-0.2l0-0.1c0-0.3,0-0.6-0.4-0.7c-0.1-0.2-0.3-0.3-0.4-0.5
		c0.2-0.2,0.2-0.4-0.1-0.5c-0.2,0-0.4,0-0.7,0c-0.1,0-0.1,0-0.1-0.1l0.1-0.5c0.2,0.1,0.5,0.2,0.7,0.2c0.4-0.1,0.7,0.3,1,0.5
		C17.3,21.6,17.7,22.3,17.6,23z"/>
	<path class="st95" d="M18.3,26.8v-0.4c0-0.3,0.1-0.6,0.4-0.7c0,0.3,0.5,0.3,0.3,0.6l-0.1,0.1C18.7,26.5,18.6,26.8,18.3,26.8z"/>
	<path class="st96" d="M18.2,19.3c0.2,0,0.2,0.1,0.3,0.2c0.2,0.2,0,0.4,0,0.6c0,0.1,0,0.3-0.1,0.4l0,0c-0.4-0.1-0.3-0.5-0.3-0.7
		S18.2,19.5,18.2,19.3z"/>
	<path class="st97" d="M12.3,16.9c0,0-0.1,0.1-0.1,0.1c0.1,0.6-0.3,0.9-0.8,1c-0.4,0.1-0.7-0.1-0.8-0.5c0-0.3,0.2-0.5,0.6-0.5
		c0.2,0,0.3-0.1,0.2-0.3s-0.4-0.3-0.2-0.6c0.2-0.2,0.5-0.4,0.8-0.4c0.1,0,0.2,0.1,0.2,0.3c0.1,0.4,0.3,0.4,0.6,0.3
		C12.7,16.7,12.3,16.6,12.3,16.9z"/>
	<path class="st52" d="M15.2,18.6c0,0.2-0.1,0.2-0.2,0.2c-0.1,0-0.2,0-0.2-0.1c0,0,0,0,0,0c0-0.1,0.1-0.2,0.2-0.3c0,0,0,0,0,0
		C15,18.5,15.1,18.5,15.2,18.6z"/>
	<path class="st98" d="M11.9,15.9L11.7,16c-0.3,0.2-0.3,0.6-0.2,0.8c0.1,0.1,0,0.2,0,0.3c-0.1,0.1-0.2,0.2-0.3,0.1
		c-0.4-0.3-0.4,0.1-0.5,0.3c-0.4,0.2-0.5-0.2-0.8-0.4S9.5,17,9.2,17s-0.6-0.1-0.4-0.5l0.3-0.2c0.3,0.1,0.7,0.3,0.8-0.3
		c0-0.2,0.3-0.1,0.4-0.2s0.5-0.3,0.5-0.6c0.1,0,0.2,0.1,0.2,0.2L11.9,15.9z"/>
	<path class="st74" d="M6.1,32.7c-0.2-0.3-0.5-0.5-0.8-0.7c0-0.1,0-0.1,0-0.2c0.4-0.1,0.9-0.1,1.2-0.4c0.1-0.1,0.3,0,0.4,0.1
		c0.1,0.3-0.2,0.7,0.1,1c0,0,0,0.1,0,0.1C6.6,33.1,6.5,33.1,6.1,32.7z"/>
	<path class="st99" d="M5.2,31.8V32c-0.2,0.2-0.4,0-0.6,0l-0.3-0.2c-0.1-0.2-0.1-0.5-0.4-0.6V31c0.1-0.1,0.2-0.2,0.4-0.2
		c0.5-0.1,0.9,0.3,1,0.7C5.2,31.6,5.2,31.7,5.2,31.8z"/>
	<path class="st100" d="M2.3,28.4l-0.2-0.1c-0.2,0-0.2-0.2-0.1-0.3c0.1-0.1,0.2-0.4,0.5-0.4c0.2,0,0.3,0,0.5,0.1
		c0.4,0.2,0.8,0.3,1.3,0.3c0.1,0.3,0.3,0.5,0.6,0.5c0.3,0.1,0.6,0.4,0.9,0.6C6,29.2,6.1,29.5,6,29.7c0,0.6,0.5,0.9,1.2,0.7
		c0.2-0.1,0.5-0.2,0.5,0.2c0,0,0,0.1,0,0.1S7.5,31,7.7,31.1s0.3-0.1,0.4-0.2c0.3-0.3,0.5-0.3,0.8,0.1c0.2,0.3,0.3,0.6,0.3,1
		c0,0.1,0,0.3-0.1,0.3c-0.1,0-0.2,0-0.2,0c-0.5-0.1-1-0.3-1.4-0.6c-0.9-0.6-1.9-0.7-2.8-1.3v-0.1c0-0.2-0.2-0.4,0-0.6
		s-0.1-0.2-0.2-0.3c-0.3-0.1-0.6-0.1-0.9-0.1c-0.1-0.2,0.1-0.2,0.1-0.4s0-0.5-0.1-0.4c-0.5,0.4-0.6-1-1-0.2L2.3,28.4z"/>
	<path class="st72" d="M3.8,30.6c0.2-0.2,0.4-0.4,0.7-0.3l0,0c0.1,0.1,0.3,0.2,0.2,0.5s-0.3,0.1-0.5,0.1C4.1,30.8,3.9,30.7,3.8,30.6
		z"/>
	<path class="st101" d="M3.8,30.6c0.2,0,0.3,0.1,0.4,0.2s0,0,0,0.1s0,0,0,0S4,31,3.9,31S3.7,30.8,3.8,30.6L3.8,30.6z"/>
	<path class="st67" d="M4.3,27.9c-0.4,0-0.8,0.2-1.2-0.1c-0.2-0.2-0.9,0-1,0.2c0,0.1,0,0.2,0.1,0.2l-0.1,0.2
		c-0.3-0.2-0.1-0.7-0.5-0.8l-0.1-0.4c0.1-0.2-0.1-0.4,0.1-0.5c0,0,0.1,0,0.1,0c0.1,0.2,0.2,0.4,0.5,0.4s0.2,0,0.3-0.2
		s0.1-0.4,0.4-0.4c0,0.1,0.1,0.1,0.1,0.2c0,0,0,0.1,0,0.1c0,0.2-0.2,0.5,0.2,0.6c0.1,0,0.3,0,0.4,0c0.2,0.1,0.3,0.3,0.5,0.1
		c0.1,0,0.2,0,0.4,0c0.2,0.1,0.4,0.1,0.4-0.2c0-0.1,0-0.3,0.2-0.3c0.3,0.1,0.2,0.4,0.3,0.7C5.1,28.2,4.9,28.3,4.3,27.9z"/>
	<path class="st102" d="M1.5,26.7c0,0.2,0.1,0.4-0.1,0.5c-0.3-0.3-0.4-0.7-0.2-1c0-0.2-0.1-0.5,0.2-0.6c0.1,0,0.1,0,0.2,0.1
		C1.7,26,1.7,26.4,1.5,26.7z"/>
	<path class="st103" d="M5,19.2v-0.1c0-0.4,0.2-0.7,0.6-0.8c0.2,0,0.5,0,0.5-0.3c0.5-0.1,0.9-0.4,1.2-0.8c0.2-0.3,0.7-0.1,0.9-0.4
		h0.4c0.2,0.5-0.1,1-0.5,1.2c-0.4,0.2-0.7,0.5-1,0.8c-0.2,0.2-0.4,0.2-0.7,0.1c-0.4-0.1-0.8,0.1-1,0.5c-0.1,0.2-0.1,0.4-0.3,0.4
		C4.8,19.6,4.8,19.4,5,19.2z"/>
	<path class="st104" d="M5.2,19.3c0.2-0.4,0.6-0.6,1-0.6c0.2,0.1,0.5,0.1,0.6-0.1c0.2-0.3,0.5-0.5,0.9-0.7c0.5-0.2,0.6-0.7,0.7-1.2
		l0.3-0.2c0,0.4,0.2,0.5,0.5,0.4s0.5-0.1,0.5,0.3s-0.2,0.3-0.4,0.4C9,17.8,8.6,17.7,8.2,18c-0.6,0.4-1.2,0.8-1.8,1.3
		c-0.2,0.2-0.6,0.3-0.9,0.2C5.5,19.5,5.3,19.4,5.2,19.3z"/>
	<path class="st48" d="M3.7,19c0.2,0,0.5,0,0.4,0.3s-0.3,0-0.5,0L3.7,19z"/>
	<path class="st105" d="M14,32.1c-0.1,0.3-0.5,0.2-0.6,0.5c-0.2,0.1-0.3,0.4-0.6,0.3c-0.1-0.2-0.4-0.4-0.6-0.3
		c-0.2,0-0.4,0.1-0.5-0.1c0-0.4,0.1-0.8,0.3-1.1c0.2-0.3,0.3-0.6,0.3-1c0-0.3,0.3-0.3,0.5-0.4s0.4,0,0.6-0.2c-0.3,0-0.5,0.1-0.7,0.1
		c-0.3,0-0.5-0.2-0.5-0.5c0-0.3,0.2-0.3,0.5-0.3s0.1,0.4,0.3,0.3c0.6-0.4,1,0,1.4,0.4c0.1,0.3,0.6,0.1,0.7,0.5
		c-0.1,0.2-0.4,0.3-0.3,0.7c0,0,0,0.1-0.1,0.1c-0.2,0-0.5,0.1-0.7,0.1c-0.4,0.2-0.4,0.4-0.1,0.7C13.9,32,14,32,14,32.1z"/>
	<path class="st106" d="M11.6,32.5c0.2,0,0.5,0,0.8,0c0.4-0.1,0.4,0.2,0.4,0.4c-0.2,0.1-0.3,0.2-0.5,0.2c-0.8-0.3-1.5,0.3-2.3,0.2
		c-0.4,0-0.9,0-1.3,0c-0.1-0.1,0-0.3,0.1-0.3c0,0,0,0,0.1,0c0.5-0.1,1-0.3,1.4-0.7c0.1-0.1,0.2-0.1,0.2-0.1
		C10.8,32.4,11.2,32.3,11.6,32.5z"/>
	<path class="st107" d="M14,32.1c-0.1-0.2-0.6,0-0.5-0.5c0.2-0.4,0.6-0.6,1-0.6l0.2,0.1c0.2,0,0.3,0.1,0.2,0.3l-0.2,0.3h-0.1
		c-0.1,0.1-0.2,0.1-0.3,0.2L14,32.1z"/>
	<path class="st105" d="M14.3,31.9c0-0.3,0.2-0.2,0.3-0.2C14.5,31.8,14.4,31.9,14.3,31.9z"/>
	<path class="st108" d="M14.9,31.4c0-0.1-0.1-0.3-0.2-0.3v-0.1c0.2-0.1,0.4-0.2,0.5-0.3c0.1,0,0.3,0,0.4,0c0,0,0.1,0,0.1,0v0.2
		c-0.1,0.2-0.4,0.3-0.5,0.5L14.9,31.4z"/>
	<path class="st109" d="M15.6,30.6c-0.1,0.2-0.2,0-0.3,0s-0.3,0-0.3-0.3c-0.1-0.1-0.3-0.2-0.4-0.1c-0.2,0.1-0.3-0.1-0.3-0.3
		c0-0.1,0-0.2,0-0.2c0.3-0.4,0.7-0.6,1.2-0.8c0.3-0.1,0.5-0.3,0.5-0.7c0-0.3,0.1-0.5,0.3-0.8c0.1-0.1,0.2-0.2,0.4-0.2
		c0.2,0.1,0.1,0.2,0.1,0.4c0,0.2,0,0.4,0,0.6c0,0.2,0.1,0.3,0.3,0.3c0.1,0.2,0,0.4-0.2,0.5c0,0,0,0,0,0c-0.3,0.1-0.4,0.4-0.3,0.7
		c0,0,0,0,0,0c0,0.1-0.1,0.3-0.2,0.3c0,0-0.1,0-0.1,0c-0.2,0-0.5-0.2-0.7,0S15.7,30.4,15.6,30.6z"/>
	<path class="st110" d="M15.6,30.6c-0.1-0.2-0.6-0.3-0.3-0.6s0.5,0,0.8,0c0,0,0.1,0.1,0.1,0.1c0,0.3-0.2,0.5-0.5,0.5L15.6,30.6z"/>
	<path class="st111" d="M16.4,29.8c-0.3-0.3-0.4-0.6,0.2-0.8c0.2,0,0.4-0.2,0.4-0.4c0.1-0.1,0.2-0.2,0.3-0.1L17.2,29v0.1
		C16.9,29.2,16.6,29.5,16.4,29.8z"/>
	<path class="st112" d="M17.3,28.5L17,28.6c-0.3,0.2-0.5,0.2-0.4-0.2c0-0.2,0-0.5,0-0.7s0.1-0.2,0-0.3c-0.1,0-0.2,0-0.2,0.1
		c0,0,0,0,0,0c0,0.3-0.4,0.5-0.3,0.9c0.1,0.2,0,0.3-0.1,0.4c-0.6,0.2-1.1,0.5-1.6,0.9c-0.2-0.2,0-0.4,0.1-0.5s0.3-0.3,0.2-0.6
		s-0.3-0.1-0.5,0c-0.4,0.1-0.4-0.3-0.5-0.4s-0.2-0.3-0.1-0.5c0.1-0.1,0.2-0.2,0.2-0.3c0.4-0.5,0.6-1,1.1-1.5c0.2-0.2,0-0.6,0.3-0.8
		c0.1,0,0.2,0,0.2,0.1c0.2,0.2,0.1,0.6,0.2,0.8c-0.1,0.4-0.4,0.8-0.5,1.2c0,0.1-0.1,0.2,0,0.3c0.3-0.3,0.8-0.2,0.8-0.8
		c0-0.1,0.1-0.1,0.1-0.2c0.5-0.1,1.1,0.1,1.5,0.4c0,0.1,0,0.1,0,0.2c-0.2,0.4-0.3,0.7,0.1,1L17.3,28.5z"/>
	<path class="st74" d="M11.6,32.5c-0.4,0.1-0.7,0-1.1-0.2c-0.1,0-0.1,0-0.2,0c-0.2,0.4-0.7,0.3-0.9,0.6c-0.1,0.1-0.2,0.2-0.3,0.1
		c0,0,0,0,0,0c-0.3-0.1-0.4,0.1-0.5,0.2H7.9c-0.1-0.1-0.3-0.1-0.4-0.2s-0.2-0.5-0.6-0.5l0,0c-0.1-0.3-0.1-0.6,0-0.9
		c0.1-0.1,0.3-0.2,0.5-0.1c0.4,0.4,1,0.3,1.4,0.6c0.1,0.1,0.3,0,0.2-0.2c-0.2-0.3-0.1-0.7-0.4-1s-0.4-0.2-0.6,0
		c-0.1,0.1-0.1,0.2-0.2,0.3c-0.2,0.1-0.4,0.1-0.5-0.1c-0.2-0.2,0-0.2,0.1-0.4c0.1-0.1,0.1-0.2,0.2-0.2c0.5-0.3,1,0,1.5,0
		c0.2,0.2,0.5,0.2,0.8,0.3c0.2,0.3,0.3,0.6,0.5,0.9c0.1,0.2,0.3,0.4,0.6,0.3c0.3,0,0.3-0.3,0.3-0.5c0,0,0-0.1,0-0.1
		c0.2-0.7,0.2-0.7-0.4-1c0-0.4,0.1-0.8,0.3-1.1c0.1-0.1,0.2-0.1,0.3-0.2c0.2-0.5,0.6-0.6,1.1-0.7c0.3,0.1,0.3,0.3,0.3,0.5
		c0,0.1-0.1,0.3-0.2,0.4c-0.2,0-0.5,0-0.4,0.3c0,0.2,0.3,0.4,0.5,0.4c0.1,0,0.1,0,0.2-0.1c0.3-0.1,0.5-0.2,0.8,0
		c-0.2,0.2-0.5,0.3-0.9,0.3c-0.3,0-0.7,0-0.5,0.5c0,0.1,0,0.2-0.1,0.3C11.7,31.4,11.8,32,11.6,32.5z"/>
	<path class="st113" d="M1.5,25.6l-0.1-0.1c0.1-0.2,0.1-0.3,0.1-0.5l0,0c0.4,0,0.6,0.4,0.9,0.6c0.1,0.1,0.1,0.3,0,0.3
		c0,0-0.1,0-0.1,0c-0.2,0.1-0.5,0.1-0.7-0.2C1.5,25.8,1.6,25.7,1.5,25.6z"/>
	<path class="st114" d="M1.6,24.5c0-0.2-0.1-0.5,0.1-0.7c0.1-0.1,0.1-0.3,0-0.4c-0.3-0.4-0.4-0.9,0-1.4c0.1-0.1,0.1-0.3,0.1-0.5
		c0.3-0.1,0.7-0.1,1,0c0.1,0.1,0.2-0.1,0.3-0.2c0.1-0.1,0.1-0.2,0-0.3c-0.1-0.1-0.5-0.2-0.3-0.4s0.4,0,0.6,0.1
		c0.1,0.4,0.1,0.8-0.1,1.1c-0.1,0.2-0.2,0.4-0.3,0.5c-0.4,0.1-0.4,0.5-0.7,0.8c-0.1,0.1-0.1,0.2,0,0.2c0,0,0,0,0,0
		c0.3,0.3,0.1,0.5-0.1,0.6s-0.1,0.5-0.3,0.6C1.8,24.6,1.7,24.6,1.6,24.5C1.6,24.6,1.6,24.5,1.6,24.5z"/>
	<path class="st115" d="M2.8,22.3c0.1-0.6,0.5-1,0.5-1.7c0.2-0.2,0.3-0.5,0.7-0.4s0.4-0.3,0.5-0.6s0.1-0.5,0.5-0.5
		c-0.1,0.2,0,0.4,0,0.5c0.1,0.5-0.2,0.7-0.5,1C4.2,21,4,21.5,4,22c-0.1,0.3-0.3,0.5-0.6,0.6C3.2,22.7,3,22.6,2.8,22.3L2.8,22.3z"/>
	<path class="st105" d="M1.6,24.5h0.1c0.5,0.1,0.9,0.5,1,1c0,0.3,0.1,0.6,0.2,0.8c0,0.1,0,0.2,0,0.2c-0.2,0.2-0.3,0.4-0.4,0.6
		c0,0.1-0.1,0.2-0.2,0.2c0,0,0,0,0,0c-0.1,0-0.1-0.1-0.1-0.2c0,0-0.1-0.1-0.1-0.1c0-0.2,0.2-0.4,0-0.5s-0.3,0.1-0.5,0.2H1.5v-1
		l0.1,0.2C1.8,26.1,2,26.1,2.2,26c0.3-0.2-0.1-0.3-0.2-0.4c-0.2-0.2-0.3-0.3-0.5-0.5C1.5,24.9,1.5,24.7,1.6,24.5z"/>
	<path class="st116" d="M8.2,18c0.2-0.5,0.8-0.3,1.2-0.5c0.2-0.1,0.4-0.1,0.5-0.3c0.3,0,0.3,0.5,0.7,0.4c0.2,0.3,0.4,0.5,0.7,0.5
		c0.1,0.3,0.3,0.5,0.6,0.6c0.4,0,0.6,0.3,0.7,0.7c0,0.4,0.3,0.8-0.2,1.1c-0.5-0.1-0.9-0.2-1.4-0.4c-0.2,0-0.2-0.3-0.1-0.5
		c0.2-0.5,0-0.8-0.5-1c-0.2,0-0.3-0.1-0.5-0.1c-0.3-0.2-0.6-0.2-0.9,0c-0.2,0-0.3,0.1-0.5,0.1c-0.2-0.1-0.5,0-0.7,0
		C7.9,18.1,8.1,18.1,8.2,18z"/>
	<path class="st117" d="M12.5,20.4c0.2-0.2,0.2-0.4,0.1-0.6c-0.1-0.1,0-0.3,0.1-0.4c0.5,0,0.9,0.5,1.4,0.6c0.3,0.1,0.5,0.4,0.5,0.8
		C14.5,21,14.7,21,14.9,21l0.1,0.1c0,0,0,0.1,0,0.1c-0.1,0.1-0.2,0.1-0.3,0.2c0.1,0.1,0.4,0.1,0.5,0.2c0,0,0,0.1,0,0.1
		c-0.3,0.3-0.8,0.2-1.1,0.4c-0.2,0-0.3-0.1-0.4-0.1c-0.3-0.2-0.4,0.3-0.6,0.2c-0.1-0.2-0.1-0.5,0.2-0.7c0,0,0.1,0,0.1-0.1
		c0.1,0,0.2-0.1,0.2-0.2s-0.1-0.3-0.2-0.3s-0.2,0.1-0.2,0.2s-0.2,0.3-0.4,0.2c-0.1-0.1-0.1-0.3,0-0.4C12.7,20.7,12.6,20.5,12.5,20.4
		z"/>
	<path class="st118" d="M17.4,27c-0.1-0.2-0.3-0.3-0.6-0.2s-0.3,0-0.5-0.1c-0.4-0.2-0.6-0.1-0.5,0.3s0,0.4-0.3,0.4
		c-0.1,0-0.3,0.1-0.3,0.2c-0.1,0.1-0.2,0.3-0.3,0.1c-0.1-0.1-0.2-0.3-0.1-0.4c0,0,0,0,0,0c0.1-0.4,0.3-0.9,0.6-1.2
		c0.2-0.1,0.5-0.1,0.7-0.2c0.4,0.1,0.8-0.1,1.2-0.1C17.7,26.1,17.4,26.6,17.4,27z"/>
	<path class="st119" d="M17.3,25.8C16.9,26,16.4,26,16,25.9c-0.5,0-0.6-0.2-0.6-0.8c0,0,0.1-0.1,0.1-0.1c0.2,0,0.2,0.2,0.3,0.3
		s0.2,0.1,0.3,0.1s0.2,0,0.3,0s0.3,0,0.5-0.1c0.1-0.1,0.3-0.2,0.4-0.3c0.1-0.1,0.1-0.1,0.2-0.2c0.1,0,0.2-0.1,0.3-0.1
		c0,0,0.1,0,0.1,0.1C17.8,25.2,17.4,25.4,17.3,25.8z"/>
	<path class="st120" d="M16.6,22.9c0,0.3,0,0.6-0.2,0.9c-0.1,0.2,0.1,0.2,0.3,0.3c0.1,0.1,0,0.3-0.1,0.4c-0.2,0.1-0.5,0.1-0.8,0.2
		c-0.1,0-0.2,0-0.3,0c0,0-0.1-0.1-0.1-0.1c0-0.1,0-0.2,0.1-0.2c0.2-0.1,0.7,0,0.5-0.5c0-0.3,0.1-0.6,0.1-0.8c0-0.1,0-0.1,0.1-0.1
		C16.4,22.6,16.5,22.8,16.6,22.9L16.6,22.9z"/>
	<path class="st121" d="M16.6,24.3l0.1-0.3c0.4-0.2,0.6,0.1,0.8,0.2c0.1,0.2,0.2,0.4,0.2,0.6l-0.2,0.1c-0.1-0.1-0.1-0.2-0.2-0.4
		s-0.2-0.4-0.5-0.3l-0.2,0.1C16.7,24.3,16.7,24.3,16.6,24.3z"/>
	<path class="st120" d="M17.8,24.8l-0.2-0.6c0.2,0.1,0.3,0.4,0.3,0.6H17.8z"/>
	<path class="st122" d="M14,22.1c0.3-0.4,0.8-0.3,1.1-0.4c0.2-0.1,0.4-0.2,0.6-0.1c0.2,0.1,0.5,0.2,0.4,0.5c0,0,0,0.1,0,0.1
		c0,0,0,0,0,0c-0.2,0-0.3,0-0.5-0.1c-0.5-0.3-1.1-0.1-1.4,0.3c0,0,0,0.1-0.1,0.1c-0.1,0.1-0.1,0.3-0.3,0.3c-0.2-0.2-0.2-0.4-0.1-0.6
		C13.9,22.2,14,22.1,14,22.1z"/>
	<path class="st123" d="M15.8,21.6c-0.2,0.2-0.4,0.1-0.6,0.1v-0.1c-0.1-0.1-0.1-0.3-0.2-0.4v-0.1c0.4-0.2,0.8-0.1,1.1,0.2
		C16.4,21.6,15.8,21.4,15.8,21.6z"/>
	<path class="st93" d="M16.2,22.2v-0.1c0.5-0.1,0.6,0.1,0.4,0.7c-0.2,0-0.3-0.1-0.4-0.2C16.1,22.5,16.1,22.3,16.2,22.2
		C16.2,22.2,16.2,22.2,16.2,22.2z"/>
	<path class="st65" d="M7.4,31.6L7,31.7c-0.1,0-0.2,0-0.2-0.1c-0.1-0.1-0.3-0.2-0.4,0c-0.3,0.4-0.8,0.2-1.1,0.2
		c-0.1-0.5-0.5-0.8-1-0.8v-0.1c0.6,0.1,0.5-0.2,0.3-0.5c0.8,0.3,1.7,0.6,2.4,1C7.1,31.5,7.3,31.4,7.4,31.6z"/>
	<path class="st100" d="M6.8,31.6c0.1,0,0.2,0,0.2,0.1c0,0.3,0,0.6-0.1,0.9c-0.6,0,0-0.5-0.3-0.7C6.6,31.9,6.7,31.7,6.8,31.6z"/>
	<path class="st124" d="M9.2,30.7c-0.5,0.1-1-0.2-1.5-0.1c0-0.2-0.2-0.2-0.3-0.1c-0.4,0.3-0.9,0.1-1.2-0.1c-0.2-0.1-0.4-0.3-0.3-0.5
		c0-0.1,0.1-0.1,0.1-0.2H6c0.1,0.1,0.2,0.2,0.3,0.1c0.3-0.1,0.6,0,0.8,0.2c0.2,0.2,0.5,0,0.7,0c0.3-0.1,0.6-0.1,0.9,0
		c0.4,0.2,1,0,1.2-0.4c0.1-0.1,0.1-0.2,0.1-0.3c0.1-0.5,0.4-0.5,0.8-0.5h0.1c0.1,0,0.2,0.1,0.3,0c0.2-0.5,0.7-0.5,1.1-0.6
		c0.1,0,0.1,0,0.2,0.1c0,0,0,0.1,0,0.1c0,0,0,0,0,0c-0.1,0.1-0.3,0.2-0.5,0.2s-0.4,0.1-0.4,0.3s-0.3,0.3-0.4,0.4S11,29.7,11,29.9
		c0,0.4-0.3,0.7-0.7,0.8C9.9,30.8,9.5,31.1,9.2,30.7z"/>
	<path class="st125" d="M4.3,27.9c0.1,0,0.2,0,0.4,0c0.4,0.1,0.5,0,0.5-0.4c0-0.2,0.1-0.3,0.2-0.5C5.8,27,6,27.1,6.2,27.5
		s0.6,0.8,0.9,0.8s0.4-0.1,0.5,0.2c0.1,0.2,0,0.5-0.1,0.6c-0.1,0.1-0.2,0.2-0.3,0.3c-0.4,0-0.7,0.5-1.2,0.3l0,0
		c-0.1-0.8-0.8-0.9-1.3-1.2C4.4,28.4,4.1,28.3,4.3,27.9z"/>
	<path class="st126" d="M4.4,27.6H4c-0.2-0.2-0.1-0.5-0.1-0.7c0,0,0-0.1,0-0.1c-0.1-0.1-0.1,0-0.2,0s-0.2,0.1-0.2,0
		c0-0.1,0-0.2,0-0.3c0.1-0.3,0.4-0.3,0.7-0.3c0.1,0,0.2,0,0.2,0.1c0.1,0.1,0.1,0.3,0.2,0.5c0,0.1,0,0.1,0,0.2c0,0-0.1,0-0.1,0.1
		c0,0,0.1-0.1,0.1-0.1c0.1,0.1,0.2,0.2,0.1,0.3C4.6,27.4,4.5,27.5,4.4,27.6z"/>
	<path class="st127" d="M1.6,26.7c0-0.4,0.4-0.5,0.6-0.4c0.2,0.1,0.1,0.4,0,0.6c0,0.1-0.1,0.2-0.1,0.2C1.7,27.3,1.6,27.1,1.6,26.7z"
		/>
	<path class="st128" d="M5.3,27.2c0,0.2-0.1,0.3-0.2,0.4c-0.2-0.2,0-0.5-0.2-0.6s-0.2-0.5-0.4-0.7c0,0,0-0.1,0-0.1
		c0-0.1,0.1-0.1,0.2-0.1c0.2,0.1,0.4,0.3,0.5,0.5C5.3,26.8,5.4,27,5.3,27.2z"/>
	<path class="st129" d="M4.5,26.3c0.4,0.1,0.2,0.5,0.4,0.7c0,0.8,0,0.8-0.5,0.6v-0.3c0.1-0.1,0.3,0.1,0.2-0.1s0-0.5-0.3-0.4
		c-0.2-0.1-0.1-0.3-0.1-0.5C4.3,26.2,4.4,26.2,4.5,26.3C4.5,26.3,4.5,26.3,4.5,26.3z"/>
	<path class="st130" d="M3.9,26.7c0.2,0.3,0,0.6,0.1,0.9c-0.2,0.4-0.3,0-0.4-0.1c-0.2-0.2-0.2-0.6,0-0.8C3.7,26.5,3.8,26.5,3.9,26.7
		c-0.1,0.1-0.1,0.2-0.1,0.4C3.8,26.9,3.8,26.8,3.9,26.7z"/>
	<path class="st131" d="M3.6,26.7v0.8H3c-0.1-0.1,0-0.2,0-0.3c0-0.1,0.1-0.2,0.1-0.2c0-0.1,0.1-0.1,0.2-0.2L3.6,26.7z"/>
	<path class="st132" d="M3.1,27.2L3,27.5c-0.1,0.1-0.3,0.1-0.3-0.1S2.6,27,2.8,26.8c0,0,0.1,0,0.1,0c0,0,0,0,0,0
		C3,26.9,3.1,27.1,3.1,27.2z"/>
	<path class="st133" d="M2.9,26.8H2.8v-0.1c0.1-0.2,0.1-0.4,0.4-0.3c0.1,0,0.1,0,0.1,0.1v0.3c0,0.1,0,0.2-0.1,0.2
		C3.1,26.9,3,26.9,2.9,26.8z"/>
	<path class="st134" d="M3.2,26.5c-0.2,0-0.3,0.1-0.4,0.2v-0.4c0.1-0.1,0.2-0.2,0.4-0.1C3.4,26.2,3.4,26.3,3.2,26.5z"/>
	<path class="st135" d="M3.9,22C3.8,21.5,4,21,4.5,20.6c0.3-0.2,0.5-0.6,0.5-0.9l0.2-0.4c0.1,0,0.3,0,0.4,0.1c0.1,0.2,0,0.5-0.1,0.6
		c-0.2,0.3-0.4,0.6-0.5,1l-0.1,0.1c-0.3,0.3-0.5,0.8-0.3,1.3c0.1,0.3-0.1,0.6-0.2,0.9c-0.1,0.1-0.1,0.1-0.2,0.2c-0.1,0-0.1,0-0.2,0
		c-0.1-0.3,0.3-0.5,0-0.8C3.9,22.5,3.9,22.3,3.9,22z"/>
	<path class="st136" d="M4.9,21.1c0-0.7,0.6-1,0.7-1.7c0.8,0,1.2-0.7,1.8-1c0.3-0.1,0.4-0.4,0.8-0.5l-0.3,0.4c-0.3,0.4-0.4,1-1,1.1
		l0,0c-0.2,0.7-1,0.8-1.4,1.3C5.3,21,5.2,21.2,4.9,21.1z"/>
	<path class="st137" d="M12.5,28.4h-0.2c-0.1-0.1-0.1-0.2-0.1-0.3c0-0.1,0.1-0.2,0.2-0.2c0.4-0.3,0.8-0.4,1.3-0.4
		c-0.3,0.4-0.3,0.6,0.1,1c0.1,0.1,0.2,0.1,0.3,0c0,0,0,0,0,0c0.2-0.2,0.3-0.3,0.5,0s0.3,0.4,0.1,0.7s-0.4,0.3-0.4,0.6v0.2
		c-0.2-0.2-0.5-0.3-0.7-0.5s-0.4,0.1-0.6,0.2s-0.3,0.1-0.4,0s0.1-0.2,0.1-0.4l0.1-0.3l0.1-0.1C13.1,28.4,13.1,28.4,12.5,28.4z"/>
	<path class="st138" d="M15,30.3l0.3,0.3c-0.1,0.2-0.4,0.4-0.6,0.3C14.4,30.6,14.5,30.6,15,30.3z"/>
	<path class="st139" d="M13.7,27.4c-0.4,0.3-0.9,0.2-1.2,0.5c-0.1-0.3,0.1-0.4,0.3-0.5c0.6-0.1,1.1-0.6,1.2-1.2
		c0.1-0.3,0.2-0.6,0.3-0.9c0.2-0.3,0.4-0.5,0.7-0.3c0,0,0,0.1,0,0.1C15,26.1,14.2,26.7,13.7,27.4z"/>
	<path class="st140" d="M15.1,25.1V25c-0.3-0.4-0.8-0.6-1-1.1c-0.2-0.1-0.2-0.4-0.1-0.5c0.4-0.1,0.4,0.3,0.6,0.4
		c0.1,0,0.1,0.1,0.2,0.1c0.2,0.3,0.6,0.2,0.8,0.5l0,0c0.1,0.2,0.1,0.4,0,0.6c-0.1,0.1,0,0.4-0.3,0.3L15.1,25.1z"/>
	<path class="st93" d="M15.2,25.2c0.2,0,0.2-0.2,0.2-0.3c0,0,0.1,0,0.1,0c0,0,0,0.1,0,0.1c0,0.4,0.1,0.7,0.5,0.8
		c-0.1,0.4-0.4,0.2-0.6,0.2C15.2,25.8,15.4,25.5,15.2,25.2z"/>
	<path class="st77" d="M10.9,30.5c0.2-0.1,0.5,0,0.6,0.2c0,0.1,0,0.1,0.1,0.2c0,0.4-0.1,0.9-0.3,1.2c-0.2,0.4-0.7,0.2-0.8-0.1
		c-0.3-0.3-0.5-0.7-0.5-1.2c0-0.1,0.1-0.2,0.2-0.2C10.3,30.8,10.7,31.1,10.9,30.5L10.9,30.5z"/>
	<path class="st105" d="M10.1,30.8c-0.1,0-0.2,0-0.2,0.1c-0.3,0.1-0.6,0.2-0.7-0.2c0.5,0.1,1,0,1.4-0.3c0.2-0.1,0.4-0.4,0.3-0.6
		c0-0.2,0-0.4,0.3-0.4l-0.3,1.1C10.7,30.8,10.4,30.9,10.1,30.8z"/>
	<path class="st105" d="M12.5,28.4c0,0,0.1-0.1,0.1-0.1s0.5-0.1,0.5,0.1s-0.1,0.3-0.3,0.4L12.7,29c0-0.2,0.1-0.5-0.2-0.5V28.4z"/>
	<path class="st105" d="M11.8,30.2c0,0.1-0.1,0.2-0.2,0.1c-0.1,0-0.1-0.1-0.1-0.1c0-0.1,0.1-0.2,0.1-0.2
		C11.7,30,11.8,30.1,11.8,30.2z"/>
	<path class="st141" d="M3.9,22c0.2,0.2,0.2,0.5,0.2,0.7C4,23,3.8,23.1,3.6,23.2H3.5c-0.5,0-0.6,0-0.4,0.6c0.1,0.2,0,0.4,0.1,0.6
		c0.1,0.3,0.1,0.5,0.1,0.8c0,0.3,0.1,0.6-0.2,0.8s-0.3,0-0.4-0.2c0-0.1-0.2-0.2-0.3-0.2c0.1-0.6-0.6-0.7-0.8-1
		c0.2-0.3,0-0.8,0.5-0.9c0.1,0,0.1-0.2,0-0.2S2,23.4,2,23.3S2,23,2.1,23c0.5,0,0.2-0.9,0.8-0.7c0.1,0.2,0.3,0.4,0.5,0.2
		C3.6,22.4,3.8,22.2,3.9,22z"/>
	<path class="st114" d="M3.4,22.5c-0.3,0.2-0.5,0.1-0.5-0.2C3,22.4,3.1,22.6,3.4,22.5z"/>
	<path class="st142" d="M2.5,25.6c0.2-0.1,0.3-0.2,0.4,0.1c0,0.1,0,0.3,0.3,0.3c0,0,0.1,0.1,0.1,0.1c0,0,0,0.1-0.1,0.1l-0.3,0.1
		C2.5,26.1,2.5,25.8,2.5,25.6z"/>
	<path class="st143" d="M4.9,21.1c0.2-0.1,0.4-0.2,0.5-0.4c0.2-0.2,0.4-0.5,0.8-0.6c0.1,0,0.3-0.1,0.3-0.2c0.2-0.3,0.2-0.8,0.8-0.6
		c0.1,0,0.2-0.1,0.2-0.2c0-0.3,0.3-0.5,0.5-0.7c0.2,0,0.5-0.2,0.7,0s-0.1,0.6-0.1,1c0.1-0.3,0.1-0.4,0.3-0.5c0.1-0.1,0.3-0.1,0.4,0
		c0.1,0.1,0.2,0.2,0.1,0.3c0,0,0,0,0,0c-0.2,0.3,0,0.7-0.4,0.9c-0.3,0.1-0.7,0.1-1,0c-0.1,0-0.3-0.1-0.5-0.1c-0.4,0-0.6,0.1-0.6,0.5
		c-0.1,0.2-0.2,0.4-0.2,0.6c0,0.3-0.1,0.5-0.4,0.5C5.7,21.5,5.4,21.9,5,22C4.6,21.8,4.6,21.7,4.9,21.1z"/>
	<path class="st144" d="M9,20c0.1-0.3,0-0.6,0.3-0.9c0.1-0.1-0.1-0.2-0.2-0.2S8.7,19,8.8,19.3s0,0.4-0.2,0.3s-0.2-0.2-0.1-0.4
		s0.2-0.5,0.2-0.8c0.2-0.1,0.3-0.1,0.5-0.1c0.2,0.2,0.4,0.3,0.7,0.1s0.5,0.2,0.8,0c0.4,0.1,0.7,0.5,0.7,0.9c0,0.1,0,0.2-0.1,0.3
		c-0.2,0.3,0,0.4,0.1,0.4c0.5-0.1,0.8,0.3,1.2,0.4s0.4,0.2,0.3,0.5s-0.1,0.3-0.1,0.5c-0.1,0.5-0.5,0.2-0.7,0.2
		c-0.1-0.4-0.4-0.7-0.8-0.7c-0.1,0-0.2-0.1-0.2-0.1c-0.1-0.3-0.4-0.5-0.7-0.4c-0.2,0-0.3-0.2-0.3-0.3s0.3-0.3,0.4-0.4
		c0-0.1,0-0.1-0.1-0.1c-0.6-0.4-0.5-0.4-0.8,0.3C9.4,19.8,9.4,20.2,9,20z"/>
	<path class="st143" d="M10.6,18.4c-0.1,0.2-0.2,0.2-0.4,0.1c-0.1-0.1-0.3-0.1-0.4,0c-0.4,0.3-0.5,0.1-0.6-0.3
		c0.3-0.2,0.6-0.3,0.9-0.1C10.2,18.3,10.4,18.4,10.6,18.4z"/>
	<path class="st145" d="M12,21.5c0.2-0.2,0.6,0.2,0.7-0.2c0.3,0,0.3-0.1,0.3-0.3s0.2-0.3,0.4-0.1c0.2,0.1,0.3,0.4,0.3,0.6
		c0,0.2-0.2,0.1-0.4,0.2s-0.3,0.4-0.3,0.6S13,22.8,13.4,23c0,0,0,0.1,0,0.1c-0.1,0.1-0.2,0.1-0.3,0.2c-0.5,0.6-0.8,0.6-1.4,0.1
		l-0.1-0.1l-0.1-0.1c-0.4-0.5-0.3-0.7,0.4-0.9c-0.2-0.3-0.4-0.5-0.8-0.2s-0.5-0.1-0.7-0.5c0-0.2,0-0.5,0.4-0.5
		c0.2,0.1,0.3,0.2,0.4,0.2l0.1,0C11.6,21.5,11.8,21.5,12,21.5L12,21.5z"/>
	<path class="st146" d="M13.3,23c-0.5-0.1-0.5-0.2-0.2-0.7c0.1-0.2,0.2-0.6,0.6-0.3C13.9,22.4,13.5,22.6,13.3,23z"/>
	<path class="st147" d="M13.3,23c0-0.4,0.4-0.7,0.4-1c0.2,0,0.2,0.1,0.3,0.2c0,0.2-0.2,0.5,0,0.7C14,23,14,23,13.9,23
		c0,0-0.1,0-0.1,0c-0.2,0-0.1,0.2-0.2,0.3s-0.2-0.1-0.2-0.2L13.3,23z"/>
	<path class="st148" d="M15,21.2c0.3,0,0.4,0.2,0.2,0.4H15c-0.2,0-0.5,0.1-0.5-0.2S14.8,21.2,15,21.2z"/>
	<path class="st149" d="M15.5,25v-0.1c-0.2-0.3,0.1-0.4,0.3-0.5s0.5-0.1,0.8-0.1h0.1c0,0.2-0.1,0.2-0.2,0.2c-0.3,0.2,0,0.4,0,0.6
		v0.1v0c-0.3-0.1-0.1,0.3-0.3,0.3s-0.3,0-0.4-0.1c0.1-0.1,0.1-0.2,0.1-0.4c0-0.3-0.1-0.1-0.2,0L15.5,25z"/>
	<path class="st150" d="M15.6,25c0-0.1,0-0.3,0.1-0.3S16,24.9,16,25c0,0.2-0.1,0.4-0.3,0.4c0,0,0,0,0,0L15.6,25z"/>
	<path class="st121" d="M17.4,25c0,0.3-0.2,0.3-0.4,0.3c-0.1,0-0.2-0.1-0.2-0.1c0-0.2-0.2-0.5,0.3-0.5C17.2,24.7,17.3,24.9,17.4,25z
		"/>
	<path class="st151" d="M16.9,25.2l0.1,0.1c-0.1,0.4-0.3,0.2-0.5,0.1c-0.1-0.1-0.1-0.1,0-0.2c0,0,0,0,0,0l0,0
		C16.6,25.1,16.7,25.1,16.9,25.2z"/>
	<path class="st152" d="M16.4,25.2v0.2c-0.1,0.1-0.2,0.1-0.3,0.1C16.2,25.4,15.9,24.9,16.4,25.2z"/>
	<path class="st153" d="M17.4,25c-0.1-0.1-0.3-0.1-0.3-0.3h0.1c0.1,0,0.2-0.1,0.3-0.1h0.1c0.1,0.1,0.1,0.3,0.1,0.4L17.4,25z"/>
	<path class="st154" d="M13.9,23l0.1-0.1c0.1-0.6,0.6-1,1.2-1c0.4,0,0.6,0.3,1,0.4v0.5c-0.2,0-0.3-0.1-0.4-0.2
		c-0.5-0.4-0.7-0.5-1.2-0.1c-0.4,0.3-0.4,0.8-0.2,1.2c0.1,0.1,0.1,0.2,0,0.3c-0.2-0.1-0.4-0.3-0.5-0.5C13.9,23.2,13.9,23.1,13.9,23z
		"/>
	<path class="st155" d="M14.6,22.3c0.3-0.4,0.8-0.4,1.2-0.1c0,0,0.1,0.1,0.1,0.1c0.1,0.1,0.2,0.3,0.4,0.4c0,0.3,0,0.6-0.1,0.9
		C16,23.8,16,24.1,15.7,24c-0.1-0.1-0.1-0.3,0-0.5c0.2-0.3,0.2-0.7-0.1-0.9c-0.2-0.2-0.4-0.2-0.6-0.2C14.9,22.4,14.7,22.4,14.6,22.3
		L14.6,22.3z"/>
	<path class="st156" d="M15.7,24l0.4-0.3c0.1,0.5,0.1,0.5-0.6,0.5c0,0-0.1,0-0.1,0c0,0,0,0,0,0C15.4,24,15.5,23.9,15.7,24z"/>
	<path class="st157" d="M15.4,24.2h0.1v0.2c-0.3-0.1-0.8,0.1-0.9-0.4C14.9,23.9,15.1,24,15.4,24.2z"/>
	<path class="st157" d="M15.8,24.4c-0.1,0.1-0.4,0.2-0.3,0.5h-0.1c0-0.2,0-0.4,0.1-0.5H15.8z"/>
	<path class="st153" d="M16.9,25.2h-0.4v-0.1c0.2-0.2-0.1-0.5,0-0.7c0.1,0,0.2,0,0.3-0.1l0.1-0.1h0.1c0.1,0.1,0.3,0.3,0.1,0.5l0,0
		C16.6,24.7,17,25.1,16.9,25.2z"/>
	<path class="st153" d="M16.9,24.2c0.4-0.2,0.5,0,0.6,0.3l0,0C17.2,24.5,17.1,24.3,16.9,24.2L16.9,24.2z"/>
	<path class="st158" d="M5.3,27.2l-0.2-0.6c0.1,0,0.2,0,0.3,0.1c0.4,0.3,0.9,0.4,1.4,0.6c0.3,0.1,0.5,0.3,0.6,0.5
		c0.1,0.5,0.5,0.8,1,0.8C8.6,28.7,8.8,28.8,9,29c0.1,0.2,0.4,0.3,0.5,0.1c0.2-0.6,0.7-0.5,1.2-0.5c0.1,0,0.2,0.1,0.2,0.3
		C10.4,29,10,29,10.2,29.7c0,0.2-0.1,0.4-0.3,0.4c-0.4,0-0.9,0.5-1.3,0c-0.2-0.2-0.5,0.1-0.7,0c-0.4,0-0.7-0.4-0.7-0.8
		c0.2-0.1,0.4-0.2,0.4-0.5s0-0.6-0.4-0.3c-0.1,0.1-0.3,0.1-0.5,0c0,0,0,0,0,0c-0.2-0.4-0.8-0.5-0.6-1C5.9,27.2,5.6,27.1,5.3,27.2z"
		/>
	<path class="st158" d="M12.3,28v0.3c-0.1,0-0.3,0.1-0.4,0.1c-0.3,0-0.5,0.1-0.5,0.4s-0.2,0.3-0.4,0c0-0.1,0-0.3-0.1-0.4
		c-0.4-0.1-0.9,0-1.2-0.4c0-0.1,0-0.1,0-0.2c0.1-0.1,0.2,0,0.3,0c0.7,0.3,1.5,0.1,2-0.5c0.2-0.2,0.4-0.4,0.7-0.5
		c0.1,0,0.1,0,0.1,0.1c0,0.1,0,0.1,0,0.2c-0.3,0.3-0.6,0.6-1,0.9C12,28,12.2,27.9,12.3,28z"/>
	<path class="st159" d="M7.1,29.3c0.2,0.3,0.4,0.6,0.7,0.8c-0.3,0.2-0.6,0.3-0.9-0.1c-0.2-0.1-0.4-0.1-0.5,0c-0.4,0.2-0.4,0-0.4-0.3
		C6.4,29.6,6.7,29.3,7.1,29.3z"/>
	<path class="st160" d="M10.9,28.4c0.1,0.2,0.3,0.3,0,0.5h-0.1c0-0.1-0.1-0.2-0.2-0.2c-0.1,0-0.1-0.1-0.1-0.1S10.7,28.2,10.9,28.4z"
		/>
	<path class="st158" d="M5.6,28c-0.1,0-0.1-0.1-0.1-0.1c0-0.1,0.1-0.1,0.1-0.1c0,0,0,0,0,0c0,0,0.1,0.1,0.1,0.1S5.6,28,5.6,28z"/>
	<path class="st161" d="M4.3,26.8c0-0.1,0-0.2,0.1-0.2c0.2-0.1,0.3,0.1,0.3,0.3s0.3,0.5,0.1,0.7s-0.2-0.2-0.3-0.2s0-0.2-0.1-0.3l0,0
		L4.3,26.8z"/>
	<path class="st162" d="M3.1,26.2v-0.1c0.3-0.5,0.5-0.1,0.8,0c0,0,0.1,0.1,0.1,0.2c-0.2,0-0.5-0.1-0.6,0.2H3.2
		C3.2,26.4,3.3,26.2,3.1,26.2z"/>
	<path class="st163" d="M4,26.3l-0.1-0.1C3.7,26,3.8,25.9,4,25.8c0,0,0.1,0,0.1,0c0.2,0.1,0.4,0.1,0.4,0.4v0.1H4z"/>
	<path class="st164" d="M4.3,27c0,0.1,0.1,0.3-0.1,0.4C4.2,27.2,3.9,27,4.3,27z"/>
	<path class="st165" d="M4.5,26.2l-0.4-0.3c0-0.2,0-0.2,0.4-0.2h0.4c0.2,0,0.4-0.1,0.6-0.2c0.1-0.1,0.2-0.2,0.4-0.1
		c0,0.1,0,0.1,0,0.2c-0.1,0.2-0.2,0.4-0.4,0.5c-0.3,0.1-0.5,0.1-0.8,0L4.5,26.2z"/>
	<path class="st166" d="M4.7,26.1C5,25.9,5.3,26,5.5,26c0,0,0.1,0,0.1,0c0,0,0,0,0,0c0.1,0.1,0.1,0.3,0.1,0.4c0,0.2-0.2,0.4-0.4,0.4
		c0,0-0.1,0-0.1,0l-0.2-0.1L4.7,26.1z"/>
	<path class="st167" d="M3.9,26.7c0,0.2,0.1,0.5-0.1,0.7C3.7,27.2,3.5,26.9,3.9,26.7z"/>
	<path class="st168" d="M2.9,26.8c0.2-0.1,0.3,0,0.3,0.2c0,0.1,0,0.2-0.1,0.2C2.9,27.2,3,27,2.9,26.8z"/>
	<path class="st136" d="M4.9,21.1c0,0.2,0,0.3-0.1,0.5c-0.1,0.2,0,0.4,0.3,0.3s0.2,0.2,0.3,0.4c0,0.1,0,0.1,0,0.2
		c0.2,0.6,0.2,0.6-0.4,0.7c-0.2,0-0.2,0.1-0.2,0.2c-0.1,0.1-0.3,0.1-0.4,0c0,0,0,0,0,0c0.1-0.5,0.1-0.9,0-1.4
		C4.3,21.6,4.6,21.2,4.9,21.1z"/>
	<path class="st169" d="M4.4,23.4c0.1,0,0.3,0,0.4-0.1c0.8-0.3,1.6,0.4,1.7,1.4c-0.1,0.4-0.1,0.8-0.6,0.9v-0.2
		c-0.1-0.1-0.1-0.2,0-0.3c0.1-0.9-0.2-1.2-1.1-1.4c-0.2,0-0.3,0-0.5-0.1l0-0.1C4.2,23.4,4.3,23.4,4.4,23.4z"/>
	<path class="st170" d="M3.7,23.2c0.1-0.2,0.2-0.3,0.4-0.4C4.6,23.1,4,23.2,4,23.5c0,0,0,0,0,0.1c-0.2,0.2-0.4,0.5-0.8,0.3
		C3.1,23.4,3.4,23.3,3.7,23.2z"/>
	<path class="st169" d="M4,23.5h0.2c0.1,0.1,0,0.2,0,0.3c0,0-0.1,0.1-0.1,0.1c-0.3,0.1-0.2,0.4-0.3,0.6c0,0-0.1,0.1-0.1,0.1
		c-0.2,0-0.2-0.1-0.3-0.2C3.3,23.9,3.7,23.7,4,23.5z"/>
	<path class="st171" d="M12.3,28c-0.2,0-0.5,0.4-0.6,0.1s0.3-0.4,0.5-0.5s0.2-0.6,0.7-0.5c0.1,0,0.1,0.1,0,0.2c0,0,0,0,0,0
		c0,0.2-0.4,0.3-0.3,0.5L12.3,28z"/>
	<path class="st172" d="M14.1,23.9c0.2,0.5,0.9,0.6,0.9,1.1c-0.7-0.1-0.7,0.5-0.8,0.9c-0.1,0.1,0,0.4-0.2,0.4
		c-0.1,0.1-0.2,0.1-0.3,0c-0.1-0.2-0.1-0.3-0.1-0.5C13.9,25.2,14.1,24.5,14.1,23.9z"/>
	<path class="st173" d="M13.7,26.3H14c0,0.7-0.6,1.2-1.2,1.1V27c0.1-0.3,0.5-0.4,0.7-0.8C13.5,26.2,13.7,26.2,13.7,26.3z"/>
	<path class="st174" d="M14.1,23.9c0.2,0.6,0,1.3-0.4,1.9c0-0.2-0.2-0.3-0.4-0.2c0,0,0,0-0.1,0c-0.1-0.1-0.1-0.3,0-0.5
		c0.4-0.5,0.2-0.9,0-1.4c0,0.1,0,0.2,0,0.4c0,0.1,0,0.2,0.1,0.3c0,0.2,0,0.5-0.4,0.4c-0.2-0.1,0-0.4-0.2-0.5
		c-0.4,0.4-0.8,0.7-1.3,0.9c-0.2,0-0.4,0-0.5-0.1c-0.2-0.3,0-0.4,0.3-0.5c0.6-0.2,0.7-0.3,0.4-0.9c0-0.1,0-0.3,0.2-0.3c0,0,0,0,0,0
		c0.2,0.2,0.6,0.2,0.9,0.3s0.3-0.1,0.3-0.3s0.2-0.4,0.5-0.3l0.2,0.2c0.2,0,0.2-0.2,0.3-0.3H14c0.1,0.1,0,0.3,0,0.4
		S13.9,23.8,14.1,23.9z"/>
	<path class="st175" d="M15.4,24.2c-0.3,0-0.5-0.1-0.8-0.2l-0.1-0.1c-0.3-0.5-0.5-1.1,0.1-1.6l0,0c0.1,0.2,0,0.4-0.1,0.5
		s0,0.5,0.3,0.5s0.2,0.3,0.5,0.4c0.1-0.2,0.2-0.5,0.3-0.7c0.1-0.1,0.1-0.3,0-0.4c0-0.1,0-0.2,0.1-0.3c0.4,0.3,0.4,0.8,0.1,1.2
		c-0.1,0.1-0.1,0.3-0.1,0.4L15.4,24.2z"/>
	<path class="st74" d="M10.1,30.8l0.8-0.3C10.9,31.1,10.9,31.1,10.1,30.8z"/>
	<path class="st176" d="M3.7,23.2l-0.5,0.6c0,0-0.1,0-0.1,0c-0.4-0.1-0.2-0.4-0.2-0.6s0.3-0.1,0.5-0.1C3.4,23.1,3.6,23.1,3.7,23.2z"
		/>
	<path class="st177" d="M4,25.9c-0.2,0.1-0.2,0.2-0.1,0.3c-0.3,0-0.4-0.5-0.7-0.1V26c0.2-0.2,0.2-0.5,0.1-0.7c0.1-0.1,0.2,0,0.3,0
		s0.3,0.3,0.4,0.5C4.1,25.7,4.1,25.8,4,25.9C4,25.9,4,25.9,4,25.9z"/>
	<path class="st178" d="M3.6,25.3l-0.3-0.1c0-0.3,0-0.6-0.1-0.8c-0.1-0.1-0.1-0.2,0.1-0.2s0.2,0.1,0.2,0.2l0.2,0.2
		c0.1,0.1,0.1,0.1,0.1,0.2C3.7,25,3.7,25.2,3.6,25.3z"/>
	<path class="st179" d="M3.5,24.4c-0.1,0-0.2-0.4-0.3,0C3,24.2,3.1,24,3.1,23.8h0.1c0.4,0.1,0.5-0.3,0.8-0.3
		C3.8,23.8,3.4,24,3.5,24.4z"/>
	<path class="st180" d="M9,20c0.5-0.1,0.5-0.6,0.5-0.9s0.1-0.4,0.3-0.3s0.5,0.4,0.8,0.5c0.1,0.1,0,0.3-0.2,0.3s-0.4,0-0.4,0.2
		c0,0.2,0.2,0.3,0.4,0.3c0,0,0.1,0,0.1,0c0.3-0.2,0.3-0.1,0.3,0.2s0.2,0.3,0.5,0.4c0.4,0.1,0.7,0.3,0.6,0.8c-0.2,0.1-0.5,0-0.7,0
		s-0.2-0.3-0.3-0.4s-0.4-0.3-0.7,0c-0.4,0.4-1.1,0.5-1.5,0.1C8.6,21.1,8.5,21,8.5,21c0-0.1-0.1-0.2-0.2-0.2c0.1,0.3,0.6,0.5,0.4,0.9
		c-0.1,0.2-0.4,0.3-0.6,0.2c-0.4-0.3-0.6-0.8-0.6-1.4c0-0.4,0.1-0.5,0.5-0.4H9z"/>
	<path class="st181" d="M7.8,20c-0.3,0-0.3,0-0.3,0.4c0,0.6,0.4,0.9,0.5,1.4c0,0,0,0.1,0,0.1l0,0c0,0-0.2,0.1-0.3,0.2
		c0,0,0,0.1-0.1,0.1c-0.4,0.3-0.1,0.7-0.2,1s-0.3,0.6-0.7,0.6c-0.3-0.4-0.6-0.7-1-1.1c-0.2-0.2-0.2-0.4-0.1-0.6
		c0.2-0.2,0.5-0.3,0.7-0.3c0.4,0.1,0.7-0.1,0.9-0.4c0.2-0.4-0.1-0.6-0.4-0.8c-0.1,0-0.1-0.1-0.1-0.1c-0.2-0.4,0-0.6,0.4-0.6
		S7.6,19.9,7.8,20z"/>
	<path class="st182" d="M6.8,20.6c0.4,0.1,0.7,0.4,0.7,0.9c-0.1,0.4-0.5,0.7-0.9,0.7c-0.3-0.1-0.6,0-0.8,0.1
		c-0.1,0.2-0.2,0.2-0.4,0.1l-0.2-0.4c0.3-0.2,0.5-0.6,1.1-0.4c0.2,0.1,0.4-0.1,0.3-0.4S6.4,20.6,6.8,20.6z"/>
	<path class="st136" d="M11.7,23.4l-0.1,0.3l-0.1,0.1c-0.4,0.3-0.6,0.7-1.2,0.6c-0.1,0-0.2,0.1-0.2,0.2c-0.3,0.6-0.8,0.5-1.3,0.5
		c-0.2,0-0.4-0.1-0.4-0.3c0-0.4-0.3-0.5-0.6-0.7s-0.2-0.5-0.1-0.8c0.3-0.3,0.7-0.6,1-1c0.2,0,0.3-0.1,0.5,0c0,0.1,0,0.2-0.1,0.2
		c-0.2,0.1-0.2,0.4-0.1,0.6c0.1,0.2,0.3,0.4,0.6,0.3c0.2,0,0.4,0,0.6,0c0.4,0,0.5-0.3,0.4-0.6s-0.5-0.8-1-0.5c-0.1,0-0.2,0-0.2,0
		c0.2-0.3,0.6-0.6,1-0.7c0.2,0,0.3,0.2,0.4,0.4c0,0.2,0.1,0.4,0.3,0.6c0.2,0.2,0.3,0.5,0.7,0.4c0.1,0,0.1,0.1,0.2,0.1L11.7,23.4z"/>
	<path class="st183" d="M9.1,22.4c-0.1,0-0.3,0.1-0.4,0c-0.1-0.4,0.2-0.5,0.5-0.6c0.3,0,0.6-0.2,0.8-0.4l0.1-0.1
		c0.1,0,0.3-0.1,0.3,0.2c0.2,0.2,0.3,0.7,0.8,0.2c0.1-0.1,0.9,0.3,0.9,0.5s-0.1,0.2-0.2,0.2s-0.3-0.2-0.4,0.1s0,0.4,0.2,0.5
		s0.1,0.1,0.1,0.2c0,0-0.1,0-0.1-0.1c-0.2,0-0.5,0.5-0.7-0.1c-0.1-0.3-0.4-0.4-0.5-0.8s-0.2-0.5-0.6-0.2c-0.2,0.2-0.5,0-0.6,0.3
		C9.1,22.5,9.1,22.5,9.1,22.4C9.1,22.4,9.1,22.4,9.1,22.4z"/>
	<path class="st144" d="M7.7,22.2v-0.1C7.8,22,7.9,22,8,21.9v-0.1h0.1c0.2-0.1,0.5,0,0.5-0.3s-0.2-0.4-0.4-0.4S8,20.9,8.1,20.8
		c0.1-0.1,0.2-0.2,0.3-0.2c0.1,0,0.1,0,0.2,0.1c0,0.6,0.5,0.5,0.9,0.7c0.2,0.1,0.5,0,0.6-0.2c0,0,0,0,0,0c0.1-0.2,0.4-0.5,0.6-0.3
		s0.8,0.2,0.6,0.8c-0.2,0-0.3-0.1-0.4-0.2s-0.2-0.3-0.4-0.1c-0.1,0.1-0.3,0.2-0.4,0.3c-0.6,0.2-1.2,0.4-1.8,0.7
		C8,22.4,7.8,22.4,7.7,22.2z"/>
	<path class="st143" d="M10,21.5c0.1-0.2,0.2-0.3,0.4-0.4c0.2-0.1,0.4-0.1,0.4,0.2c-0.4-0.2-0.2,0.2-0.4,0.3
		C10.3,21.5,10.1,21.5,10,21.5z"/>
	<path class="st144" d="M11.2,21.5c0.2-0.1,0.5,0,0.7,0C11.7,21.9,11.5,21.6,11.2,21.5z"/>
	<path class="st184" d="M13.8,23c0,0.2,0.1,0.4-0.1,0.5s-0.1-0.1-0.2-0.1s0-0.2,0-0.3s0-0.3,0.1-0.3S13.8,22.8,13.8,23z"/>
	<path class="st185" d="M16.4,24.4c0.1,0.2,0.5,0.5,0,0.7C16.4,24.9,16,24.6,16.4,24.4z"/>
	<path class="st186" d="M16.9,24.2c0.3-0.1,0.4,0.2,0.6,0.3c0,0.4-0.2,0.3-0.4,0.2L16.9,24.2z"/>
	<path class="st187" d="M15.7,22.4v0.3c-0.2,0.1-0.4-0.3-0.6,0.1c-0.2,0.2-0.3,0.4-0.4,0.6c-0.3,0-0.4-0.1-0.4-0.6
		c0.3-0.1,0.5-0.4,0.6-0.6C15.2,22.2,15.5,22.3,15.7,22.4z"/>
	<path class="st188" d="M15,22.2c-0.1,0.3-0.1,0.7-0.6,0.6l0.2-0.5L15,22.2z"/>
	<path class="st189" d="M5.3,26.7c0.1-0.1,0.4-0.2,0.4-0.4c0.1-0.2,0.3-0.4,0.4-0.6c0.3-0.1,0.3,0.5,0.5,0.3s0.5,0,0.7,0
		S7.8,26.2,8,26s0.2-0.2,0.4-0.1s0.1,0.3,0,0.4s0,0.2,0,0.3s-0.1,0.4-0.1,0.6s0.1,0.3,0.3,0.4s0.3,0.7,0.8,0.5c0.1,0,0.2-0.1,0.3,0
		c0.4,0.3,0.8,0.2,1.2,0.3c-0.2,0-0.4,0.1-0.3,0.3c-0.2,0.2-0.4,0.1-0.6,0.1s-0.3,0-0.4,0.2c-0.2,0.5-0.5,0.6-0.8,0.2
		c-0.2-0.3-0.5-0.4-0.8-0.4c-0.3,0-0.6-0.3-0.8-0.6c-0.2-0.9-1-0.9-1.7-1.1C5.5,26.9,5.3,27,5.3,26.7z"/>
	<path class="st190" d="M12.9,24.7c0.4,0,0.3-0.2,0.3-0.5s-0.3-0.7,0.1-0.8s0.2,0.4,0.3,0.6s0.3,0.7-0.1,1c-0.2,0.1-0.1,0.3-0.1,0.5
		c0.2,0.2,0.2,0.5,0.1,0.7c0.1,0.5-0.4,0.5-0.6,0.7h-0.1c-0.1-0.2,0-0.3,0-0.5c0.2-0.3,0.3-0.7,0.3-1c0-0.1,0.1-0.3,0-0.4
		s-0.2,0-0.3,0.1l-0.2,0.2c-0.2,0.2-0.3,0.4-0.4,0.6c-0.1,0.2-0.2,0.5-0.5,0.5c-0.1-0.3,0.1-0.5,0.1-0.7
		C12,25.2,12.3,24.8,12.9,24.7z"/>
	<path class="st191" d="M12.8,26.6L12.7,27c-0.5,0.1-0.7,0.5-1,0.8c-0.5,0.4-1.2,0.5-1.8,0.1c0.2-0.2,0.4-0.1,0.6-0.1
		c0.3,0,0.6-0.1,0.8-0.2c0.3-0.2,0.5-0.4,0.8-0.6l0.1-0.1c0.1-0.2,0.3-0.4,0.4-0.6c0-0.1,0.1-0.2,0.2-0.2c0.1,0,0.1,0,0.1,0.1
		C13,26.3,12.8,26.4,12.8,26.6z"/>
	<path class="st192" d="M11.5,27.6c-0.5,0.5-1,0.3-1.5,0.3l-0.2-0.1c-0.2,0-0.3,0-0.3-0.2c0.1-0.1,0.2-0.1,0.3-0.1l0.2,0.1
		c0.4,0.2,0.8,0,1.2-0.1C11.2,27.5,11.3,27.5,11.5,27.6z"/>
	<path class="st193" d="M9.4,27.6l0.3,0.2V28l-0.3,0.1c-0.3,0-0.3-0.2-0.4-0.4c0-0.1,0-0.2,0-0.2C9.2,27.4,9.3,27.5,9.4,27.6
		C9.4,27.6,9.4,27.6,9.4,27.6z"/>
	<path class="st194" d="M3.7,24.8v-0.3c0,0,0.1,0,0.1,0c0.1,0.1,0.1,0.3,0.3,0.5c0.1,0.1,0.1,0.2,0.1,0.2c0,0.2,0.3,0.3,0.3,0.5
		c-0.1,0.1-0.4-0.2-0.4,0.1H4v-0.1C3.8,25.5,3.6,25.2,3.7,24.8z"/>
	<path class="st195" d="M11.9,25.8c0.1,0.3-0.3,0.5-0.2,0.7c0,0.1,0,0.1-0.1,0.1c-0.1-0.1-0.2-0.3-0.2-0.4c0-0.2,0-0.3,0-0.5
		c-0.2,0.1-0.1,0.3-0.1,0.5c-0.2,0.4,0.2,0.3,0.4,0.5c0,0.3-0.2,0.3-0.5,0.4s-0.5,0-0.8,0.1c-0.1,0-0.1,0-0.2,0c0,0,0,0,0-0.1
		c0-0.1,0.1-0.3-0.1-0.4s-0.1,0.2-0.2,0.3c-0.4,0.1-0.5-0.4-0.8-0.5s-0.4,0-0.5,0.1c0,0-0.1,0-0.1,0c-0.1-0.1-0.3-0.3,0-0.4
		c0.1,0,0.1-0.1,0-0.2c0,0-0.1-0.1-0.1,0c0,0,0,0,0,0c-0.2,0.3-0.7,0.4-1,0.2c-0.1,0-0.5-0.3-0.6,0.1c0,0.1-0.3-0.1-0.3-0.2
		s0-0.3-0.2-0.4C6,26,5.8,26.1,5.6,26H5.5l0.3-0.4c0.3-0.2,0.4-0.5,0.5-0.8c0.2,0,0.2,0.4,0.5,0.3s0.8,0,1.1,0s0.7,0.5,1.1,0.7
		c0.1,0,0.1,0.1,0.2,0.2c-0.1-0.3,0-0.5,0.3-0.5c0.1,0,0.1,0,0.1-0.1c0.3-0.7,0.8-0.5,1.2-0.4c0.2,0,0.4,0,0.5,0.1
		C11.8,25.2,11.7,25.6,11.9,25.8z"/>
	<path class="st196" d="M4.7,23.5c1.1,0.2,1.5,0.7,1.1,1.9l-0.3,0.2c0,0-0.1-0.1-0.1-0.1c0.1-0.3,0.2-0.5,0.2-0.8
		c0-0.2-0.1-0.3-0.2-0.4c-0.4-0.5-0.9-0.4-1.3-0.1c0,0-0.1,0-0.1,0C4,24,4,23.9,4.1,23.9c0,0,0,0,0,0l0,0
		C4.2,23.5,4.5,23.6,4.7,23.5z"/>
	<path class="st197" d="M4.5,25.8c-0.1-0.2-0.4-0.2-0.4-0.5c0.4-0.1,0.6,0.2,0.9,0.3c0.1,0.1,0,0.2-0.1,0.2H4.5z"/>
	<path class="st198" d="M4.9,25.8L5,25.6v-0.1c0.1-0.1,0.2-0.1,0.3-0.1c0.1,0,0.1,0,0.2,0.1v0.1C5.3,25.7,5.1,25.8,4.9,25.8z"/>
	<path class="st199" d="M5.6,26l0.4-0.2c0.2,0.4,0,0.5-0.3,0.5S5.6,26.1,5.6,26z"/>
	<path class="st200" d="M6.8,25.2c-0.3,0-0.3-0.3-0.4-0.5c0-0.8-0.6-1.4-1.4-1.5c-0.1,0-0.1,0-0.2,0c-0.1,0-0.2,0-0.2,0
		s0-0.1,0.1-0.2s0.2,0,0.3,0c0.3,0,0.8,0.1,0.3-0.4c-0.1-0.1,0-0.2,0-0.3c0.1,0,0.3,0,0.4-0.1c0,0.3,0,0.5,0.2,0.7
		c0.3,0.3,0.6,0.6,0.8,1c0,0.1,0,0.1,0,0.2c-0.2,0.2-0.2,0.4-0.1,0.6c0.1,0.1,0.1,0.2,0.2,0.3C6.9,25.1,6.8,25.2,6.8,25.2z"/>
	<path class="st201" d="M4.7,23.5l-0.6,0.3l0.1-0.3H4.7z"/>
	<path class="st201" d="M4.1,23.8V24c0,0.2-0.1,0.4-0.3,0.5H3.7C3.7,24.2,3.6,23.8,4.1,23.8z"/>
	<path class="st202" d="M13.4,26.3c-0.2-0.2-0.1-0.5-0.1-0.7c0-0.1,0.1-0.1,0.1-0.2c0-0.1,0.1-0.2,0.2-0.2s0.1,0.2,0.1,0.3v0.8H13.4
		z"/>
	<path class="st203" d="M6.8,25.2v-0.3c0-0.1,0-0.1,0-0.2s0-0.4,0.1-0.5s0.3,0.2,0.4,0.3c0.1,0.1,0.2,0.2,0.3,0.2
		c0.2-0.2-0.1-0.5,0.2-0.7c0.4,0.1,0.8,0.2,0.6,0.7c0,0,0.1,0.2,0.1,0.2c0.5,0,0.9-0.1,1.3-0.4c0.2-0.3,0.4-0.5,0.8-0.4
		c0.2,0.1,0.3-0.1,0.4-0.3s0.2-0.3,0.4-0.3c0,0.4,0.1,0.7-0.2,1c-0.4,0-0.4,0.1-0.3,0.3s-0.1,0.2-0.3,0.1c-0.3-0.1-0.7-0.2-0.8,0.3
		c0,0.1-0.1,0.2-0.1,0.2c-0.5-0.1-0.5,0.1-0.3,0.5c0,0,0,0.2-0.1,0.1S9,26.2,9,26c0-0.5-0.6-0.4-0.7-0.8c0-0.1-0.1-0.1-0.2-0.1
		C7.7,25.2,7.2,25.2,6.8,25.2z"/>
	<path class="st204" d="M11.9,25.8c-0.5,0-0.2-0.5-0.4-0.6c0.3-0.4,0.9-0.5,1.2-1c0-0.1,0.1-0.1,0.2-0.1c0.1,0,0.2,0.1,0.2,0.2
		c0,0.2,0,0.3-0.1,0.4C12.5,24.9,12.1,25.3,11.9,25.8z"/>
	<path class="st145" d="M11.2,24.7c0.1-0.3-0.1-0.7,0.2-1h0.1c0.2,0.1,0.3,0.3,0.3,0.6C11.8,24.5,11.6,24.8,11.2,24.7z"/>
	<path class="st205" d="M14.8,23.5c-0.2-0.4,0-0.5,0.3-0.6c0.2,0.1,0.4,0.1,0.6,0.2c-0.1,0.2-0.1,0.4-0.2,0.6s0,0.3-0.2,0.3
		s-0.2-0.1-0.3-0.3S14.9,23.5,14.8,23.5z"/>
	<path class="st206" d="M15.7,23c-0.2,0.1-0.5,0.1-0.6-0.2c0-0.1-0.1-0.3,0.1-0.4s0.3,0.2,0.5,0.3C15.8,22.8,15.8,23,15.7,23z"/>
	<path class="st141" d="M3.7,24.8c0,0.3,0.3,0.6,0.3,0.9c-0.3,0-0.3-0.3-0.4-0.4C3.6,25.2,3.5,25,3.7,24.8z"/>
	<path class="st143" d="M7.7,22.2c0.4,0,0.7-0.2,1-0.4c0.4-0.3,0.8-0.4,1.3-0.3C9.9,21.8,9.7,22,9.3,22c-0.3-0.1-0.6,0.1-0.7,0.5
		c-0.2,0.4-0.5,0.8-0.9,0.9c-0.1,0.1-0.2,0-0.3-0.1c0.1-0.3-0.2-0.5,0-0.8C7.5,22.4,7.6,22.2,7.7,22.2z"/>
	<path class="st207" d="M7.4,23.3l0.3,0.1c0.1,0.2-0.1,0.5,0.1,0.7c-0.1,0.1,0,0.3,0,0.4s0.1,0.4-0.1,0.5s-0.3-0.1-0.4-0.3
		c-0.1-0.1-0.2-0.3-0.3-0.5c-0.2,0.2,0,0.5-0.2,0.7c-0.1,0-0.2-0.1-0.2-0.2c0.1-0.2,0-0.5,0.1-0.7l0.1-0.1
		C7.1,23.8,7.2,23.5,7.4,23.3z"/>
	<path class="st180" d="M8,21.9c0,0.1-0.2,0.2-0.3,0.2C7.6,21.8,7.9,22,8,21.9z"/>
	<path class="st208" d="M9.1,22.4h0.1h0.1c0.8-0.2,1.1,0,1.4,0.7c0.1,0.3-0.3,0.7-0.7,0.6c-0.2-0.1-0.5-0.1-0.8,0
		c-0.3,0.1-0.5-0.2-0.6-0.4c-0.1-0.2-0.1-0.5,0.1-0.6C8.9,22.6,9,22.6,9.1,22.4z"/>
	<path class="st209" d="M7.4,26.8c0.2,0,0.4,0.1,0.4,0.3c0,0,0,0,0,0c0,0.2,0.1,0.3,0.2,0.4c0.1,0.1,0.2,0.2,0.1,0.3s-0.3,0-0.4-0.1
		s-0.2-0.5-0.5-0.6c-0.1-0.1-0.1-0.2,0-0.3c0,0,0,0,0,0C7.2,26.8,7.3,26.7,7.4,26.8z"/>
	<path class="st210" d="M9.1,27.7l0.3,0.4c-0.6,0.3-0.6-0.2-0.8-0.5c-0.1-0.1,0-0.2,0.1-0.2C8.9,27.3,9,27.6,9.1,27.7z"/>
	<path class="st211" d="M8.6,27.4c-0.1,0-0.1,0.1-0.1,0.2c-0.3,0-0.5,0-0.3-0.4c0.1-0.1,0.1-0.3,0.2-0.4c0.1,0,0.2,0,0.3,0.1
		c0.1,0.1,0.1,0.2,0.1,0.2C8.8,27.2,8.8,27.3,8.6,27.4z"/>
	<path class="st212" d="M8.4,26.8c0,0.2,0,0.3-0.2,0.4c0-0.2-0.3-0.5,0.1-0.6h0.1C8.5,26.6,8.5,26.7,8.4,26.8
		C8.4,26.8,8.4,26.8,8.4,26.8z"/>
	<path class="st213" d="M10.1,27h0.2c0.3-0.1,0.6,0,0.8-0.1s0.3-0.1,0.4-0.3l0,0l0.1-0.1c0.4-0.3,0.4-0.9,0.8-1.1l0,0
		c0,0.1,0,0.3-0.1,0.4c-0.1,0.4-0.3,0.7-0.6,1c0,0-0.1,0.1-0.1,0.1c-0.1,0.1-0.3,0.2-0.4,0.3l-0.1,0.1c-0.3,0-0.5,0.1-0.8,0.1
		c-0.2,0-0.4,0-0.5-0.2c0-0.1,0-0.1,0-0.2C9.9,27,10,27,10.1,27z"/>
	<path class="st213" d="M12.8,26.6l0.1-0.5V26c0-0.2,0-0.3-0.1-0.5s-0.2-0.1-0.3-0.2l0,0l0.1-0.2c0.3-0.1,0.5,0,0.5,0.3
		S13.2,26.3,12.8,26.6z"/>
	<path class="st214" d="M13.1,25.4c-0.1-0.2-0.3-0.3-0.5-0.3c0.1-0.1,0.3-0.3,0.5-0.1C13.2,25.1,13.3,25.3,13.1,25.4
		C13.2,25.4,13.1,25.4,13.1,25.4z"/>
	<path class="st215" d="M11.8,26.8l0.6-1c0,0,0.1,0,0.1,0c0.1,0.1,0.1,0.1,0.1,0.2c0.1,0.1,0,0.2,0,0.3c-0.1,0.2-0.1,0.5-0.4,0.6
		C12.1,26.8,11.9,26.9,11.8,26.8z"/>
	<path class="st216" d="M11.5,27.6H11c-0.1-0.1-0.3-0.1-0.3-0.2c0.1-0.3,0.5-0.1,0.6-0.3l0,0c0.1,0,0.1-0.1,0.2-0.1
		c0.2,0.1,0.4-0.2,0.6,0C12,27.2,11.7,27.5,11.5,27.6z"/>
	<path class="st217" d="M12.2,27c-0.2,0-0.4,0.3-0.6,0.1c-0.1-0.2,0.1-0.2,0.2-0.3l0,0c0.1,0.2,0.5-0.5,0.5,0.1L12.2,27z"/>
	<path class="st218" d="M12.5,25.8h-0.1c0-0.1,0.1-0.3,0.1-0.4c0.1,0,0.3,0,0.4,0.1c0.1,0.2,0.1,0.4,0,0.6h-0.1
		c-0.1,0-0.1-0.1-0.1-0.1C12.7,25.8,12.6,25.7,12.5,25.8C12.5,25.7,12.5,25.7,12.5,25.8z"/>
	<path class="st219" d="M12.8,25.9v0.2l-0.1,0.2c-0.1-0.1-0.1-0.2-0.1-0.3S12.7,25.8,12.8,25.9z"/>
	<path class="st220" d="M8.8,27.1l-0.1-0.2c-0.1-0.1-0.1-0.3,0.1-0.4c0,0,0.1,0,0.1,0c0.3,0,0.5,0.2,0.6,0.4s0.2,0.2,0.2,0.4
		c-0.2,0.1-0.4,0-0.5-0.1c0.1,0.3,0.5,0.2,0.6,0.5H9.4l-0.3-0.1C8.8,27.5,8.8,27.3,8.8,27.1z"/>
	<path class="st221" d="M9.7,27.6c-0.4-0.2-0.7-0.5-0.9-0.8c0.4,0,0.5,0.5,0.8,0.4s0.5,0.1,0.6,0.2C10.3,27.8,10,27.6,9.7,27.6
		L9.7,27.6z"/>
	<path class="st222" d="M9.8,27.7c0.1-0.2,0.4,0,0.4-0.3c0,0,0.1-0.1,0.1-0.1c0.1,0,0.3,0,0.4,0.1c0.1,0,0.3,0,0.3,0.2
		C10.7,27.9,10.2,27.9,9.8,27.7z"/>
	<path class="st189" d="M8.8,27.1l0.3,0.4v0.2l-0.4-0.3L8.8,27.1z"/>
	<path class="st223" d="M5,25.6c-0.4,0.1-0.6-0.2-0.9-0.3L4,25c0-0.2-0.3-0.4,0-0.7c0.1,0,0.2,0,0.3,0.1C4.4,24.9,4.9,25.1,5,25.6
		L5,25.6z"/>
	<path class="st224" d="M4,24.4c-0.2,0.2,0.1,0.4,0,0.6c-0.1-0.1-0.2-0.3-0.2-0.5c0-0.2,0.1-0.4,0.3-0.5l0,0
		C4.2,24.2,4.1,24.3,4,24.4z"/>
	<path class="st225" d="M11.1,26.2c-0.2-0.3-0.1-0.5,0.1-0.7c0-0.1,0.1-0.1,0.2,0c0.1,0.2,0.1,0.5-0.1,0.7
		C11.3,26.2,11.2,26.2,11.1,26.2z"/>
	<path class="st226" d="M10.1,27H9.9c-0.1,0-0.1,0-0.1-0.1s-0.2-0.3,0-0.4c0.1-0.1,0.3-0.1,0.4,0.1C10.4,26.7,10.2,26.8,10.1,27z"/>
	<path class="st227" d="M11.1,26.2h0.2c0.3,0,0.2,0.2,0.2,0.4h0c-0.2,0-0.4,0.2-0.5,0S11.1,26.3,11.1,26.2z"/>
	<path class="st228" d="M9.8,26.9L9.9,27v0.1c-0.2,0.1-0.4-0.1-0.5-0.2c-0.1-0.2-0.3-0.3-0.5-0.4c0-0.1,0-0.1,0.1-0.1
		C9.4,26.3,9.4,26.9,9.8,26.9z"/>
	<path class="st189" d="M9,26.4l-0.1,0.1c-0.2,0.1-0.2,0.2-0.2,0.4l-0.2-0.1v-0.2C8.6,26.4,8.7,26.1,9,26.4z"/>
	<path class="st229" d="M11.1,26.9c-0.2,0.2-0.5,0-0.8,0.1C10.6,26.8,10.9,26.9,11.1,26.9z"/>
	<path class="st230" d="M5.6,24.1c0.1,0.1,0.2,0.2,0.2,0.4c-0.2,0.1-0.1,0.5-0.4,0.5c-0.2-0.1-0.5,0.1-0.7-0.2
		c0-0.1,0.1-0.1,0.1-0.2s-0.1,0-0.2,0.1c-0.2,0-0.3-0.1-0.4-0.2c0-0.1,0.1-0.2,0.2-0.3c0.3-0.5,0.5-0.6,1-0.2
		C5.5,24,5.6,24.1,5.6,24.1z"/>
	<path class="st231" d="M5.6,24.1c-0.1,0.3-0.2,0.1-0.3,0c-0.4-0.4-0.5-0.3-0.7,0.1c-0.1,0.1-0.2,0.1-0.3,0.2c0,0-0.1,0-0.1,0
		c0,0,0,0,0,0c0-0.1-0.1-0.1-0.2-0.1c0-0.1,0.1-0.3,0.1-0.4C4.8,23.5,5.2,23.6,5.6,24.1z"/>
	<path class="st232" d="M5.4,25c0.2-0.1,0-0.5,0.4-0.5c0,0.3-0.1,0.7-0.3,0.9H5.3c-0.1-0.1-0.1-0.2,0-0.3C5.3,25.1,5.4,25,5.4,25z"
		/>
	<path class="st233" d="M5.4,25c-0.1,0.1-0.1,0.3-0.1,0.4L5,25.6c-0.4-0.2-0.7-0.6-0.8-1h0.1c0.2,0,0.3,0.1,0.4,0.2s0.1,0,0.1,0.1
		C5,25.1,5.3,24.6,5.4,25z"/>
	<path class="st234" d="M6.7,24c0.1,0.3,0.3,0.5-0.1,0.7C6.4,24.4,6.4,24.2,6.7,24z"/>
	<path class="st235" d="M9.4,26.9l0.5,0.2c0.2,0.1,0.3,0.1,0.5,0.1c0,0.1,0,0.1-0.1,0.2h-0.1l-0.6-0.2C9.5,27.1,9.4,27.1,9.4,26.9z"
		/>
	<path class="st192" d="M10.3,27.4l0.1-0.2c0.3-0.1,0.6-0.1,0.9-0.1l-0.6,0.3H10.3z"/>
	<path class="st192" d="M11.8,26.8l-0.2,0.3h-0.2C11.4,26.9,11.6,26.8,11.8,26.8z"/>
	<path class="st191" d="M12.9,26.1v-0.6C13.1,25.6,13.1,25.9,12.9,26.1z"/>
	<path class="st236" d="M12.8,25.9L12.6,26c-0.1,0-0.1-0.1-0.1-0.2c0-0.1,0.1-0.2,0.2-0.2S12.8,25.8,12.8,25.9z"/>
	<path class="st231" d="M4.8,24.8l-0.1-0.1c0-0.1,0-0.3,0.1-0.3s0.2,0,0.2,0.2S5,24.8,4.8,24.8z"/>
	<path class="st237" d="M20.5,24.6c0,0.3-0.1,0.6-0.2,0.9c-0.1,0.1-0.1,0.4-0.3,0.4c-0.1-0.1-0.3-0.2-0.3-0.3c0-0.2,0-0.3,0.1-0.5
		c0-0.2,0.1-0.4,0.1-0.5c0-0.1,0.1-0.2,0.2-0.2c0.1,0,0.2,0.1,0.2,0.2c0-0.2-0.1-0.4-0.1-0.7c0-0.2-0.1-0.5,0.2-0.7
		C20.6,23.7,20.6,24.2,20.5,24.6z"/>
	<path class="st238" d="M8,34.9c-0.7,0-1.4-0.3-2-0.7c-0.1-0.1-0.2-0.1-0.3-0.2c-0.8-0.2-1.1-0.8-1.6-1.4c0.1,0,0.1,0,0.2,0
		c0.3,0.1,0.5,0.4,0.7,0.6s0.4,0.4,0.6,0.5l0.2,0.1L5.9,34c0.2,0.1,0.4,0.3,0.6,0.3h0.1c0.3,0.1,0.7,0.2,1,0.3
		c0.1,0,0.2,0.1,0.4,0.1C8,34.8,8.1,34.8,8,34.9L8,34.9z"/>
	<path class="st239" d="M18.5,17.9c0.7,1.1,1.2,2.3,1.5,3.6c-0.2,0-0.2-0.1-0.3-0.2c0-0.2-0.1-0.4-0.2-0.6c0-0.1,0-0.1-0.1-0.2
		c0-0.1,0-0.2-0.1-0.3c0-0.1-0.1-0.2-0.1-0.2c-0.3-0.4-0.4-0.8-0.6-1.2c-0.1-0.2-0.2-0.4-0.2-0.6C18.5,18,18.5,18,18.5,17.9z"/>
	<path class="st240" d="M20.5,24.6c-0.1-0.4,0.1-0.9-0.1-1.3c-0.1,0-0.2-0.1-0.2-0.2c-0.1-0.1-0.1-0.4-0.3-0.4
		c0.1-0.3,0.1-0.6,0-0.9c0-0.1,0-0.1,0.1-0.1c0.4,0.3,0.3,0.7,0.4,1.1C20.7,23.3,20.7,24,20.5,24.6z"/>
	<path class="st241" d="M19.8,21.3l0.2,0.2l0,0.1l0,0c-0.2,0.3-0.1,0.6-0.3,0.9c-0.4,0-0.4-0.3-0.5-0.5
		C19.2,21.6,19.4,21.3,19.8,21.3C19.7,21.2,19.7,21.3,19.8,21.3z"/>
	<path class="st242" d="M20,25.9l0.3-0.4c-0.3,0.8,0,1.7-0.7,2.3h-0.1c-0.1-0.2,0.1-0.4,0.1-0.6C19.9,26.7,19.7,26.2,20,25.9z"/>
	<path class="st243" d="M0.9,29v0.2c-0.6-0.3-0.4-0.8-0.4-1.3c0-0.2,0-0.3,0-0.5c0.2-0.1,0.2,0,0.2,0.1c0,0.3,0.1,0.6,0.2,0.9
		C0.9,28.7,0.9,28.8,0.9,29z"/>
	<path class="st242" d="M18.6,29.1l0.1-0.5c0-0.1,0.1-0.2,0.1-0.4l0.1-0.2c0-0.1,0.1-0.1,0.1-0.2c0-0.4,0.2-0.4,0.5-0.2l0,0
		C19.3,28.2,19,28.7,18.6,29.1z"/>
	<path class="st244" d="M12.9,34c-0.3,0.3-0.8,0.5-1.2,0.6c0,0-0.1-0.1-0.1-0.2s0.2-0.2,0.3-0.2H12c0.2-0.1,0.4-0.1,0.6-0.3
		C12.7,34,12.8,34,12.9,34z"/>
	<path class="st245" d="M12.9,34h-0.3c0,0-0.1,0-0.1,0c0-0.1,0.1-0.2,0.2-0.2c0.1,0,0.3-0.1,0.4-0.2c0.2-0.1,0.4-0.3,0.6-0.1h0.1
		C13.5,33.8,13.1,33.8,12.9,34z"/>
	<path class="st246" d="M10.3,35c-0.5,0.2-1.1,0.2-1.7,0c0.1-0.2,0.3-0.1,0.5-0.2h0.5C9.9,34.8,10.1,34.9,10.3,35L10.3,35z"/>
	<path class="st246" d="M11.6,34.6L11.6,34.6c-0.3,0.3-0.8,0.4-1.2,0.4l0,0c0,0,0-0.1,0-0.1c0.1-0.1,0.2-0.1,0.4-0.1h0.1
		c0.2,0,0.4-0.1,0.6-0.2C11.5,34.6,11.5,34.6,11.6,34.6z"/>
	<path class="st238" d="M9.2,35H8.6c-0.2,0-0.4,0-0.6-0.1l0,0C8.5,34.7,8.9,34.6,9.2,35z"/>
	<path class="st247" d="M0.5,27.4v0.5c-0.1-0.1-0.1-0.4-0.1-0.5V27h0.1C0.6,27.1,0.6,27.3,0.5,27.4z"/>
	<path class="st248" d="M0.1,26.1C0,25.8,0,25.5,0,25.3C0,24.3,0,23.4,0,22.4c0.1,0,0.1,0,0.2,0c0.1,0.6,0.1,1.3,0.1,1.9
		c0,0.3,0,0.6,0.1,0.9c0.1,0.2,0.1,0.4,0.1,0.5C0.4,26,0.4,26.2,0.1,26.1z"/>
	<path class="st249" d="M0.6,19.6C0.8,19.4,0.8,19,1,18.9s0.1,0,0.2,0.1c0,0.3,0.1,0.6-0.2,0.9C0.8,19.8,0.8,19.8,0.6,19.6L0.6,19.6
		z"/>
	<path class="st250" d="M0.1,26.1c0.1,0,0.2-0.1,0.2-0.2c0.1,0,0.1,0,0.2,0.1c0,0.1,0,0.1,0,0.2c-0.1,0.2,0.1,0.6-0.2,0.8
		c0,0,0,0,0,0.1C0.2,26.7,0.1,26.4,0.1,26.1z"/>
	<path class="st251" d="M0.1,22.4H0c0-0.3,0.1-0.6,0.2-1l0.1,0.1C0.4,21.8,0.4,22.2,0.1,22.4z"/>
	<path class="st251" d="M0.3,20.9L0.5,20c0,0,0.1,0,0.1,0c0,0,0,0,0,0c0.1,0.2,0.1,0.4,0.1,0.5C0.6,20.8,0.5,20.9,0.3,20.9L0.3,20.9
		z"/>
	<path class="st251" d="M0.2,21.5c0-0.2,0-0.4,0.1-0.6l0,0C0.5,21.1,0.5,21.3,0.2,21.5z"/>
	<path class="st13" d="M0.6,20L0.6,20c-0.1-0.2,0-0.3,0.1-0.4l0,0C0.8,19.8,0.8,20,0.6,20z"/>
	<path class="st252" d="M13.2,14.4l0.5,0.2v0.1l0,0.1c-0.1,0.1-0.3,0-0.4-0.1C13.2,14.5,13.2,14.4,13.2,14.4z"/>
	<path class="st252" d="M14.2,14.9c-0.2,0-0.3,0-0.4-0.1c0,0,0,0,0-0.1s0,0,0,0l0,0L14.2,14.9z"/>
	<path class="st253" d="M5.7,14.3c0.2-0.3,0.6-0.1,0.9-0.4c0.8-0.2,1.5-0.3,2.3-0.4c1.2,0,2.3,0.1,3.5,0.2l0.2,0.2
		c-0.1,0.1-0.3,0.1-0.4,0.1c-0.7-0.1-1.5-0.2-2.2-0.1c-0.1,0-0.1,0-0.2,0c-0.2-0.1-0.5-0.1-0.7-0.1C8.4,14,7.7,14.2,7,14.2
		c-0.4,0-0.7,0.3-1.1,0.3c-0.1,0-0.1,0-0.1-0.1L5.7,14.3z"/>
	<path class="st254" d="M19.2,21.9c0.1,0.2,0.1,0.5,0.4,0.5c0.1-0.1,0.2,0,0.2,0.1c-0.1,0.2,0,0.5,0.1,0.7c0.1,0.2,0.2,0.5,0.3,0.7
		c0,0.1,0,0.1,0,0.2c0,0.1-0.1,0.2-0.2,0.3c0,0.1-0.1,0.1,0,0.2c-0.1,0-0.3-0.1-0.4,0c-0.1,0-0.2,0-0.3-0.1s0-0.6-0.1-0.8
		s-0.1-0.7-0.3-1s-0.1-0.6,0.2-0.8C19.1,21.8,19.2,21.9,19.2,21.9z"/>
	<path class="st255" d="M20,25.9c0.1,0.5,0,0.9-0.2,1.3c-0.1,0.1-0.2,0-0.2-0.1c0-0.1-0.1-0.2-0.2-0.3c-0.1-0.1-0.2-0.2,0-0.4
		s0.2-0.1,0.1-0.2c-0.1-0.2-0.1-0.4,0-0.6c0.1-0.1,0.2-0.2,0.4-0.1L20,25.9z"/>
	<path class="st256" d="M19.8,25.6l-0.3,0.1c-0.2,0.1,0.1,0.4-0.2,0.5c-0.4-0.2-0.5-0.5-0.1-0.9c0.2-0.2,0-0.5,0.2-0.7
		c0.1,0,0.1-0.1,0.2,0s0.2,0.4,0.3,0.5L19.8,25.6z"/>
	<path class="st257" d="M19.9,25.1c-0.3-0.1-0.2-0.3-0.3-0.5c0.2-0.1,0-0.3,0.2-0.4s0,0.3,0.2,0.4C20,24.8,20,25,19.9,25.1z"/>
	<path class="st258" d="M20.2,24.1v-0.2c0-0.2,0-0.3-0.1-0.5c0-0.1,0-0.3,0.2-0.3c0.1,0,0.1,0.1,0.1,0.2c0,0.2,0,0.5,0,0.7
		C20.3,24,20.3,24.1,20.2,24.1z"/>
	<path class="st259" d="M20.2,24.1l0.2-0.1v0.6c-0.2,0-0.2-0.2-0.3-0.2L20.2,24.1z"/>
	<path class="st260" d="M7.6,34.8l-1-0.4v-0.1c0.6-0.1,1.1-0.4,1.8-0.4c0.1,0.2,0.1,0.4,0.2,0.6c0,0,0,0.1,0,0.1
		c-0.1,0.1-0.3,0-0.5,0.1S7.8,34.6,7.6,34.8z"/>
	<path class="st261" d="M6.6,34.4H6.5c-0.2-0.1-0.3-0.3-0.4-0.4c0-0.1,0-0.2,0.1-0.3l0,0c0.1-0.1,0.1-0.1,0.2-0.1
		c0.3,0,0.6,0,0.8,0.4c0,0.1,0,0.2-0.1,0.3C6.9,34.3,6.7,34.3,6.6,34.4L6.6,34.4z"/>
	<path class="st262" d="M9.2,35c-0.4-0.1-0.8-0.2-1.2-0.1v-0.1c0-0.1,0.1-0.1,0.1-0.1c0.2,0,0.4,0,0.6,0s0.4,0,0.6,0h0.4
		c0.1,0,0.3,0,0.4,0s0.4,0,0.5,0.2c-0.1,0.1-0.3,0.1-0.4,0.1S9.9,35,9.7,35L9.2,35z"/>
	<path class="st263" d="M4.9,33.3c0.3,0,0.6,0.2,0.7,0.5C5.3,33.8,5,33.7,4.9,33.3z"/>
	<path class="st264" d="M6.2,33.6V34C6.1,34,5.9,34,5.8,34c0,0-0.1,0-0.1,0C5.8,33.7,5.8,33.5,6.2,33.6z"/>
	<path class="st265" d="M8.1,34.8H8H7.6c0.1-0.3,0.3-0.1,0.5-0.2C8.2,34.6,8.2,34.7,8.1,34.8C8.1,34.8,8.1,34.8,8.1,34.8z"/>
	<path class="st266" d="M5.8,34h0.3l0.3,0.4C6.2,34.3,6,34.1,5.8,34z"/>
	<path class="st267" d="M18.7,18.7c-0.2-0.1-0.4-0.4-0.3-0.6h0.1C18.5,18.3,18.8,18.4,18.7,18.7z"/>
	<path class="st268" d="M19.7,21.3l-0.1-0.6C19.8,20.8,19.7,21.1,19.7,21.3L19.7,21.3z"/>
	<path class="st22" d="M19.4,19.9c0.1,0,0.1,0.1,0.1,0.2c0,0-0.1,0.1-0.1,0.1c-0.1,0-0.3,0.1-0.4,0c0-0.1,0-0.2,0-0.2
		C19,19.9,19.2,20,19.4,19.9L19.4,19.9z"/>
	<path class="st269" d="M19.3,20.1h0.1c0.1,0.1,0.1,0.2,0.1,0.3l-0.2-0.1C19.3,20.3,19.3,20.2,19.3,20.1
		C19.3,20.2,19.3,20.2,19.3,20.1z"/>
	<path class="st270" d="M20.3,23c-0.3,0.2,0.1,0.6-0.1,0.8l-0.4-1c-0.1-0.2-0.2-0.3,0.1-0.4c0,0,0.1,0.1,0.1,0.1
		C20.3,22.6,20.2,22.9,20.3,23z"/>
	<path class="st271" d="M20,22.6l-0.1-0.1c0-0.1-0.1-0.1-0.2-0.1c0-0.3-0.1-0.6,0.3-0.8C20.1,22,20.3,22.3,20,22.6z"/>
	<path class="st272" d="M18.6,28.7l0.1-0.3c0-0.1,0.1-0.1,0.2,0c0,0,0,0,0,0C18.9,28.5,18.9,28.6,18.6,28.7L18.6,28.7z"/>
	<path class="st272" d="M19.3,26.8c0.3-0.1,0.2,0.4,0.4,0.4c-0.1,0.2-0.2,0.3-0.2,0.5c-0.2,0-0.5-0.1-0.4,0.3c0,0.1-0.1,0.2-0.2,0.2
		c-0.2-0.2-0.3-0.5-0.2-0.8C19,27.2,19.1,27,19.3,26.8z"/>
	<path class="st273" d="M0.7,27.4c0.3,0.1,0.6,0.4,0.6,0.7c0,0.3-0.1,0.6-0.5,0.4c-0.2-0.3-0.2-0.6-0.2-0.9
		C0.6,27.6,0.6,27.5,0.7,27.4z"/>
	<path class="st274" d="M0.7,27.4c0,0.1,0,0.2-0.1,0.2l-0.1-0.2c0-0.1,0-0.3-0.1-0.4c0.2-0.2-0.1-0.6,0.1-0.8c0.1,0,0.1,0,0.1,0.1
		C0.9,26.5,0.9,27.1,0.7,27.4C0.7,27.4,0.7,27.4,0.7,27.4z"/>
	<path class="st275" d="M9.9,13.8c0.9-0.1,1.8,0,2.7,0.2l0,0c0.1,0.1,0.3,0.1,0.4,0.2l0.2,0.1l0.1,0.2c0,0.1-0.1,0.2-0.2,0.1
		L13,14.7c-0.3,0.1-0.4-0.2-0.6-0.3s-0.5,0.1-0.7,0c-0.6,0-1.2-0.2-1.8-0.5C9.9,14,9.9,13.9,9.9,13.8z"/>
	<path class="st252" d="M13,14.2c-0.2,0-0.3-0.1-0.4-0.2C12.8,14,12.9,14,13,14.2z"/>
	<path class="st276" d="M10.2,34.8H9.8c0-0.2-0.1-0.3-0.2-0.4c0-0.2,0.3-0.2,0.3-0.4c0.3-0.3,0.8-0.5,1.2-0.4c0.2,0,0.3,0,0.5-0.2
		c0,0,0.1,0,0.1,0c0.1,0.3,0.4,0.3,0.6,0.2c0,0,0.1,0,0.1,0c0.1,0.1,0.3,0,0.3,0.3c-0.1,0-0.2,0-0.2,0.1c-0.1,0.2-0.4,0.1-0.5,0.3
		h-0.1c-0.1,0-0.2-0.1-0.3-0.1c-0.3-0.2-0.5-0.2-0.7,0.1S10.4,34.6,10.2,34.8z"/>
	<path class="st277" d="M10.2,34.8c0.3-0.2,0.7-0.5,0.9-0.8c0.1-0.1,0.6,0.2,0.8,0.5l-0.3,0.2h-0.2c-0.2,0-0.4,0.1-0.6,0.2
		L10.2,34.8L10.2,34.8z"/>
	<path class="st278" d="M12,34.4c-0.1-0.5,0.3-0.3,0.5-0.3h0.1C12.5,34.3,12.3,34.4,12,34.4z"/>
	<path class="st279" d="M12.7,34l-0.3-0.2c0.2-0.2,0.4-0.2,0.6,0l0,0C13,33.9,12.8,34,12.7,34z"/>
	<path class="st238" d="M9.7,35c0.2-0.1,0.4-0.1,0.6-0.1c0,0,0,0.1,0,0.1L9.7,35z"/>
	<path class="st262" d="M10.7,34.8c0.2-0.2,0.4-0.3,0.6-0.2C11.2,34.7,11,34.8,10.7,34.8z"/>
	<path class="st280" d="M0.2,21.5c0.2-0.2,0.1-0.4,0.1-0.6l0.2-0.2c0,0,0.1,0,0.1,0c0.1,0.1,0.1,0.3,0.1,0.5
		c-0.1,0.4-0.2,0.8-0.1,1.2c-0.1,0.1-0.1,0.4,0,0.5c0,0.1,0,0.2,0,0.3c-0.1,0.2-0.2,0.4-0.1,0.6c0.1,0.6,0.1,1.2-0.2,1.7
		c-0.2-0.2-0.1-0.5-0.1-0.8c0-0.7,0-1.5,0-2.2L0.2,21.5z"/>
	<path class="st281" d="M0.2,25.4c0.1-0.6,0.1-1.3,0-1.9c0-0.2,0.1-0.4,0.3-0.5c0.2,0.3,0.1,0.7,0.1,1v0.2c0,0.1,0,0.2,0.1,0.3
		c0,0.4,0,0.9-0.1,1.3C0.5,25.9,0.5,26,0.4,26l-0.1-0.1C0.3,25.7,0.4,25.6,0.2,25.4z"/>
	<path class="st282" d="M0.9,19.8l-0.2,0.8H0.6V20c0-0.1,0.1-0.3,0.1-0.4S0.9,19.7,0.9,19.8z"/>
	<path class="st69" d="M0.4,26l0.1-0.1c0.2,0,0.3,0.1,0.2,0.3c0,0.1-0.1,0.1-0.2,0.1l-0.1-0.1V26z"/>
	<path class="st283" d="M13.1,14.7l0.2-0.1l0.4,0.1c0,0,0,0.1,0,0.1C13.5,14.9,13.3,14.9,13.1,14.7z"/>
	<path class="st275" d="M9.5,13.8c-0.1,0-0.3,0-0.4-0.1c0.2,0,0.5-0.1,0.7,0.1L9.5,13.8z"/>
	<path class="st284" d="M19,25c-0.2-0.8-0.3-1.5-0.3-2.3c0.1-0.1,0.2-0.1,0.2,0c0.3,0.2,0.1,0.7,0.3,0.9C19.3,24.1,19.3,24.6,19,25z
		"/>
	<path class="st84" d="M19,25c-0.1-0.5,0.3-0.9,0.2-1.4c0.2,0.3,0.1,0.6,0.1,0.9s0.1,0.7-0.3,1c-0.2,0.2,0.3,0.3,0.2,0.6
		s-0.1,0.1-0.2,0.1c-0.1-0.2-0.4-0.4-0.3-0.7C18.9,25.5,19.1,25.3,19,25z"/>
	<path class="st285" d="M18.9,22.7h-0.2l0,0c-0.5-0.4-0.2-0.9-0.1-1.3c0.2,0,0.4,0.2,0.4,0.5c0,0,0,0,0,0
		C18.9,22.2,18.9,22.5,18.9,22.7z"/>
	<path class="st272" d="M19.3,26.5c0-0.1,0.1-0.2,0.2-0.2c0.1,0.1,0.1,0.2,0.1,0.2S19.4,26.5,19.3,26.5z"/>
	<path class="st286" d="M5.8,33.1h0.4c0.3-0.1,0.5,0,0.6,0.3c-0.1,0.2-0.3,0.1-0.4,0.2H6.2C6.1,33.4,5.8,33.4,5.8,33.1z"/>
	<path class="st287" d="M6.6,34.4c0-0.3,0.2-0.2,0.4-0.2c0.2-0.1,0.3-0.3,0.3-0.4c0,0,0-0.1,0.1-0.1c0.6-0.1,1.3,0,1.9,0.1
		c0.2,0,0.4,0.1,0.4,0.4c-0.4,0.2-0.8,0.1-1.1-0.1c-0.1,0-0.3,0-0.4,0.1C7.6,34.3,7.1,34.4,6.6,34.4z"/>
	<path class="st288" d="M8.4,34c0.4,0.1,0.8,0.1,1.1,0.1C9.7,34,9.8,34,9.9,34c0,0,0,0,0,0c0.1,0.4-0.3,0.1-0.3,0.3
		c-0.1,0.1-0.2,0.2-0.3,0.2c-0.3,0.1-0.5,0-0.8-0.1C8.5,34.3,8.1,34.2,8.4,34z"/>
	<path class="st289" d="M8.6,34.5h0.8c0.1,0.1,0.1,0.2,0,0.3H8.8c-0.1-0.1-0.2-0.1-0.2-0.2V34.5z"/>
	<path class="st290" d="M8.6,34.6c0.1,0,0.2,0.1,0.2,0.2H8.1v-0.2C8.3,34.5,8.4,34.6,8.6,34.6z"/>
	<path class="st291" d="M7.3,33.8L7.3,33.8c0,0.2-0.1,0.3-0.2,0.2c-0.2-0.3-0.5-0.3-0.7-0.3c0.1-0.2,0.2-0.2,0.4-0.2
		c0,0,0.1,0,0.1,0C7.1,33.5,7.2,33.6,7.3,33.8z"/>
	<path class="st260" d="M7.1,34l0.2-0.1c0.1,0.3-0.1,0.3-0.3,0.3L7.1,34z"/>
	<path class="st292" d="M9.4,34.8v-0.3l0.2-0.1c0.4,0,0.4,0.1,0.2,0.4H9.4z"/>
	<path class="st293" d="M18.9,20v0.2c0.1,0.1,0.1,0.2,0,0.2h-0.1c-0.1,0-0.1-0.1-0.1-0.1c-0.1-0.1-0.2-0.1-0.2-0.2
		c-0.1-0.2-0.1-0.4,0-0.6c0,0,0.1-0.1,0.2-0.1c0.1,0,0.2,0,0.2,0.1C18.9,19.7,19.1,19.9,18.9,20z"/>
	<path class="st294" d="M18.9,20.5v-0.2c0.1-0.1,0.3-0.1,0.4-0.1v0.2c0,0.2,0,0.4-0.2,0.4S18.9,20.6,18.9,20.5z"/>
	<path class="st295" d="M18.8,20.2v0.2c0,0.2-0.1,0.5-0.4,0.5c0,0,0,0,0,0v-0.5C18.5,20.3,18.6,20.1,18.8,20.2z"/>
	<path class="st59" d="M18.9,20l-0.1-0.5c0-0.1,0-0.1,0.1-0.1c0,0.3,0.2,0.4,0.4,0.5C19.2,20.1,19.1,20,18.9,20z"/>
	<path class="st296" d="M18.9,19.4l-0.1,0.1h-0.2c-0.2-0.2,0-0.3,0.2-0.3L18.9,19.4z"/>
	<path class="st297" d="M0.8,26.2c0-0.1-0.1-0.3-0.2-0.3l0.1-1.4c0.4,0.4,0.6,1,0.5,1.6l-0.1,0.1H0.8z"/>
	<path class="st298" d="M13.4,32.9c0,0.2-0.3,0.2-0.3,0.4c-0.2,0.1-0.4,0.2-0.6,0.2c-0.3-0.1-0.6,0.2-0.9-0.1l0,0
		c0-0.3,0.4-0.2,0.5-0.4s0.3-0.2,0.5-0.2s0.4-0.2,0.6-0.2c0,0,0.1,0,0.1,0.1C13.4,32.7,13.4,32.8,13.4,32.9z"/>
	<path class="st299" d="M12.5,33.4c0.2-0.1,0.4-0.1,0.6-0.1c0,0.1,0,0.3-0.1,0.4h-0.6c-0.1-0.1-0.2-0.2-0.1-0.3S12.4,33.4,12.5,33.4
		z"/>
	<path class="st4" d="M13.3,32.7c0.2-0.2,0.5-0.3,0.7-0.1c0,0.4-0.4,0.3-0.6,0.3C13.4,32.9,13.3,32.8,13.3,32.7z"/>
	<path class="st300" d="M12.5,14.3c0.1,0.2,0.1,0.4-0.2,0.4s-0.6,0.1-0.7-0.3l0.3-0.1C12.1,14.6,12.3,14.1,12.5,14.3z"/>
	<path class="st301" d="M12.2,33.1c-0.1,0.3-0.4,0.1-0.5,0.3s-0.2,0.4-0.5,0.3c-0.4-0.1-0.9,0-1.2,0.3H9.6c-0.1-0.3-0.4-0.2-0.6-0.2
		c-0.5-0.1-1.1-0.1-1.6-0.1c-0.1-0.1-0.3-0.1-0.4-0.3c0.1-0.2,0.3-0.3,0.5-0.4c0,0,0.1,0,0.1,0c0.1,0.1,0.3,0.1,0.5,0.1
		c0.2,0,0.4,0,0.6,0c0.9,0.1,1.8,0,2.7-0.3C11.6,32.8,11.9,32.9,12.2,33.1z"/>
	<path class="st279" d="M12.5,33.4c-0.3,0-0.1,0.2-0.1,0.3c-0.3,0-0.7,0.4-0.7-0.3C11.9,33.5,12.2,33.2,12.5,33.4z"/>
	<path class="st12" d="M0.6,24.2v-1.5c0,0,0.1,0,0.2,0c0.2,0.4,0.2,0.8,0.1,1.1C0.8,24,0.8,24.2,0.6,24.2z"/>
	<path class="st281" d="M0.7,22.7H0.6c-0.3-0.1-0.2-0.3,0-0.4l0.1,0.1C0.7,22.5,0.8,22.6,0.7,22.7C0.7,22.7,0.7,22.7,0.7,22.7z"/>
	<path class="st302" d="M1.2,24.3H0.6v-0.1c0.2-0.5,0.2-1,0.1-1.5v-0.3l0.2-0.3C1,22.6,1,23.1,1.1,23.5c0,0.2,0.1,0.3,0.2,0.5
		C1.3,24.1,1.3,24.2,1.2,24.3z"/>
	<path class="st303" d="M6.1,32.7c0.3,0,0.6,0.4,0.8-0.1c0.5-0.1,0.6,0,0.6,0.5c-0.3,0-0.3,0.4-0.6,0.3H6.8
		c-0.2-0.2-0.4-0.3-0.6-0.3C6.2,33,5.9,32.9,6.1,32.7z"/>
	<path class="st52" d="M18.4,20.6c0-0.1,0-0.3,0.1-0.4c0.1,0,0.2,0,0.3,0.1C18.6,20.2,18.6,20.5,18.4,20.6z"/>
	<path class="st303" d="M7.5,33.1c0.2,0,0.3,0,0.4,0.2C7.8,33.4,7.6,33.3,7.5,33.1z"/>
</g>
</svg>
